<svg width="36" height="37" viewBox="0 0 36 37" fill="none" xmlns="http://www.w3.org/2000/svg">
<path fill-rule="evenodd" clip-rule="evenodd" d="M31.5015 27.2447C31.5015 27.1258 31.5013 27.0069 31.5013 26.888C31.5013 24.0067 31.5019 21.1255 31.4996 18.2441C31.4996 18.0934 31.4937 17.9378 31.458 17.7928C31.3934 17.5301 31.2059 17.4069 30.9422 17.4235C30.6777 17.4402 30.5156 17.593 30.4743 17.8564C30.4529 17.9939 30.4603 18.1368 30.4603 18.2771C30.4601 21.1467 30.4601 24.0163 30.4601 26.8858C30.4909 26.8788 30.5237 26.8744 30.5603 26.8762C30.9061 26.8931 31.2491 27.012 31.5015 27.2447Z" fill="#10681B"/>
<path fill-rule="evenodd" clip-rule="evenodd" d="M34.9133 5.6184C33.6727 2.56148 31.4093 0.738723 28.1973 0.132769C27.9606 0.0882003 27.7236 0.0442802 27.4869 0H26.0291C25.3117 0.164809 24.5845 0.295705 23.8805 0.506378C23.4093 0.647283 22.955 0.87214 22.5232 1.11464C22.2072 1.29219 21.9015 1.36621 21.5428 1.3657C15.2999 1.35742 9.05751 1.36189 2.8148 1.35771C1.68055 1.35692 0.789952 1.772 0.264905 2.83076C0.147414 3.06764 0.0867853 3.3334 0 3.5859V9.5625C0.161772 9.84935 0.409192 9.93266 0.727049 9.92711C1.57109 9.91264 2.41563 9.92229 3.25996 9.92229H4.03726V10.4219C4.03726 17.5104 4.0369 24.599 4.03768 31.6875C4.0379 32.674 4.48547 33.1267 5.4593 33.1268C11.1382 33.1274 16.8174 33.1272 22.4964 33.1267C22.612 33.1267 22.7296 33.1325 22.8426 33.1134C23.0859 33.0723 23.2353 32.9234 23.2635 32.6709C23.2932 32.4047 23.1853 32.2044 22.9311 32.1263C22.7801 32.0799 22.6128 32.0743 22.4529 32.0741C16.843 32.0717 11.2333 32.0722 5.62384 32.0721C5.07882 32.0721 5.07868 32.0719 5.07868 31.5139C5.07868 22.6679 5.07918 13.8218 5.07783 4.9758C5.07769 4.11626 5.18288 3.23721 4.59891 2.43887H20.7078C20.5437 2.61296 20.4229 2.73291 20.3112 2.86108C18.1443 5.34811 17.4281 8.20983 18.4025 11.3786C19.3964 14.6114 21.6353 16.5882 24.8779 17.3889C25.151 17.4564 25.2463 17.5526 25.2428 17.8487C25.2254 19.3247 25.2316 20.8012 25.2386 22.2774C25.2397 22.4859 25.192 22.6036 24.9904 22.7111C24.1323 23.1686 23.9195 24.2706 24.4965 25.0646C24.5849 25.1862 24.6432 25.3873 24.6146 25.5309C24.0493 28.3544 24.0457 31.1835 24.509 34.0181C24.6334 34.7787 25.0262 35.3643 25.7096 35.7245C25.9215 35.8363 26.1535 35.9092 26.3762 36H27.1397C27.414 35.8825 27.7048 35.7935 27.9593 35.6421C28.1824 35.5093 28.3636 35.3508 28.5114 35.1719C28.4366 35.1749 28.3595 35.1591 28.2961 35.1311C28.0252 35.0116 27.8066 34.8059 27.5405 34.6764C27.3236 34.8485 27.0463 34.9463 26.7549 34.944C26.1571 34.9391 25.6506 34.5099 25.5466 33.892C25.1004 31.2375 25.0958 28.5855 25.5961 25.9354C25.6371 25.7189 25.7054 25.6429 25.926 25.6477C26.57 25.6617 27.2147 25.6527 27.8675 25.6527C28.0061 26.271 28.1124 26.8872 28.186 27.5027C28.4311 27.3249 28.7113 27.1775 28.9831 27.0453C29.0439 27.0157 29.1037 27.0045 29.1599 27.0068C29.0932 26.498 29.0083 25.9902 28.9043 25.4836C28.8792 25.3607 28.9355 25.1863 29.0136 25.0812C29.6144 24.2722 29.4039 23.1758 28.5305 22.7038C28.366 22.615 28.2964 22.528 28.2975 22.3347C28.3051 20.812 28.3101 19.2892 28.2942 17.7668C28.2913 17.4897 28.4215 17.4482 28.6327 17.3978C31.5913 16.6911 33.6971 14.929 34.8811 12.0947C35.1697 11.4039 35.2756 10.6349 35.464 9.90155C35.4928 9.78952 35.5138 9.67547 35.5384 9.56243V8.08585C35.3358 7.26109 35.2291 6.39622 34.9133 5.6184ZM4.02397 8.85546H1.06715C1.05784 8.76798 1.04235 8.69 1.04228 8.61217C1.04093 7.06791 1.03723 5.52365 1.04377 3.97938C1.04647 3.32123 1.34634 2.825 1.9397 2.55925C2.50355 2.30675 3.07551 2.36679 3.51235 2.81449C3.74826 3.05634 3.99255 3.42124 4.00136 3.73717C4.0492 5.43019 4.02397 7.12515 4.02397 8.85546ZM28.3125 24.0781C28.3165 24.3869 28.1077 24.5888 27.7394 24.5943C27.0823 24.6043 26.4248 24.6053 25.7679 24.5934C25.4192 24.587 25.2208 24.3888 25.2168 24.0909C25.2126 23.7927 25.4097 23.5909 25.755 23.5757C26.1003 23.5606 26.4467 23.5724 26.7926 23.5724C27.1041 23.5715 27.4155 23.5638 27.7266 23.5735C28.1005 23.585 28.3084 23.7713 28.3125 24.0781ZM26.2955 22.4918V17.6165H27.229V22.4918H26.2955ZM26.7764 16.5501C22.5396 16.5709 19.0621 13.1045 19.0286 8.82702C18.9958 4.59549 22.4779 1.08375 26.7341 1.05588C30.9813 1.02788 34.4943 4.53328 34.4966 8.80153C34.4988 13.0627 31.0452 16.529 26.7764 16.5501Z" fill="#10681B"/>
<path fill-rule="evenodd" clip-rule="evenodd" d="M7.77641 29.3317C8.34261 29.3317 8.86126 29.3317 9.43635 29.3317C9.43635 29.2002 9.43635 29.0775 9.43635 28.9547C9.43635 27.8299 9.43457 26.7049 9.4372 25.58C9.43862 24.9285 9.77041 24.5829 10.4124 24.5683C10.7938 24.5596 11.1761 24.5566 11.5574 24.5698C12.1581 24.5905 12.4921 24.9428 12.4939 25.5506C12.4976 26.6756 12.4952 27.8005 12.4952 28.9255C12.4952 29.0519 12.4952 29.1783 12.4952 29.3238C12.8252 29.3238 13.1216 29.3238 13.472 29.3238C13.472 29.1902 13.472 29.0547 13.472 28.9194C13.472 26.9273 13.4715 24.9352 13.4724 22.9431C13.4728 22.1754 13.7896 21.8502 14.5376 21.8465C14.8498 21.845 15.1621 21.8449 15.4746 21.8465C16.2164 21.8502 16.5305 22.1634 16.5311 22.9071C16.5325 24.911 16.5315 26.9147 16.5315 28.9185C16.5315 29.0445 16.5315 29.1706 16.5315 29.3201C16.8628 29.3201 17.1582 29.3201 17.4956 29.3201C17.501 29.2008 17.5111 29.0773 17.5114 28.9536C17.5132 28.274 17.5049 27.5942 17.5149 26.9147C17.5239 26.2882 17.8746 25.9463 18.4922 25.9412C18.874 25.9379 19.2557 25.9369 19.6375 25.9415C20.2168 25.9484 20.565 26.2851 20.5766 26.8769C20.5901 27.5563 20.5805 28.2361 20.5808 28.9157C20.581 29.0421 20.581 29.1684 20.581 29.3441C21.2122 29.3441 21.8095 29.3417 22.4068 29.3459C22.5679 29.3472 22.7333 29.3494 22.8882 29.3864C23.1475 29.4481 23.2734 29.6369 23.2593 29.9042C23.2452 30.1723 23.0965 30.3371 22.8349 30.3798C22.7101 30.4001 22.5813 30.3985 22.4543 30.3985C17.4918 30.3994 12.5291 30.3994 7.56666 30.3991C6.8669 30.3991 6.73541 30.2657 6.73534 29.5611C6.73513 27.2527 6.73463 24.9443 6.73683 22.6358C6.7369 22.4964 6.73605 22.3502 6.77521 22.2194C6.85084 21.9659 7.04879 21.7955 7.29657 21.8736C7.47454 21.9298 7.63269 22.1123 7.75096 22.2749C7.81337 22.3607 7.77598 22.5247 7.77598 22.6531C7.77698 24.739 7.77669 26.8247 7.77669 28.9106C7.77641 29.0377 7.77641 29.1646 7.77641 29.3317ZM14.534 22.9213C14.534 25.063 14.534 27.1847 14.534 29.3173C14.858 29.3173 15.161 29.3173 15.4643 29.3173C15.4643 27.1686 15.4643 25.047 15.4643 22.9213C15.1429 22.9213 14.8475 22.9213 14.534 22.9213ZM10.4889 29.316C10.8253 29.316 11.1288 29.316 11.4319 29.316C11.4319 28.0767 11.4319 26.8659 11.4319 25.6497C11.1055 25.6497 10.8015 25.6497 10.4889 25.6497C10.4889 26.8812 10.4889 28.0845 10.4889 29.316ZM19.5114 29.3242C19.5114 28.5271 19.5114 27.7744 19.5114 27.0112C19.1882 27.0112 18.8928 27.0112 18.581 27.0112C18.581 27.7891 18.581 28.5512 18.581 29.3242C18.9032 29.3242 19.1982 29.3242 19.5114 29.3242Z" fill="#10681B"/>
<path fill-rule="evenodd" clip-rule="evenodd" d="M12.979 16.3818C14.8065 16.3818 16.634 16.3815 18.4613 16.3824C18.5767 16.3826 18.6956 16.3756 18.8067 16.4006C19.0607 16.4581 19.2145 16.6266 19.2222 16.8931C19.2296 17.1595 19.0875 17.3397 18.835 17.407C18.7147 17.4391 18.5829 17.4355 18.4566 17.4355C14.8133 17.4369 11.1701 17.4367 7.52699 17.4367C7.49223 17.4367 7.45748 17.4371 7.42279 17.4366C6.98865 17.4304 6.73903 17.2361 6.74059 16.9058C6.74216 16.5765 6.99086 16.383 7.42755 16.3826C9.27805 16.3809 11.1285 16.3819 12.979 16.3818Z" fill="#10681B"/>
<path fill-rule="evenodd" clip-rule="evenodd" d="M11.9593 19.4804C10.48 19.4804 9.00086 19.4809 7.52153 19.4795C7.39487 19.4795 7.23182 19.5155 7.14915 19.4511C6.9898 19.3268 6.77955 19.1485 6.77017 18.9821C6.761 18.8181 6.94744 18.6081 7.09968 18.4823C7.19599 18.4028 7.38676 18.4274 7.53524 18.4273C10.4936 18.4248 13.4522 18.4254 16.4107 18.4256C16.9459 18.4256 17.1999 18.5918 17.2078 18.9449C17.216 19.3079 16.9558 19.4802 16.3971 19.4802C14.9178 19.4805 13.4386 19.4804 11.9593 19.4804Z" fill="#10681B"/>
<path fill-rule="evenodd" clip-rule="evenodd" d="M11.9776 15.3923C10.4985 15.3923 9.01927 15.3925 7.53994 15.3915C7.42472 15.3915 7.30673 15.3965 7.19493 15.374C6.90998 15.3167 6.73278 15.1347 6.74892 14.8377C6.7647 14.5463 6.94282 14.37 7.23978 14.3433C7.34305 14.334 7.44761 14.3376 7.55159 14.3376C10.4986 14.3373 13.4454 14.3373 16.3923 14.3373C16.4385 14.3373 16.4848 14.3369 16.5308 14.3375C16.9652 14.3431 17.2122 14.5362 17.2079 14.8667C17.2035 15.1975 16.9581 15.3903 16.5192 15.3913C15.0053 15.3938 13.4914 15.3923 11.9776 15.3923Z" fill="#10681B"/>
<path fill-rule="evenodd" clip-rule="evenodd" d="M11.2785 4.77896C12.5502 4.77896 13.8217 4.77874 15.0934 4.77932C15.1974 4.77946 15.3037 4.77183 15.4048 4.79048C15.6763 4.84074 15.8418 5.00907 15.8491 5.29218C15.8566 5.57571 15.6985 5.75298 15.4301 5.81454C15.3191 5.83988 15.2002 5.83312 15.085 5.83312C12.565 5.83405 10.0446 5.83384 7.52444 5.83384C7.48983 5.83384 7.45514 5.83427 7.42039 5.83369C6.98866 5.82728 6.73776 5.63051 6.74096 5.30096C6.74409 4.97286 6.99328 4.7804 7.42891 4.77975C8.712 4.77774 9.99523 4.77896 11.2785 4.77896Z" fill="#10681B"/>
<path fill-rule="evenodd" clip-rule="evenodd" d="M9.96133 7.87722C9.10684 7.87722 8.25206 7.87952 7.39757 7.87621C6.98881 7.8747 6.74693 7.67944 6.74132 7.36069C6.73556 7.04223 6.9827 6.82515 7.38108 6.82429C9.09028 6.82054 10.7995 6.82083 12.5087 6.82386C12.9154 6.8245 13.1589 7.02546 13.1646 7.34413C13.1706 7.6767 12.9245 7.87513 12.4907 7.87657C11.6474 7.87924 10.8044 7.87722 9.96133 7.87722Z" fill="#10681B"/>
<path fill-rule="evenodd" clip-rule="evenodd" d="M8.63659 10.2428C9.05296 10.2433 9.46954 10.2351 9.8857 10.2458C10.2394 10.255 10.4675 10.4671 10.4702 10.7614C10.4728 11.0528 10.2457 11.2846 9.8938 11.29C9.03817 11.3031 8.18198 11.3029 7.32628 11.2906C6.97075 11.2856 6.74458 11.0619 6.74181 10.7697C6.73897 10.4648 6.97622 10.2522 7.35265 10.2444C7.78053 10.2355 8.20856 10.2424 8.63659 10.2428Z" fill="#10681B"/>
<path fill-rule="evenodd" clip-rule="evenodd" d="M31.5195 5.77263C31.5195 7.80268 31.5195 9.83287 31.5195 11.9426C32.0197 11.2051 32.2762 10.456 32.4065 9.65618C32.4981 9.09314 32.6972 8.8685 33.053 8.93179C33.4024 8.99392 33.5258 9.2884 33.4348 9.84302C32.9286 12.9279 30.3638 15.3342 27.3659 15.5367C24.1205 15.7559 21.2896 13.8601 20.3234 10.8206C19.0577 6.83968 21.7978 2.57762 25.9249 2.10746C29.4103 1.71045 32.5455 3.90617 33.3421 7.30221C33.4343 7.69518 33.3034 7.9739 32.9879 8.05698C32.6952 8.13424 32.4686 7.95078 32.339 7.57941C32.1218 6.95804 31.885 6.34388 31.6565 5.7267C31.6109 5.7421 31.5652 5.75737 31.5195 5.77263ZM30.4599 8.81644C30.4599 7.46975 30.4555 6.12313 30.4645 4.77651C30.4659 4.55755 30.4113 4.41262 30.23 4.27855C29.381 3.65093 28.4437 3.27422 27.3977 3.14455C23.8957 2.71068 20.7964 5.66737 21.0843 9.21792C21.268 11.4833 22.4395 13.1095 24.4759 14.0092C26.4686 14.8897 28.3988 14.631 30.1936 13.3741C30.3965 13.2319 30.4676 13.0704 30.4654 12.8212C30.4535 11.4864 30.4599 10.1513 30.4599 8.81644Z" fill="#10681B"/>
<path fill-rule="evenodd" clip-rule="evenodd" d="M22.2048 8.77148C22.2258 7.60033 22.6249 6.55589 23.4398 5.68159C23.7182 5.38293 23.9854 5.34089 24.2302 5.54393C24.4842 5.75431 24.4962 6.0565 24.217 6.37582C23.4592 7.24256 23.122 8.23299 23.307 9.38709C23.4114 10.0384 23.688 10.6066 24.1152 11.1059C24.4814 11.5343 24.5118 11.8072 24.2481 12.0512C23.9872 12.2923 23.6742 12.2092 23.3135 11.7898C22.5774 10.9333 22.2189 9.93162 22.2048 8.77148Z" fill="#10681B"/>
<path d="M30.7853 35.7746C33.1799 35.7746 35.121 33.8083 35.121 31.3826C35.121 28.957 33.1799 26.9906 30.7853 26.9906C28.3908 26.9906 26.4496 28.957 26.4496 31.3826C26.4496 33.8083 28.3908 35.7746 30.7853 35.7746Z" stroke="#10681B" stroke-miterlimit="10"/>
<path fill-rule="evenodd" clip-rule="evenodd" d="M30.7591 33.7874C30.1298 33.7874 29.5007 33.7881 28.8713 33.7871C28.496 33.7865 28.1889 33.5802 28.0704 33.2413C28.0396 33.1531 28.0227 33.056 28.0205 32.9624C28.0139 32.685 28.0163 32.4074 28.0186 32.1299C28.0197 31.9885 28.0943 31.8901 28.2188 31.8532C28.3297 31.8204 28.4577 31.8607 28.516 31.9634C28.5472 32.0186 28.5643 32.0892 28.5656 32.1534C28.5712 32.4046 28.5677 32.6562 28.568 32.9078C28.5683 33.1253 28.6717 33.2299 28.8873 33.23C30.135 33.2301 31.3827 33.2301 32.6305 33.23C32.8465 33.2299 32.9495 33.126 32.9499 32.9078C32.9503 32.652 32.9486 32.3963 32.9505 32.1405C32.9519 31.9568 33.0715 31.8372 33.2422 31.8436C33.3681 31.8483 33.4828 31.9502 33.4939 32.0781C33.5025 32.1772 33.5002 32.2773 33.4999 32.3769C33.4992 32.5959 33.5041 32.8151 33.4932 33.0336C33.4744 33.4173 33.1349 33.7609 32.7555 33.7805C32.5462 33.7912 32.3361 33.7868 32.1265 33.7871C31.6707 33.7878 31.2148 33.7874 30.7591 33.7874Z" fill="#10681B"/>
<path fill-rule="evenodd" clip-rule="evenodd" d="M31.0341 31.7242C31.0599 31.7003 31.0753 31.687 31.0896 31.6725C31.1863 31.5742 31.2813 31.4742 31.3797 31.3776C31.4884 31.271 31.6537 31.2739 31.761 31.381C31.8646 31.4842 31.8745 31.6562 31.7723 31.7627C31.4992 32.0471 31.2233 32.3289 30.9454 32.6084C30.8391 32.7152 30.6754 32.713 30.5691 32.6057C30.2932 32.3272 30.0191 32.0469 29.747 31.7644C29.6448 31.6581 29.6522 31.4875 29.755 31.3827C29.8612 31.2746 30.0271 31.2698 30.1364 31.3759C30.2352 31.4719 30.3299 31.5723 30.4266 31.6705C30.4414 31.6855 30.4571 31.6995 30.4839 31.7251C30.4839 31.6867 30.4839 31.6618 30.4839 31.6369C30.4839 30.6156 30.4837 29.5944 30.4843 28.5732C30.4843 28.5279 30.484 28.4811 30.4946 28.4375C30.5253 28.31 30.6485 28.2253 30.7802 28.2357C30.9134 28.2462 31.0162 28.3458 31.0302 28.48C31.0336 28.5122 31.034 28.5449 31.034 28.5774C31.0341 29.5964 31.0341 30.6156 31.0341 31.6346C31.0341 31.6599 31.0341 31.685 31.0341 31.7242Z" fill="#10681B"/>
</svg>
