<svg width="36" height="37" viewBox="0 0 36 37" fill="none" xmlns="http://www.w3.org/2000/svg">
<path fill-rule="evenodd" clip-rule="evenodd" d="M28.539 2.52389C28.5232 1.34626 27.7335 0.40896 26.6044 0.084672C26.5288 0.063 26.4569 0.028584 26.3835 0H7.6099C6.80278 0.196776 6.22383 0.723456 5.65928 1.29708C4.09846 2.88324 2.52468 4.45702 0.9391 6.01848C0.300244 6.64754 -0.00122029 7.37222 3.71189e-06 8.27453C0.0118117 16.5671 0.00677174 24.8597 0.00720374 33.1522C0.00727574 34.668 0.667732 35.5338 2.14179 35.958C2.16216 35.964 2.178 35.9857 2.19579 36H26.3131C26.3443 35.9842 26.3738 35.9608 26.407 35.9537C26.8378 35.861 27.2043 35.6972 27.507 35.4751C27.401 35.4116 27.3277 35.3107 27.2817 35.1912C27.1482 35.14 27.023 35.0642 26.9179 34.9667C26.8924 34.943 26.8722 34.9182 26.8558 34.8929C26.7862 34.8504 26.7164 34.8083 26.6468 34.7663C26.3986 34.8839 26.0993 34.945 25.7529 34.9451C18.0911 34.9456 10.4293 34.9458 2.76754 34.9448C1.69193 34.9448 1.06251 34.3198 1.06236 33.2466C1.06114 24.8936 1.06157 16.5408 1.06265 8.1877C1.06265 8.03988 1.07604 7.89214 1.08454 7.71689H1.5061C2.87684 7.71689 4.24858 7.68564 5.61795 7.72618C6.83698 7.7621 7.76751 6.96175 7.72013 5.61218C7.67333 4.27838 7.70983 2.94156 7.70991 1.60589C7.70991 1.05545 7.70998 1.05487 8.25883 1.05473C14.0696 1.05473 19.8804 1.05458 25.6913 1.05473C26.8983 1.05487 27.4973 1.65809 27.4976 2.87438C27.4981 5.08846 27.4966 7.30274 27.499 9.51696C27.4994 9.91908 27.679 10.135 28.0016 10.1451C28.3239 10.1551 28.5485 9.9306 28.5491 9.55289C28.5531 7.20986 28.5701 4.86662 28.539 2.52389ZM6.65251 5.80003C6.64906 6.33046 6.37805 6.64704 5.87916 6.65352C4.55839 6.67058 3.23734 6.65928 1.89634 6.65928C3.48473 5.0706 5.04706 3.50791 6.61601 1.93853C6.62357 1.97172 6.65323 2.04149 6.65331 2.11126C6.65597 3.34073 6.66051 4.57042 6.65251 5.80003Z" fill="#5D63AD"/>
<path fill-rule="evenodd" clip-rule="evenodd" d="M35.2788 20.1002C35.0122 19.6487 35.0047 19.237 35.2724 18.7837C35.976 17.5911 35.5367 16.2481 34.2588 15.6952C33.7851 15.4902 33.5567 15.1542 33.5004 14.6539C33.3402 13.234 32.2361 12.4384 30.8423 12.7468C30.3663 12.8521 29.996 12.7313 29.6768 12.3759C28.7054 11.2939 27.3481 11.2852 26.3771 12.3596C26.047 12.7247 25.674 12.8532 25.1835 12.7445C23.7898 12.4356 22.6469 13.2814 22.5248 14.7007C22.4844 15.1702 22.2534 15.4792 21.8331 15.6733C20.4512 16.311 20.058 17.529 20.8066 18.8549C21.0208 19.2342 21.0633 19.6247 20.8177 19.9848C19.9762 21.2181 20.6068 22.798 21.8634 23.2227C22.2467 23.3526 22.4812 23.6623 22.5103 24.0693C22.5928 25.2234 23.1984 25.9196 24.3451 26.2036C24.3451 27.7731 24.3489 29.3188 24.3428 30.8645C24.341 31.3357 24.498 31.7184 24.9142 31.9554C25.0605 32.0386 25.2062 32.0851 25.351 32.1003C25.2078 31.4971 25.2564 30.7646 25.4213 30.2965C25.4215 30.2959 25.4218 30.2955 25.422 30.295V26.1006C25.7993 26.0487 26.1045 26.1812 26.322 26.4636C26.6925 26.9447 27.2125 27.2148 27.7515 27.2821C28.2524 26.9242 29.252 26.736 29.409 26.7505C29.4291 26.7461 29.4497 26.7407 29.4697 26.7368C29.5607 26.6523 29.6454 26.5585 29.7227 26.4553C29.929 26.1797 30.2335 26.06 30.6101 26.0937V26.8556C30.6388 26.8554 30.6688 26.8582 30.7001 26.8651C30.9897 26.9292 31.2664 27.1159 31.5645 27.1283C31.612 27.1302 31.6543 27.1399 31.692 27.1551C31.6915 26.9382 31.6913 26.7212 31.6902 26.5043C31.6893 26.289 31.7353 26.1878 31.9701 26.1168C32.8773 25.842 33.4056 25.2211 33.4954 24.2671C33.5452 23.7383 33.7766 23.3852 34.2802 23.1694C35.5326 22.6323 35.9721 21.2733 35.2788 20.1002ZM34.3385 20.5759C34.7528 21.276 34.5449 21.9065 33.7976 22.2296C32.95 22.596 32.5271 23.2507 32.4473 24.1605C32.3983 24.7196 32.0431 25.0872 31.5194 25.1405C31.3499 25.1574 31.1704 25.1201 31.0005 25.0841C30.1838 24.9114 29.4965 25.1366 28.9354 25.7473C28.3037 26.4352 27.7259 26.4329 27.0972 25.7443C26.5373 25.1312 25.8461 24.9108 25.0312 25.0873C24.1635 25.2752 23.6516 24.8896 23.5676 24.0145C23.4899 23.2037 23.0898 22.571 22.3253 22.2854C21.5387 21.9915 21.2646 21.1878 21.7416 20.4718C22.1841 19.8072 22.1725 19.0447 21.7312 18.3787C21.2656 17.6763 21.5446 16.8862 22.3165 16.5925C23.1064 16.2918 23.505 15.6414 23.5727 14.7986C23.6352 14.0197 24.1865 13.6014 24.9504 13.775C25.8481 13.979 26.5834 13.7315 27.1844 13.0353C27.6709 12.4721 28.3648 12.4747 28.8554 13.0395C29.4581 13.7326 30.1939 13.9798 31.0916 13.7743C31.8331 13.6045 32.3762 13.9813 32.4493 14.734C32.5409 15.6762 32.9995 16.3226 33.8822 16.6789C34.3212 16.8562 34.5475 17.2186 34.5901 17.6793C34.5088 17.8817 34.4515 18.0981 34.3422 18.2838C33.891 19.0513 33.8849 19.8097 34.3385 20.5759Z" fill="#5D63AD"/>
<path fill-rule="evenodd" clip-rule="evenodd" d="M17.4836 3.64356C19.2405 3.64341 20.9977 3.64226 22.7547 3.64406C23.6213 3.64493 24.068 4.09572 24.0713 4.96757C24.0731 5.44781 24.0739 5.92826 24.0711 6.40836C24.0664 7.24018 23.5987 7.71286 22.7601 7.71523C20.9563 7.72006 19.1524 7.71696 17.3485 7.71674C16.7278 7.71674 16.1068 7.72171 15.4861 7.71242C15.1979 7.7081 14.9505 7.5636 14.9479 7.27027C14.9464 7.08581 15.0878 6.86808 15.2275 6.72703C15.3105 6.64344 15.5144 6.66461 15.664 6.66446C17.96 6.66108 20.2558 6.6623 22.5516 6.66194C23.0162 6.66194 23.0165 6.66122 23.0169 6.20525C23.0172 5.79528 23.0076 5.38488 23.0206 4.97534C23.0274 4.75675 22.9414 4.6949 22.7326 4.69519C19.2303 4.69965 15.7279 4.69987 12.2256 4.6949C12.0077 4.6944 11.9391 4.77475 11.9434 4.98269C11.9529 5.43938 11.9537 5.89651 11.9431 6.35306C11.9378 6.57691 12.0155 6.6757 12.2471 6.66468C12.4924 6.65294 12.7393 6.65467 12.9847 6.6672C13.2911 6.68297 13.5123 6.89566 13.5064 7.17221C13.4999 7.47065 13.3332 7.68031 13.0419 7.69572C12.6236 7.71818 12.1959 7.72222 11.7836 7.65922C11.2908 7.58369 10.9263 7.14938 10.9071 6.65028C10.8825 6.00703 10.8789 5.36134 10.9053 4.71859C10.9315 4.08283 11.4339 3.64723 12.1069 3.64536C13.8992 3.64046 15.6913 3.6437 17.4836 3.64356Z" fill="#5D63AD"/>
<path fill-rule="evenodd" clip-rule="evenodd" d="M11.2307 21.229C9.06416 21.229 6.89754 21.2294 4.73106 21.2277C4.60347 21.2274 4.46926 21.2305 4.34953 21.1945C4.09515 21.1179 3.96174 20.9241 3.98074 20.6632C3.99961 20.4039 4.15477 20.2312 4.41858 20.1858C4.5327 20.1663 4.65207 20.1747 4.76907 20.1747C9.09051 20.1741 13.4119 20.1743 17.7334 20.1744C17.8387 20.1744 17.9456 20.1669 18.049 20.1819C18.3264 20.222 18.4966 20.3806 18.5142 20.6663C18.5332 20.9717 18.3651 21.1502 18.0804 21.2158C17.9687 21.2415 17.8474 21.2286 17.7305 21.2286C15.5639 21.229 13.3973 21.229 11.2307 21.229Z" fill="#5D63AD"/>
<path fill-rule="evenodd" clip-rule="evenodd" d="M11.2351 17.5167C9.08036 17.5167 6.92562 17.5168 4.77088 17.5162C4.65395 17.5162 4.53493 17.5237 4.42031 17.5059C4.15326 17.4646 3.96498 17.2812 3.99392 17.0338C4.01567 16.8491 4.174 16.6505 4.32548 16.5214C4.42024 16.4407 4.61521 16.4639 4.76526 16.4637C9.08648 16.4614 13.4076 16.4615 17.7289 16.4627C17.8571 16.4627 17.9907 16.4549 18.1124 16.4869C18.3816 16.557 18.5332 16.7382 18.5142 17.0256C18.4955 17.3102 18.3304 17.473 18.0503 17.5088C17.9348 17.5236 17.8164 17.5163 17.6993 17.5163C15.5446 17.5168 13.3899 17.5167 11.2351 17.5167Z" fill="#5D63AD"/>
<path fill-rule="evenodd" clip-rule="evenodd" d="M11.2689 23.8829C13.4233 23.8829 15.5779 23.8826 17.7324 23.8836C17.8608 23.8838 17.9928 23.8778 18.1171 23.9038C18.363 23.9553 18.5441 24.1286 18.5013 24.3686C18.4676 24.5561 18.3223 24.7522 18.1717 24.8801C18.0767 24.9607 17.8808 24.9355 17.7302 24.9355C13.4095 24.938 9.08878 24.9375 4.7682 24.9375C4.70959 24.9375 4.65098 24.9393 4.59252 24.9366C4.21308 24.9182 3.9744 24.7119 3.97447 24.4042C3.97454 24.0948 4.21135 23.8858 4.59468 23.885C6.40958 23.8809 8.22456 23.883 10.0395 23.8829C10.4491 23.8829 10.8591 23.8829 11.2689 23.8829Z" fill="#5D63AD"/>
<path fill-rule="evenodd" clip-rule="evenodd" d="M11.2529 12.7663C13.4073 12.7663 15.5617 12.7661 17.716 12.767C17.8444 12.767 17.9757 12.7628 18.1009 12.786C18.3658 12.8349 18.508 13.0068 18.5152 13.275C18.5224 13.5426 18.39 13.7237 18.129 13.7874C18.0061 13.8178 17.8739 13.8196 17.746 13.8196C13.4137 13.8212 9.08158 13.821 4.74934 13.8202C4.64436 13.8202 4.53788 13.8185 4.43448 13.802C4.13446 13.7544 3.9703 13.5603 3.9816 13.2697C3.99298 12.9796 4.17024 12.7945 4.47394 12.7742C4.67223 12.7607 4.87181 12.7666 5.07082 12.7666C7.13139 12.7661 9.19203 12.7663 11.2529 12.7663Z" fill="#5D63AD"/>
<path fill-rule="evenodd" clip-rule="evenodd" d="M7.88868 29.3117C8.96551 29.3116 10.0424 29.3102 11.1193 29.3123C11.5606 29.3133 11.797 29.5065 11.7885 29.8485C11.7806 30.171 11.5402 30.3649 11.1271 30.3652C8.96163 30.3674 6.79622 30.3674 4.63075 30.365C4.22424 30.3646 3.97649 30.1593 3.97346 29.8389C3.97037 29.5166 4.21387 29.314 4.62298 29.3127C5.71154 29.3096 6.80018 29.3117 7.88868 29.3117Z" fill="#5D63AD"/>
<path fill-rule="evenodd" clip-rule="evenodd" d="M28.0262 15.0239C30.4721 15.0289 32.4401 17.0062 32.4342 19.4526C32.4282 21.893 30.4437 23.8578 27.9946 23.8485C25.573 23.8393 23.6003 21.8606 23.598 19.4383C23.5954 17.0056 25.5884 15.0191 28.0262 15.0239ZM28.0232 16.0801C26.1747 16.0761 24.6763 17.5595 24.6542 19.4156C24.6324 21.2627 26.1539 22.7916 28.0156 22.7931C29.8705 22.7948 31.3705 21.3075 31.3789 19.4583C31.3875 17.5879 29.8938 16.0842 28.0232 16.0801Z" fill="#5D63AD"/>
<path d="M30.0314 35.9496C32.4624 35.9496 34.4331 33.9789 34.4331 31.5479C34.4331 29.1169 32.4624 27.1462 30.0314 27.1462C27.6004 27.1462 25.6297 29.1169 25.6297 31.5479C25.6297 33.9789 27.6004 35.9496 30.0314 35.9496Z" stroke="#5D63AD" stroke-miterlimit="10"/>
<path fill-rule="evenodd" clip-rule="evenodd" d="M30.0619 33.9129C29.4245 33.9129 28.7872 33.9136 28.1497 33.9126C27.7695 33.9121 27.4584 33.7057 27.3384 33.3668C27.3072 33.2786 27.29 33.1815 27.2878 33.0879C27.2812 32.8105 27.2835 32.5329 27.2858 32.2554C27.287 32.114 27.3626 32.0157 27.4887 31.9787C27.601 31.946 27.7307 31.9862 27.7897 32.089C27.8213 32.1442 27.8387 32.2148 27.84 32.2789C27.8456 32.5302 27.8421 32.7817 27.8424 33.0333C27.8427 33.2508 27.9474 33.3554 28.1658 33.3555C29.4298 33.3557 30.6937 33.3557 31.9576 33.3555C32.1764 33.3554 32.2808 33.2515 32.2812 33.0334C32.2816 32.7776 32.2799 32.5218 32.2818 32.266C32.2832 32.0823 32.4044 31.9628 32.5773 31.9692C32.7048 31.9738 32.8211 32.0757 32.8323 32.2037C32.841 32.3027 32.8386 32.4029 32.8383 32.5025C32.8376 32.7214 32.8426 32.9407 32.8316 33.1591C32.8126 33.5429 32.4686 33.8864 32.0843 33.906C31.8722 33.9168 31.6595 33.9123 31.4471 33.9126C30.9854 33.9134 30.5236 33.9129 30.0619 33.9129Z" fill="#5D63AD"/>
<path fill-rule="evenodd" clip-rule="evenodd" d="M30.3405 31.8498C30.3667 31.8259 30.3823 31.8126 30.3968 31.798C30.4947 31.6998 30.5909 31.5998 30.6907 31.5032C30.8007 31.3966 30.9682 31.3995 31.0769 31.5066C31.1818 31.6098 31.1918 31.7818 31.0883 31.8883C30.8117 32.1727 30.5323 32.4545 30.2507 32.734C30.143 32.8407 29.9772 32.8386 29.8695 32.7313C29.5901 32.4528 29.3124 32.1724 29.0367 31.89C28.9332 31.7837 28.9407 31.6131 29.0449 31.5083C29.1524 31.4002 29.3205 31.3954 29.4312 31.5015C29.5313 31.5975 29.6272 31.6979 29.7252 31.7961C29.7401 31.8111 29.756 31.8251 29.7832 31.8507C29.7832 31.8123 29.7832 31.7874 29.7832 31.7625C29.7832 30.7412 29.783 29.7201 29.7836 28.6988C29.7836 28.6535 29.7833 28.6067 29.794 28.5632C29.8251 28.4356 29.95 28.3509 30.0833 28.3613C30.2183 28.3718 30.3224 28.4714 30.3366 28.6056C30.34 28.6378 30.3404 28.6705 30.3404 28.703C30.3406 29.722 30.3406 30.7412 30.3406 31.7602C30.3405 31.7854 30.3405 31.8106 30.3405 31.8498Z" fill="#5D63AD"/>
</svg>
