<svg width="30" height="37" viewBox="0 0 30 37" fill="none" xmlns="http://www.w3.org/2000/svg">
<path fill-rule="evenodd" clip-rule="evenodd" d="M20.153 6.85615C21.1492 6.85169 22.1459 6.85197 23.1424 6.85565C23.811 6.85802 23.7321 6.79257 23.7323 7.43489C23.7334 14.0393 23.733 20.6437 23.7324 27.2481C23.7796 27.2166 23.8363 27.195 23.903 27.1883C24.15 27.1635 24.3956 27.1324 24.6404 27.0955C24.6404 26.7407 24.6406 26.3859 24.6406 26.031C24.6406 19.5767 24.6407 13.1222 24.64 6.66773C24.64 6.07258 24.5084 5.93714 23.9262 5.93614C22.673 5.93376 21.4199 5.93527 20.1666 5.93549C19.8516 5.93556 19.5732 6.00914 19.5667 6.39549C19.5602 6.78703 19.8307 6.85759 20.153 6.85615Z" fill="#5D63AD"/>
<path fill-rule="evenodd" clip-rule="evenodd" d="M22.1159 35.0844C15.2273 35.0841 8.33881 35.0813 1.45032 35.0943C1.02535 35.0951 0.858253 35.0103 0.896848 34.5499C0.942764 34.003 0.91682 33.4502 0.922009 32.8999C0.917602 32.8542 0.909357 32.8086 0.909357 32.763C0.908362 24.2593 0.909784 15.7553 0.900615 7.25134C0.900189 6.91669 1.01263 6.84404 1.31705 6.84857C2.38889 6.86449 3.46102 6.85217 4.533 6.85606C4.76222 6.857 4.96237 6.80833 5.05079 6.57418C5.11213 6.41146 5.09856 6.24197 4.97083 6.10237C4.82186 5.93979 4.62725 5.9341 4.42745 5.93446C3.18943 5.93605 1.95113 5.93353 0.713114 5.93583C0.130781 5.93705 0.000426461 6.07141 0.000426461 6.668C-0.000142154 16.1968 -0.000142154 25.7255 0.000426461 35.254C0.000426461 35.8748 0.124243 35.9993 0.746876 35.9993C8.46234 36.0002 16.1778 36.0002 23.8935 35.9993C24.0233 35.9993 24.1303 35.9933 24.2202 35.979C23.4176 35.9426 22.6333 35.7167 22.1159 35.0844Z" fill="#5D63AD"/>
<path fill-rule="evenodd" clip-rule="evenodd" d="M14.9079 3.62883C15.861 3.62883 16.81 3.62732 17.7588 3.62955C18.3191 3.63077 18.4613 3.76837 18.4626 4.32478C18.466 5.71575 18.4664 7.10679 18.4624 8.49775C18.4609 9.03214 18.3138 9.18672 17.792 9.18723C14.1402 9.19046 10.4887 9.19054 6.83681 9.18701C6.3355 9.1865 6.18077 9.03084 6.17878 8.53238C6.17324 7.11089 6.17309 5.6894 6.17864 4.26783C6.18056 3.77549 6.33742 3.63157 6.84648 3.62977C7.79613 3.62653 8.74586 3.62883 9.74869 3.62883C9.46701 2.52435 9.66084 1.55192 10.4632 0.761359C11.0078 0.224744 11.6803 -0.037624 12.4381 0.00435201C14.2086 0.102344 15.1929 1.54278 14.9079 3.62883ZM7.10967 6.37311C7.10093 6.8298 7.11678 7.28873 7.07634 7.74255C7.03995 8.15179 7.1821 8.25216 7.57821 8.25029C10.7397 8.2338 13.9013 8.241 17.0628 8.24093C17.1379 8.24093 17.2135 8.23647 17.2885 8.24086C17.4782 8.25195 17.5625 8.16706 17.5578 7.97201C17.5452 7.43914 17.5399 6.90598 17.5316 6.37303C17.5393 5.90057 17.5309 5.42703 17.5606 4.95608C17.5806 4.63935 17.4852 4.53437 17.1619 4.5415C16.2131 4.56245 15.2635 4.55216 14.3143 4.54776C13.6764 4.54467 13.5172 4.25048 13.8341 3.67613C14.281 2.8657 14.1316 1.92113 13.4661 1.34967C12.8261 0.800311 11.8181 0.800383 11.1746 1.34989C10.5092 1.91768 10.3592 2.86541 10.8064 3.67599C11.1229 4.24961 10.9634 4.54467 10.3263 4.54776C9.3771 4.55223 8.42765 4.5626 7.47885 4.5415C7.15495 4.5343 7.06042 4.63964 7.08032 4.95615C7.10996 5.42703 7.10193 5.9005 7.10967 6.37311Z" fill="#5D63AD"/>
<path fill-rule="evenodd" clip-rule="evenodd" d="M16.2142 19.0555C14.442 19.06 13.1344 17.7317 13.1353 15.9276C13.1354 15.3491 12.9516 15.1789 12.3253 15.1775C11.6933 15.176 11.505 15.346 11.5054 15.9173C11.5063 17.4943 10.3737 18.8692 8.93265 19.0408C7.26249 19.2396 5.84372 18.2542 5.47654 16.6393C5.45962 16.5653 5.43048 16.4865 5.44072 16.415C5.51066 15.927 5.29728 15.7747 4.83543 15.8241C4.56071 15.8534 4.36383 15.6764 4.35857 15.3878C4.35303 15.0736 4.5615 14.8794 4.85277 14.9263C5.40475 15.0147 5.6499 14.7402 5.92837 14.2963C7.09404 12.437 9.72018 12.4176 10.9607 14.2353C11.1129 14.4583 11.21 14.5392 11.4859 14.4084C12.0593 14.1366 12.6585 14.1611 13.231 14.4373C13.4241 14.5305 13.5001 14.4895 13.6222 14.3186C15.0846 12.2716 17.748 12.4323 18.9212 14.6381C19.03 14.8427 19.1428 14.9477 19.3698 14.916C19.4289 14.9078 19.4903 14.9164 19.5505 14.9146C19.8977 14.9046 20.2762 14.9075 20.2772 15.3788C20.2776 15.815 19.9251 15.8561 19.5871 15.8311C19.3307 15.8119 19.221 15.879 19.2039 16.1755C19.109 17.8314 17.8293 19.0515 16.2142 19.0555ZM8.42097 18.1368C9.64399 18.1436 10.5914 17.213 10.5986 15.9981C10.6052 14.8159 9.65806 13.8314 8.49844 13.8156C7.30165 13.7991 6.33757 14.7585 6.33351 15.9697C6.32932 17.1854 7.2396 18.1301 8.42097 18.1368ZM16.1835 18.1368C17.3746 18.1378 18.3029 17.2054 18.3068 16.0041C18.3108 14.7789 17.3721 13.8145 16.1762 13.8151C15.0125 13.8157 14.0496 14.7848 14.042 15.9625C14.0343 17.1813 14.9742 18.1357 16.1835 18.1368Z" fill="#5D63AD"/>
<path fill-rule="evenodd" clip-rule="evenodd" d="M12.3288 21.7986C14.8776 21.7986 17.4261 21.7984 19.975 21.7991C20.1105 21.7993 20.2512 21.7847 20.3801 21.816C20.6085 21.8714 20.7475 22.0304 20.7381 22.2776C20.7295 22.502 20.5942 22.6482 20.3848 22.6973C20.2551 22.7277 20.115 22.7159 19.9797 22.7159C14.8671 22.7167 9.7548 22.7165 4.64224 22.7162C4.52177 22.7162 4.39738 22.7295 4.28131 22.7046C4.05145 22.6551 3.90382 22.5065 3.90219 22.2595C3.90055 22.0119 4.04712 21.8598 4.27676 21.811C4.40726 21.7832 4.54707 21.7989 4.68283 21.7989C7.23143 21.7986 9.78018 21.7986 12.3288 21.7986Z" fill="#5D63AD"/>
<path fill-rule="evenodd" clip-rule="evenodd" d="M12.2903 26.2959C9.75672 26.2959 7.22312 26.2959 4.68944 26.2954C4.55383 26.2954 4.41444 26.3096 4.28324 26.2835C4.05252 26.2378 3.90511 26.0872 3.90219 25.8407C3.89928 25.5932 4.0452 25.4403 4.27478 25.3908C4.40513 25.3628 4.54508 25.3783 4.6807 25.3783C9.77812 25.3779 14.8754 25.3779 19.9729 25.3781C20.0934 25.3781 20.2165 25.3665 20.3341 25.3865C20.5887 25.4297 20.7449 25.5872 20.7367 25.8549C20.7293 26.0993 20.5763 26.2466 20.3427 26.2855C20.2103 26.3074 20.072 26.2954 19.9362 26.2954C17.3876 26.2959 14.8389 26.2959 12.2903 26.2959Z" fill="#5D63AD"/>
<path fill-rule="evenodd" clip-rule="evenodd" d="M12.3122 29.875C9.77854 29.875 7.24501 29.8751 4.71133 29.8747C4.57572 29.8747 4.43733 29.8874 4.30485 29.8654C4.05039 29.8236 3.89452 29.6642 3.90312 29.3967C3.91115 29.1519 4.06361 29.0062 4.29767 28.9663C4.41523 28.9463 4.53812 28.9573 4.65888 28.9573C9.7713 28.9572 14.8836 28.9572 19.9961 28.9575C20.1167 28.9575 20.2408 28.9439 20.357 28.9684C20.5874 29.0167 20.7353 29.1653 20.7377 29.4119C20.7398 29.6594 20.5931 29.8118 20.364 29.8616C20.2338 29.8898 20.0936 29.8747 19.9582 29.8747C17.4096 29.8751 14.861 29.875 12.3122 29.875Z" fill="#5D63AD"/>
<path d="M24.661 35.8641C27.0556 35.8641 28.9967 33.8978 28.9967 31.4721C28.9967 29.0465 27.0556 27.0801 24.661 27.0801C22.2665 27.0801 20.3254 29.0465 20.3254 31.4721C20.3254 33.8978 22.2665 35.8641 24.661 35.8641Z" stroke="#5D63AD" stroke-miterlimit="10"/>
<path fill-rule="evenodd" clip-rule="evenodd" d="M24.6348 33.8769C24.0055 33.8769 23.3764 33.8776 22.7471 33.8766C22.3717 33.8761 22.0646 33.6697 21.9462 33.3308C21.9153 33.2426 21.8984 33.1455 21.8962 33.0519C21.8897 32.7745 21.892 32.4969 21.8943 32.2194C21.8954 32.078 21.9701 31.9797 22.0946 31.9427C22.2054 31.91 22.3335 31.9502 22.3917 32.053C22.4229 32.1082 22.44 32.1787 22.4414 32.2429C22.4469 32.4942 22.4434 32.7457 22.4437 32.9973C22.444 33.2148 22.5474 33.3194 22.763 33.3195C24.0108 33.3197 25.2584 33.3197 26.5062 33.3195C26.7222 33.3194 26.8252 33.2155 26.8256 32.9974C26.826 32.7416 26.8243 32.4858 26.8262 32.23C26.8276 32.0463 26.9472 31.9267 27.118 31.9332C27.2438 31.9378 27.3585 32.0397 27.3696 32.1677C27.3782 32.2667 27.3759 32.3669 27.3756 32.4665C27.3749 32.6854 27.3798 32.9046 27.3689 33.1231C27.3502 33.5069 27.0106 33.8504 26.6312 33.87C26.4219 33.8808 26.2119 33.8763 26.0022 33.8766C25.5464 33.8774 25.0906 33.8769 24.6348 33.8769Z" fill="#5D63AD"/>
<path fill-rule="evenodd" clip-rule="evenodd" d="M24.9098 31.8138C24.9356 31.7899 24.951 31.7766 24.9653 31.762C25.0621 31.6638 25.157 31.5637 25.2555 31.4672C25.3641 31.3606 25.5295 31.3635 25.6368 31.4706C25.7403 31.5738 25.7502 31.7458 25.648 31.8522C25.3749 32.1366 25.0991 32.4185 24.8212 32.698C24.7148 32.8047 24.5512 32.8026 24.4448 32.6953C24.169 32.4168 23.8948 32.1364 23.6227 31.854C23.5205 31.7477 23.5279 31.5771 23.6308 31.4723C23.737 31.3642 23.9029 31.3594 24.0121 31.4655C24.111 31.5614 24.2056 31.6619 24.3024 31.7601C24.3171 31.7751 24.3328 31.7891 24.3596 31.8147C24.3596 31.7763 24.3596 31.7514 24.3596 31.7265C24.3596 30.7052 24.3595 29.684 24.36 28.6628C24.36 28.6175 24.3597 28.5707 24.3703 28.5271C24.401 28.3996 24.5243 28.3149 24.6559 28.3253C24.7892 28.3358 24.8919 28.4354 24.906 28.5696C24.9093 28.6018 24.9097 28.6345 24.9097 28.667C24.9099 29.686 24.9099 30.7051 24.9099 31.7242C24.9098 31.7494 24.9098 31.7746 24.9098 31.8138Z" fill="#5D63AD"/>
</svg>
