<svg width="33" height="37" viewBox="0 0 33 37" fill="none" xmlns="http://www.w3.org/2000/svg">
<path fill-rule="evenodd" clip-rule="evenodd" d="M26.0558 35.9269C25.7293 35.8079 25.4793 35.5785 25.1728 35.4236C25.0256 35.3492 24.8759 35.2708 24.7355 35.1818C24.6258 35.1446 24.5189 35.0987 24.4172 35.035C24.3752 35.0088 24.3425 34.9781 24.3169 34.9446C16.9984 34.9456 9.67982 34.9458 2.36143 34.9445C1.53632 34.9445 1.04377 34.4501 1.04363 33.6103C1.04157 23.2044 1.04157 12.7985 1.04349 2.39283C1.04363 1.55095 1.53433 1.05834 2.35866 1.0564C3.46921 1.05344 4.57976 1.0515 5.69016 1.05834C5.99017 1.06014 6.25933 1.01377 6.36189 0.689422C6.4641 0.366223 6.29082 0.153901 6.02542 0.000976562H1.86085C0.376022 0.591217 0.000959581 1.15691 0.000959581 2.80602C0.000959581 12.994 0.000959503 23.1822 0.00110165 33.3702C0.00110165 33.5108 -0.00330498 33.6517 0.00550832 33.7917C0.0627237 34.6809 0.472471 35.3458 1.25458 35.76C1.4457 35.8611 1.65814 35.921 1.86078 36.0001H26.154C26.168 35.9945 26.1814 35.9889 26.1952 35.9832C26.1484 35.963 26.1018 35.9437 26.0558 35.9269Z" fill="#5D63AD"/>
<path fill-rule="evenodd" clip-rule="evenodd" d="M26.1541 0C26.3358 0.0694062 26.5242 0.124845 26.6981 0.210594C27.5622 0.636895 27.9892 1.35385 28.0104 2.31567C28.0261 3.01838 28.014 3.72172 28.014 4.42471C28.014 11.221 28.0143 18.0172 28.0123 24.8136C28.0123 24.976 28.0113 25.1452 27.9686 25.2993C27.8973 25.5569 27.7 25.6819 27.4405 25.6563C27.1838 25.6309 27.0164 25.4759 26.9832 25.2078C26.9662 25.0692 26.9729 24.9272 26.9729 24.7866C26.9727 17.3576 26.9728 9.92861 26.9725 2.49956C26.9725 1.71823 26.6556 1.23333 26.036 1.09041C25.8696 1.05189 25.6919 1.05592 25.5192 1.05592C19.8166 1.05441 14.1138 1.05456 8.41098 1.05456C8.33003 1.05456 8.249 1.05153 8.16805 1.0552C7.87636 1.06845 7.60556 1.03742 7.47812 0.714581C7.34905 0.387926 7.54685 0.189787 7.76065 0C13.8917 0 20.0229 0 26.1541 0Z" fill="#5D63AD"/>
<path fill-rule="evenodd" clip-rule="evenodd" d="M4.91181 23.8004C4.91181 24.698 4.91402 25.5645 4.91053 26.431C4.9094 26.7159 5.10073 26.7052 5.29199 26.7052C6.63382 26.7051 7.97564 26.7051 9.31761 26.7052C9.54889 26.7052 9.78031 26.7043 10.0116 26.7054C10.4823 26.7077 10.7292 26.8848 10.7333 27.2218C10.7376 27.5688 10.4765 27.7592 9.98948 27.7596C8.75164 27.7604 7.51394 27.7599 6.27624 27.7599C5.8945 27.7598 5.51261 27.7674 5.13101 27.7579C4.37683 27.7388 3.87262 27.2259 3.87191 26.4636C3.86843 22.8544 3.86871 19.2453 3.87149 15.6362C3.8722 14.8183 4.37512 14.3319 5.21608 14.3316C9.97037 14.3297 14.7247 14.3305 19.4789 14.3305C20.5894 14.3305 21.7 14.3275 22.8105 14.3316C23.6624 14.3347 24.1436 14.8224 24.144 15.684C24.1458 19.2579 24.1459 22.8318 24.144 26.4058C24.1434 27.2506 23.6418 27.758 22.8012 27.7587C19.3542 27.7615 15.9069 27.7603 12.4598 27.7591C12.0143 27.7588 11.785 27.576 11.7816 27.2334C11.7784 26.8989 12.001 26.7072 12.4152 26.7066C14.1503 26.7038 15.8855 26.7053 17.6206 26.7052C17.7461 26.7052 17.8713 26.7052 18.0274 26.7052C18.0274 25.7266 18.0274 24.775 18.0274 23.8004C13.6666 23.8004 9.31207 23.8004 4.91181 23.8004ZM18.0371 19.3706C13.6545 19.3706 9.29309 19.3706 4.9293 19.3706C4.9293 20.4935 4.9293 21.59 4.9293 22.6972C9.30901 22.6972 13.6707 22.6972 18.0371 22.6972C18.0371 21.5755 18.0371 20.4798 18.0371 19.3706ZM18.0338 18.2768C18.0338 17.2998 18.0338 16.3582 18.0338 15.3853C17.8731 15.3853 17.7368 15.3853 17.6005 15.3853C14.6404 15.3853 11.6801 15.3853 8.72001 15.3853C7.57521 15.3853 6.43047 15.3922 5.28581 15.3805C5.00179 15.3776 4.89923 15.4684 4.9057 15.7633C4.92247 16.5126 4.91039 17.2624 4.91252 18.0121C4.91281 18.1006 4.92944 18.1891 4.93832 18.2768C9.31235 18.2768 13.6579 18.2768 18.0338 18.2768ZM19.1206 22.6971C20.4611 22.6971 21.7712 22.6971 23.0738 22.6971C23.0738 21.5676 23.0738 20.4643 23.0738 19.3644C21.743 19.3644 20.4423 19.3644 19.1206 19.3644C19.1206 20.4792 19.1206 21.5741 19.1206 22.6971ZM19.125 26.7036C20.3839 26.7036 21.6173 26.704 22.8507 26.703C23.072 26.703 23.1065 26.5585 23.1052 26.3721C23.1008 25.7287 23.1035 25.0853 23.1037 24.4419C23.1037 24.2262 23.1037 24.0105 23.1037 23.7984C21.7427 23.7984 20.4427 23.7984 19.125 23.7984C19.125 24.7709 19.125 25.7225 19.125 26.7036ZM23.1033 18.274C23.1033 17.3795 23.0987 16.526 23.1062 15.6725C23.1085 15.4262 22.9812 15.3816 22.7786 15.3836C22.224 15.3888 21.6695 15.3852 21.1147 15.3852C20.4578 15.3851 19.801 15.3852 19.1284 15.3852C19.1284 16.3669 19.1284 17.3168 19.1284 18.2739C20.4592 18.274 21.7611 18.274 23.1033 18.274Z" fill="#5D63AD"/>
<path fill-rule="evenodd" clip-rule="evenodd" d="M22.6895 31.5913C22.6893 31.5795 22.7174 30.9386 22.7247 30.8616C22.0921 30.2935 21.2693 30.3828 20.702 31.1275C20.5891 31.2754 20.4905 31.4345 20.3824 31.5862C20.0787 32.0124 19.9181 32.0082 19.6057 31.5749C19.4493 31.3578 19.3 31.1331 19.1225 30.9347C18.8723 30.6553 18.5554 30.4971 18.1719 30.5064C17.7432 30.504 17.3969 30.6694 17.0944 31.0436C16.9411 31.2333 16.8248 31.4554 16.6614 31.6344C16.552 31.7543 16.4002 31.8581 16.2479 31.9095C15.9369 32.0142 15.7639 32.232 15.8144 32.5261C15.8628 32.8082 16.129 33.0273 16.4318 32.9449C16.7218 32.8661 17.0094 32.7212 17.2524 32.5416C17.4402 32.4026 17.5649 32.1709 17.7047 31.9709C18.0959 31.4119 18.2212 31.4083 18.6024 31.9583C18.6951 32.0924 18.7844 32.2297 18.8849 32.3578C19.5138 33.1602 20.4556 33.1673 21.0972 32.3715C21.243 32.1906 21.363 31.9888 21.5034 31.8033C21.7606 31.4633 21.9195 31.4659 22.1781 31.8128C22.3243 32.0087 22.4536 32.2177 22.6048 32.4093C22.6728 32.4953 22.7461 32.5725 22.8249 32.64C22.7725 32.4752 22.6868 31.7097 22.6895 31.5913Z" fill="#5D63AD"/>
<path fill-rule="evenodd" clip-rule="evenodd" d="M6.15009 5.20736C6.15009 5.54511 6.15507 5.88306 6.14867 6.22059C6.14121 6.62263 5.93047 6.86656 5.61063 6.85806C5.29897 6.84978 5.1124 6.62313 5.11062 6.22894C5.10671 5.31529 5.11226 4.40156 5.10771 3.48798C5.10621 3.20689 5.17004 2.97117 5.46337 2.87808C5.76878 2.78124 5.96686 2.93719 6.13055 3.18242C6.44008 3.6458 6.75814 4.10334 7.13391 4.65319C7.13391 4.1996 7.13242 3.84573 7.13434 3.49179C7.13669 3.08219 7.33022 2.83913 7.65049 2.83862C7.96855 2.8379 8.16997 3.08291 8.1741 3.49042C8.1827 4.36887 8.18255 5.24747 8.19407 6.12584C8.19812 6.43507 8.11965 6.69528 7.80771 6.79643C7.4959 6.89752 7.27962 6.73502 7.10861 6.47827C6.81919 6.04384 6.52125 5.61516 6.22685 5.18396C6.20127 5.19181 6.17561 5.19966 6.15009 5.20736Z" fill="#5D63AD"/>
<path fill-rule="evenodd" clip-rule="evenodd" d="M15.75 4.86403C15.7454 5.97179 14.8428 6.87674 13.7562 6.86349C12.6616 6.8501 11.7809 5.94321 11.7866 4.83509C11.7922 3.73265 12.6996 2.82476 13.7846 2.83592C14.8807 2.84736 15.7549 3.74943 15.75 4.86403ZM13.7705 3.89292C13.2542 3.89299 12.824 4.33384 12.8287 4.85777C12.8336 5.3835 13.2707 5.81527 13.7867 5.80425C14.2963 5.79345 14.7033 5.37565 14.7074 4.85885C14.7116 4.32894 14.2885 3.89285 13.7705 3.89292Z" fill="#5D63AD"/>
<path fill-rule="evenodd" clip-rule="evenodd" d="M18.4805 4.87907C18.5052 4.09638 18.8207 3.49686 19.4728 3.11469C20.1227 2.73353 20.7953 2.74008 21.4547 3.10655C21.7818 3.28806 21.8868 3.59139 21.7405 3.86649C21.5938 4.14253 21.3046 4.21093 20.9638 4.03346C20.5752 3.83107 20.2072 3.84324 19.8636 4.12252C19.5701 4.36098 19.4492 4.77151 19.5722 5.13877C19.6979 5.51395 19.9602 5.77063 20.3554 5.77919C20.5643 5.78373 20.8027 5.6933 20.9805 5.57371C21.2815 5.3714 21.5487 5.33554 21.7574 5.55096C21.9837 5.78438 21.9674 6.08166 21.6922 6.35475C21.1687 6.874 20.5404 6.97803 19.8645 6.75729C19.1207 6.51437 18.6737 5.9823 18.5175 5.20551C18.4945 5.09125 18.4906 4.9731 18.4805 4.87907Z" fill="#5D63AD"/>
<path fill-rule="evenodd" clip-rule="evenodd" d="M21.263 9.05371C22.2795 9.05399 23.2961 9.0406 24.312 9.06681C24.4864 9.07127 24.7132 9.20569 24.8105 9.35185C24.8879 9.46798 24.8653 9.74165 24.7763 9.85864C24.6748 9.99177 24.4508 10.0953 24.2792 10.0966C22.2463 10.1125 20.2133 10.1096 18.1804 10.1042C17.8055 10.1033 17.5862 9.88312 17.5956 9.55978C17.6046 9.24673 17.8094 9.05774 18.179 9.05551C19.2071 9.04931 20.235 9.05342 21.263 9.05371Z" fill="#5D63AD"/>
<path fill-rule="evenodd" clip-rule="evenodd" d="M23.6808 3.90402C23.6808 4.05702 23.6808 4.16696 23.6808 4.28741C24.0925 4.39988 24.7578 4.11959 24.7687 4.8359C24.7802 5.59814 24.0843 5.28142 23.6745 5.40994C23.6745 5.52096 23.6745 5.62427 23.6745 5.78958C23.8749 5.78958 24.0776 5.78317 24.2796 5.79095C24.6529 5.80535 24.8893 6.01602 24.8885 6.32273C24.8877 6.63131 24.6533 6.83557 24.2763 6.84162C23.9066 6.84774 23.5367 6.85148 23.1677 6.8391C22.8238 6.82772 22.6278 6.63772 22.6242 6.28896C22.6141 5.3298 22.6142 4.37028 22.6242 3.41105C22.6277 3.06352 22.8207 2.87215 23.1673 2.85897C23.5594 2.84421 23.9528 2.845 24.3449 2.85904C24.6717 2.87071 24.8877 3.09102 24.8886 3.37657C24.8895 3.66139 24.6722 3.88134 24.3484 3.90143C24.133 3.91468 23.9159 3.90402 23.6808 3.90402Z" fill="#5D63AD"/>
<path fill-rule="evenodd" clip-rule="evenodd" d="M10.2227 4.82646C10.4076 4.27143 10.5632 3.79624 10.7246 3.32293C10.8587 2.9296 11.1059 2.77416 11.4176 2.87755C11.7219 2.97856 11.8353 3.26734 11.7089 3.65671C11.417 4.55489 11.1149 5.44953 10.8257 6.34857C10.73 6.64593 10.56 6.84997 10.2418 6.85602C9.92225 6.86206 9.7425 6.66227 9.64307 6.36751C9.33752 5.46177 9.02493 4.55841 8.7198 3.6526C8.58782 3.26108 8.69457 2.97978 9.00261 2.87351C9.3162 2.76523 9.56162 2.91628 9.70142 3.31299C9.8676 3.78501 10.0277 4.25905 10.2227 4.82646Z" fill="#5D63AD"/>
<path fill-rule="evenodd" clip-rule="evenodd" d="M4.16133 4.86863C4.16118 5.33633 4.16644 5.80417 4.15955 6.27173C4.15429 6.63244 3.95592 6.85376 3.65357 6.85815C3.35541 6.86254 3.12839 6.63668 3.12505 6.28634C3.1156 5.32769 3.1156 4.3686 3.1252 3.40987C3.12868 3.06183 3.35996 2.83389 3.65634 2.84015C3.95677 2.84642 4.15472 3.06983 4.15969 3.43039C4.1663 3.90976 4.16133 4.38912 4.16133 4.86863Z" fill="#5D63AD"/>
<path fill-rule="evenodd" clip-rule="evenodd" d="M17.6374 4.8622C17.6373 5.32975 17.6433 5.79731 17.6354 6.26472C17.6291 6.6299 17.4356 6.84949 17.1355 6.85784C16.8272 6.86634 16.6041 6.63328 16.6005 6.25723C16.5919 5.32227 16.5924 4.38694 16.6001 3.45197C16.6032 3.07312 16.8192 2.83804 17.1256 2.84035C17.4349 2.84258 17.6308 3.07254 17.6362 3.45946C17.6424 3.92702 17.6374 4.39457 17.6374 4.8622Z" fill="#5D63AD"/>
<path fill-rule="evenodd" clip-rule="evenodd" d="M23.0497 11.3852C23.4657 11.3852 23.8816 11.3811 24.2977 11.3864C24.6525 11.3908 24.8784 11.5887 24.8885 11.8905C24.8988 12.1996 24.6599 12.4329 24.2945 12.4363C23.4509 12.4444 22.6073 12.4445 21.7637 12.4363C21.3996 12.4328 21.161 12.1967 21.1733 11.8875C21.1854 11.5866 21.4117 11.3905 21.7669 11.3863C22.1944 11.3813 22.622 11.3851 23.0497 11.3852Z" fill="#5D63AD"/>
<path d="M27.4723 35.903C29.8668 35.903 31.8079 33.9367 31.8079 31.5111C31.8079 29.0855 29.8668 27.1192 27.4723 27.1192C25.0778 27.1192 23.1367 29.0855 23.1367 31.5111C23.1367 33.9367 25.0778 35.903 27.4723 35.903Z" stroke="#5D63AD" stroke-miterlimit="10"/>
<path fill-rule="evenodd" clip-rule="evenodd" d="M27.4461 33.9158C26.8168 33.9158 26.1877 33.9164 25.5584 33.9155C25.1831 33.9149 24.8759 33.7086 24.7575 33.3697C24.7267 33.2815 24.7098 33.1843 24.7076 33.0907C24.701 32.8134 24.7034 32.5358 24.7057 32.2583C24.7068 32.1169 24.7814 32.0185 24.9059 31.9816C25.0168 31.9488 25.1448 31.9891 25.203 32.0918C25.2342 32.1471 25.2514 32.2176 25.2527 32.2818C25.2583 32.533 25.2548 32.7846 25.2551 33.0362C25.2553 33.2537 25.3588 33.3583 25.5743 33.3584C26.8221 33.3585 28.0697 33.3585 29.3174 33.3584C29.5334 33.3583 29.6364 33.2544 29.6368 33.0362C29.6373 32.7804 29.6356 32.5247 29.6374 32.2689C29.6388 32.0852 29.7585 31.9656 29.9292 31.972C30.0551 31.9767 30.1698 32.0786 30.1809 32.2065C30.1895 32.3056 30.1871 32.4057 30.1868 32.5053C30.1861 32.7243 30.191 32.9435 30.1801 33.1619C30.1614 33.5457 29.8219 33.8893 29.4425 33.9088C29.2331 33.9196 29.0231 33.9151 28.8134 33.9155C28.3577 33.9163 27.9018 33.9158 27.4461 33.9158Z" fill="#5D63AD"/>
<path fill-rule="evenodd" clip-rule="evenodd" d="M27.7211 31.8527C27.7469 31.8288 27.7623 31.8155 27.7766 31.8009C27.8733 31.7027 27.9683 31.6027 28.0667 31.5061C28.1754 31.3995 28.3407 31.4024 28.448 31.5095C28.5516 31.6127 28.5615 31.7847 28.4593 31.8912C28.1862 32.1755 27.9104 32.4573 27.6325 32.7368C27.5261 32.8436 27.3624 32.8415 27.2561 32.7342C26.9803 32.4557 26.7061 32.1753 26.4341 31.8929C26.3318 31.7866 26.3392 31.616 26.4421 31.5112C26.5483 31.4032 26.7142 31.3983 26.8234 31.5044C26.9223 31.6004 27.0169 31.7008 27.1137 31.799C27.1284 31.814 27.1441 31.828 27.1709 31.8536C27.1709 31.8152 27.1709 31.7903 27.1709 31.7654C27.1709 30.7442 27.1708 29.723 27.1713 28.7018C27.1713 28.6565 27.171 28.6097 27.1816 28.5661C27.2123 28.4386 27.3356 28.3539 27.4672 28.3643C27.6005 28.3748 27.7032 28.4744 27.7172 28.6086C27.7206 28.6408 27.721 28.6735 27.721 28.706C27.7212 29.7249 27.7212 30.7441 27.7212 31.7631C27.7211 31.7883 27.7211 31.8135 27.7211 31.8527Z" fill="#5D63AD"/>
</svg>
