<svg xmlns="http://www.w3.org/2000/svg" width="51.365" height="61.053">
    <path data-name="Path 2" d="M67.915 69.452H61.8v-52.8h.975a.614.614 0 0 0 .65-.65v-3.116a.614.614 0 0 0-.65-.65h-5.4V10.35a.614.614 0 0 0-.65-.65H36.966a.614.614 0 0 0-.65.65v1.886h-5.4a.614.614 0 0 0-.65.65v3.121a.614.614 0 0 0 .65.65h.975v52.8h-6.369v-3.841A4.632 4.632 0 0 0 29.489 61c0-2.081-1.756-10.143-4.616-10.143-2.926 0-4.616 8.062-4.616 10.143a4.689 4.689 0 0 0 3.966 4.616v3.836H17.85a.65.65 0 0 0 0 1.3h50.065a.614.614 0 0 0 .65-.65.652.652 0 0 0-.65-.65zm-46.424-8.387c0-2.666 1.951-8.843 3.316-8.843s3.316 6.242 3.316 8.843a3.316 3.316 0 0 1-6.632 0zM37.616 11h18.465v1.235H37.616zm-6.047 2.6h30.624v1.821H31.569zm1.625 3.056H60.5v52.8H50.425v-8a.614.614 0 0 0-.65-.65h-5.852a.614.614 0 0 0-.65.65v8H33.195zm15.93 52.8h-4.551v-7.351h4.551zm-9.818-51.239h-3.9a.614.614 0 0 0-.65.65v3.9a.614.614 0 0 0 .65.65h3.9a.614.614 0 0 0 .65-.65v-3.9a.652.652 0 0 0-.65-.65zm-.65 3.9h-2.6v-2.6h2.6zm3.121 1.3h3.9a.614.614 0 0 0 .65-.65v-3.9a.614.614 0 0 0-.65-.65h-3.9a.614.614 0 0 0-.65.65v3.9a.652.652 0 0 0 .65.652zm.65-3.9h2.6v2.6h-2.6zm5.592 3.9h3.9a.614.614 0 0 0 .65-.65v-3.9a.614.614 0 0 0-.65-.65h-3.9a.614.614 0 0 0-.65.65v3.9a.7.7 0 0 0 .65.652zm.65-3.9h2.6v2.6h-2.6zm5.657 3.9h3.9a.614.614 0 0 0 .65-.65v-3.9a.614.614 0 0 0-.65-.65h-3.9a.614.614 0 0 0-.65.65v3.9a.7.7 0 0 0 .65.652zm.65-3.9h2.6v2.6h-2.6zm-15.67 5.462h-3.9a.614.614 0 0 0-.65.65v3.9a.614.614 0 0 0 .65.65h3.9a.614.614 0 0 0 .65-.65v-3.9a.652.652 0 0 0-.65-.65zm-.65 3.9h-2.6v-2.6h2.6zm3.121 1.3h3.9a.614.614 0 0 0 .65-.65v-3.9a.614.614 0 0 0-.65-.65h-3.9a.614.614 0 0 0-.65.65v3.9a.652.652 0 0 0 .65.652zm.65-3.9h2.6v2.6h-2.6zm5.592 3.9h3.9a.614.614 0 0 0 .65-.65v-3.9a.614.614 0 0 0-.65-.65h-3.9a.614.614 0 0 0-.65.65v3.9a.7.7 0 0 0 .65.652zm.65-3.9h2.6v2.6h-2.6zm5.657 3.9h3.9a.614.614 0 0 0 .65-.65v-3.9a.614.614 0 0 0-.65-.65h-3.9a.614.614 0 0 0-.65.65v3.9a.7.7 0 0 0 .65.652zm.65-3.9h2.6v2.6h-2.6zm-15.67 5.462h-3.9a.614.614 0 0 0-.65.65v3.9a.614.614 0 0 0 .65.65h3.9a.614.614 0 0 0 .65-.65v-3.9a.614.614 0 0 0-.65-.65zm-.65 3.9h-2.6v-2.6h2.6zm3.121 1.3h3.9a.614.614 0 0 0 .65-.65v-3.9a.614.614 0 0 0-.65-.65h-3.9a.614.614 0 0 0-.65.65v3.9a.652.652 0 0 0 .65.652zm.65-3.9h2.6v2.6h-2.6zm5.592 3.9h3.9a.614.614 0 0 0 .65-.65v-3.9a.614.614 0 0 0-.65-.65h-3.9a.614.614 0 0 0-.65.65v3.9a.7.7 0 0 0 .65.652zm.65-3.9h2.6v2.6h-2.6zm5.657 3.9h3.9a.614.614 0 0 0 .65-.65v-3.9a.614.614 0 0 0-.65-.65h-3.9a.614.614 0 0 0-.65.65v3.9a.7.7 0 0 0 .65.652zm.65-3.9h2.6v2.6h-2.6zM39.306 38.5h-3.9a.614.614 0 0 0-.65.65v3.9a.614.614 0 0 0 .65.65h3.9a.614.614 0 0 0 .65-.65v-3.9a.614.614 0 0 0-.65-.65zm-.65 3.836h-2.6v-2.6h2.6zm3.121 1.3h3.9a.614.614 0 0 0 .65-.65v-3.9a.614.614 0 0 0-.65-.65h-3.9a.614.614 0 0 0-.65.65v3.9a.614.614 0 0 0 .65.654zm.65-3.836h2.6v2.6h-2.6zm5.592 3.836h3.9a.614.614 0 0 0 .65-.65v-3.9a.614.614 0 0 0-.65-.65h-3.9a.614.614 0 0 0-.65.65v3.9a.652.652 0 0 0 .65.654zm.65-3.836h2.6v2.6h-2.6zm5.657 3.836h3.9a.614.614 0 0 0 .65-.65v-3.9a.614.614 0 0 0-.65-.65h-3.9a.614.614 0 0 0-.65.65v3.9a.652.652 0 0 0 .65.654zm.65-3.836h2.6v2.6h-2.6zm-15.67 5.462h-3.9a.614.614 0 0 0-.65.65v3.9a.614.614 0 0 0 .65.65h3.9a.614.614 0 0 0 .65-.65v-3.9a.614.614 0 0 0-.65-.647zm-.65 3.836h-2.6V46.5h2.6zm3.121 1.3h3.9a.614.614 0 0 0 .65-.65v-3.9a.614.614 0 0 0-.65-.65h-3.9a.614.614 0 0 0-.65.65v3.9a.614.614 0 0 0 .65.652zm.65-3.836h2.6v2.6h-2.6zm5.592 3.838h3.9a.614.614 0 0 0 .65-.65v-3.9a.614.614 0 0 0-.65-.65h-3.9a.614.614 0 0 0-.65.65v3.9a.652.652 0 0 0 .65.65zm.65-3.836h2.6v2.6h-2.6zm5.657 3.836h3.9a.614.614 0 0 0 .65-.65v-3.9a.614.614 0 0 0-.65-.65h-3.9a.614.614 0 0 0-.65.65v3.9a.652.652 0 0 0 .65.65zm.65-3.836h2.6v2.6h-2.6zm-15.67 5.4h-3.9a.614.614 0 0 0-.65.65v3.9a.614.614 0 0 0 .65.65h3.9a.614.614 0 0 0 .65-.65v-3.9a.652.652 0 0 0-.65-.652zm-.65 3.9h-2.6v-2.6h2.6zm6.957 1.3a.614.614 0 0 0 .65-.65v-3.9a.614.614 0 0 0-.65-.65h-3.9a.614.614 0 0 0-.65.65v3.9a.614.614 0 0 0 .65.65zm-3.186-3.9h2.6v2.6h-2.6zm5.592 3.9h3.9a.614.614 0 0 0 .65-.65v-3.9a.614.614 0 0 0-.65-.65h-3.9a.614.614 0 0 0-.65.65v3.9a.7.7 0 0 0 .65.65zm.65-3.9h2.6v2.6h-2.6zm5.657 3.9h3.9a.614.614 0 0 0 .65-.65v-3.9a.614.614 0 0 0-.65-.65h-3.9a.614.614 0 0 0-.65.65v3.9a.7.7 0 0 0 .65.65zm.65-3.9h2.6v2.6h-2.6z" transform="translate(-17.2 -9.7)" style="fill:#fff"/>
</svg>
