<svg data-name="Group 52" xmlns="http://www.w3.org/2000/svg" width="66.759" height="39.502">
    <path data-name="Path 5" d="M74.259 51.4v13.164H66.63a5.786 5.786 0 0 1-11.447 0H31.026A6.08 6.08 0 0 1 25.3 69.5a6.08 6.08 0 0 1-5.723-4.938H7.5V38.23c0-4.538 3.328-8.23 7.418-8.23H45.33l8.9 13.167h12.61c4.091 0 7.419 3.692 7.419 8.233zM60.907 66.21a3.31 3.31 0 1 0-2.967-3.292 3.145 3.145 0 0 0 2.967 3.292zm-35.6 0a3.31 3.31 0 0 0 0-6.584 3.31 3.31 0 0 0 0 6.584zm-14.84-27.98v4.938h10.385v-9.876h-5.934a4.718 4.718 0 0 0-4.451 4.938zm22.253 4.937v-9.875h-8.9v9.875zm11.126-9.875h-8.159v9.875h14.835zm9.643 13.167H10.467v14.813h9.112a6.08 6.08 0 0 1 5.721-4.937 6.08 6.08 0 0 1 5.723 4.938h24.161a5.786 5.786 0 0 1 11.447 0h4.661V51.4a4.718 4.718 0 0 0-4.451-4.938z" transform="translate(-7.5 -30)" style="fill:#fff"/>
</svg>
