<svg width="202" height="208" viewBox="0 0 202 208" fill="none" xmlns="http://www.w3.org/2000/svg">
<path d="M102.649 59.0795C84.8407 62.6171 80.6555 58.3948 67.3745 60.8271C59.4917 62.4658 54.1735 70.2242 55.8461 78.2543C59.8775 98.7711 94.3153 93.0085 100.563 125.713C103.901 142.514 96.8473 148.908 100.886 168.685C102.966 179.833 113.535 186.835 124.189 184.949C131.486 183.596 136.926 178.359 139.174 171.731C140.509 169.236 140.687 165.832 139.857 161.076C137.363 147.55 131.47 139.001 128.56 123.096C124.665 103.619 128.196 84.5691 126.244 75.2008C123.056 57.9583 108.782 57.558 102.649 59.0795Z" fill="#B1B4B5"/>
<path d="M52.242 31.6058C47.6507 32.4786 45.0157 38.8724 46.3564 45.8868C47.697 52.9013 52.5058 57.8802 57.097 57.0074C61.6882 56.1347 64.3233 49.7409 62.9826 42.7264C61.6419 35.712 56.8332 30.7331 52.242 31.6058Z" fill="#B1B4B5"/>
<path d="M70.4567 33.0077C66.7484 33.7126 64.6061 38.8039 65.6718 44.3795C66.7375 49.9551 70.6075 53.9036 74.3158 53.1987C78.0241 52.4938 80.1664 47.4025 79.1007 41.8269C78.035 36.2513 74.165 32.3028 70.4567 33.0077Z" fill="#B1B4B5"/>
<path d="M85.9109 34.4195C82.7324 35.0237 80.9081 39.4502 81.8362 44.3064C82.7644 49.1625 86.0935 52.6094 89.2721 52.0052C92.4506 51.401 94.2749 46.9746 93.3467 42.1184C92.4186 37.2622 89.0894 33.8153 85.9109 34.4195Z" fill="#B1B4B5"/>
<path d="M98.9109 37.1169C96.4387 37.5868 95.0477 41.1754 95.804 45.1323C96.5603 49.0892 99.1775 51.9159 101.65 51.446C104.122 50.976 105.513 47.3874 104.757 43.4305C104 39.4737 101.383 36.6469 98.9109 37.1169Z" fill="#B1B4B5"/>
<path d="M110.113 38.9645C107.786 39.1881 106.197 42.3227 106.563 45.9658C106.929 49.6088 109.112 52.3808 111.439 52.1571C113.765 51.9334 115.355 48.7988 114.988 45.1558C114.622 41.5127 112.439 38.7408 110.113 38.9645Z" fill="#B1B4B5"/>
</svg>
