<svg data-name="Group 51" xmlns="http://www.w3.org/2000/svg" width="49.882" height="65.043">
    <path data-name="Path 4" d="M38.02 7a.758.758 0 0 0-.236.094L17.378 19.187a.772.772 0 0 0-.378.661v3.023a.785.785 0 0 0 .756.756h15.8c-.4 1.584-.812 3.171-1.211 4.754-4.978 3.95-10.056 8.033-15.062 12.038a.767.767 0 0 0-.283.59v3.023a.785.785 0 0 0 .756.756h10.463l-6.66 26.263a.756.756 0 1 0 1.464.354l2.763-10.888 16.155-8.29L58.1 60.519l2.763 10.888a.756.756 0 1 0 1.464-.354l-6.66-26.263h10.459a.785.785 0 0 0 .756-.756V41.01a.767.767 0 0 0-.283-.59c-5-4.009-10.114-8.07-15.081-12.057-.387-1.571-.794-3.16-1.192-4.736h15.8a.785.785 0 0 0 .756-.756v-3.023a.772.772 0 0 0-.378-.661L46.1 7.094A.76.76 0 0 0 45.72 7zm.921 1.512h6c.295 1.082.571 2.247.85 3.354l-3.85 3.33-3.85-3.33c.28-1.117.564-2.244.85-3.354zm-1.724.688-3.283 12.916H18.512V20.3zm9.447 0L65.37 20.3v1.819H49.947zm-9 4.322 3.118 2.692-4.865 4.2zm8.55 0 1.748 6.9-4.865-4.2zm-4.275 3.708 5.645 4.889H36.3zm-6.826 6.4h13.653l1.157 4.535H33.981zm.165 6.046h13.3l-6.66 4.582zm-1.842.543 7.18 4.936-10.2 7.038zm17.005 0 3.047 12-10.225-7.042zm1.677.543 13.25 10.6v1.913H55.285zm-20.359.024L28.6 43.278H18.512v-1.914zm10.179 5.29 10.416 7.2H31.525zm-11.169 8.713h22.343L41.941 50.5zm-1.275 1.039 10.77 5.527-13.982 7.18zm24.894 0L57.6 58.535l-13.982-7.18z" transform="translate(-17 -7)" style="fill:#fff"/>
</svg>
