<?xml version="1.0" encoding="utf-8"?>
<!-- Generator: Adobe Illustrator 25.1.0, SVG Export Plug-In . SVG Version: 6.00 Build 0)  -->
<svg version="1.1" id="Capa_1" xmlns="http://www.w3.org/2000/svg" xmlns:xlink="http://www.w3.org/1999/xlink" x="0px" y="0px"
	 viewBox="0 0 1984.25 1417.32" style="enable-background:new 0 0 1984.25 1417.32;" xml:space="preserve">
<style type="text/css">
	.st0{clip-path:url(#SVGID_2_);fill:#E6007E;}
	.st1{clip-path:url(#SVGID_2_);fill:#562F27;}
	.st2{clip-path:url(#SVGID_2_);fill:#995745;}
	.st3{clip-path:url(#SVGID_4_);fill:url(#SVGID_5_);}
	.st4{clip-path:url(#SVGID_7_);fill:#8F98CC;}
	.st5{clip-path:url(#SVGID_9_);fill:url(#SVGID_10_);}
	.st6{clip-path:url(#SVGID_12_);fill:url(#SVGID_13_);}
	.st7{clip-path:url(#SVGID_15_);fill:#8F98CC;}
	.st8{clip-path:url(#SVGID_17_);fill:url(#SVGID_18_);}
	.st9{clip-path:url(#SVGID_20_);fill:url(#SVGID_21_);}
	
		.st10{clip-path:url(#SVGID_23_);fill:none;stroke:#000000;stroke-width:3.852;stroke-linecap:round;stroke-linejoin:round;stroke-miterlimit:10;}
	.st11{clip-path:url(#SVGID_25_);fill:#C3998A;}
	.st12{clip-path:url(#SVGID_25_);fill:#995745;}
	.st13{clip-path:url(#SVGID_25_);fill:#D5AB9C;}
	.st14{clip-path:url(#SVGID_25_);fill:#562F27;}
	.st15{clip-path:url(#SVGID_27_);fill:url(#SVGID_28_);}
	.st16{clip-path:url(#SVGID_30_);}
	.st17{clip-path:url(#SVGID_30_);fill:#FFFFFF;}
	.st18{clip-path:url(#SVGID_30_);fill:#EDEDED;}
	.st19{clip-path:url(#SVGID_30_);fill:#B2705C;}
	
		.st20{clip-path:url(#SVGID_30_);fill:none;stroke:#000000;stroke-width:7.232;stroke-linecap:round;stroke-linejoin:round;stroke-miterlimit:10;}
</style>
<g>
	<defs>
		<rect id="SVGID_1_" y="0" width="1984.25" height="1417.32"/>
	</defs>
	<clipPath id="SVGID_2_">
		<use xlink:href="#SVGID_1_"  style="overflow:visible;"/>
	</clipPath>
	<path class="st0" d="M1742.95,968.41c-4.08-4.28-9.53-10.76-12.01-14.4c-8.27-12.17-12.73-25.31-12.82-25.71
		c-0.5-2.28,3.36-0.38,5.74-0.17c2.38,0.21,8.8,3.52,9.31,5.79l-1.85,0.45c0.85,5.52,2.1,11.53,10.2,21.6
		c8.85,11.01,23.83,23.46,38.44,28.47c19.98,6.85,35.42,6.26,46.17,2.18c18.29-6.95,33.55-22.92,36.09-38.64
		c1.51-9.33-1.73-19.91-8.87-29.03c-6.44-8.22-15.32-14.22-24.36-16.46c-17.25-4.26-28.12,9.53-30.14,15.04
		c-1.52,4.18-2.26,10.42,0.91,15.67c3.07,5.07,7.69,9.08,12.68,11c2.49,0.96,5.92,2.7,5.49,4.83c-0.41,1.99-3.58,0.85-5.93-0.07
		c-7.51-2.94-13.47-6.92-17.93-14.28c-4.6-7.6-5.93-15.52-3.67-21.74c2.93-8.02,13.27-25.58,38.31-18.45
		c11.65,3.32,23.01,10.51,31.19,20.96c8.88,11.34,12.9,24.47,11.04,36.02c-2.85,17.64-17.17,35.86-37.28,43.49
		c-12.13,4.6-33.21,6.86-55.99-3.04C1760.49,984.46,1751.35,977.22,1742.95,968.41"/>
	<path class="st1" d="M1470.26,483.32c-2.1-1.87-4.4-3.51-6.82-4.93c-3.24-1.86-7.93-3.41-11.92-3.47
		c-0.74-0.08-3.49,0.24-4.58,0.57c2.56-0.43-0.25,0.14-1.06,0.52c-3.44,1.68-6.25,4.37-9.08,6.92
		c-9.03,8.67-16.81,20.34-22.01,32.41c25.9,19.98,51.17,40.79,75.72,62.41C1491.67,546.26,1493.84,507.38,1470.26,483.32"/>
	<path class="st1" d="M100.81,526.19c-8.25,9.64-9.21,22.73-10.53,35c-3.6,39.12,7.98,78.49,30.59,110.39
		c24.67,35.62,59.64,63.03,96.25,85.41c5.38,3.29,3.29,10.82-2.71,11.53c-12.76,1.51-25.64,1.03-38.29-1.22
		c-10.12-1.8-19.94-4.81-29.57-8.33c4.59,16.53,16.74,30.69,26.74,44.43c40.98,54.51,125.9,82.96,183.24,37.55
		c2.06-1.7,5.63-0.99,7.44,0.71c4.55,4.4-0.21,10.13-3.13,13.98c-17.99,22.4-49.16,24.75-72.72,37.84l-0.08,0.09
		c-2.63,2.02-0.2,3.25,0.34,3.72c9.1,7.97,26.49,9.51,37.9,11.5c36.31,3.83,73.96-4.23,106.2-20.89
		c21.39-11.17,47.36-33.35,62.72-51.91c-15.58-70.19-18.85-137.45,5.49-205.16C371.13,672.69,185.5,639.64,100.81,526.19"/>
	<path class="st1" d="M751.26,977.72c-1,1.29-1.61,2.83-1.75,4.46c-1.63,19.07-6.21,61.91-7.41,78.73
		c-0.34,9.84-1.94,20.36-0.05,30.14c0.67,3.48,3.56,6.08,7.06,6.59c20.12,2.92,40.52,4.07,60.87,3.97c5-0.03,8.86-4.4,8.31-9.37
		c-0.75-6.77-2.21-13.49-5.41-19.44c-1.97-3.42,3.2-6.69,5.18-3.27c3.92,7.23,5.62,15.41,6.45,23.62c0.46,4.57,4.43,7.95,9.01,7.62
		c4.78-0.34,9.57-0.8,14.32-1.4c5.5-0.69,8.85-6.47,6.69-11.57c-4.44-10.48-10.4-20.3-17.77-29.02c-2.52-2.98,1.63-7.49,4.18-4.48
		c8.95,10.58,16.03,22.56,20.94,35.45c1.51,3.98,5.73,6.24,9.86,5.22l0.18-0.04c5.36-1.33,8.05-7.34,5.41-12.2
		c-4.77-8.77-12.27-22.8-18.61-37.9c-9.42-22.41,12.08-46.97,25.11-66.27c32.73-48.49,66.08-58.01,98.03-89.81
		c4.15-4.13-12.92-12.52-18.25-14.94C890.48,840.6,794.86,921.71,751.26,977.72"/>
	<path class="st2" d="M1765.06,939.68c-0.1-0.25-3.79-14.21-13.94-26.5c-91.99-111.39-109.99-170.4-192.62-290.39
		c-43.79-63.59-110.23-110.33-176.92-149.36c-15.81-9.25-31.55-17.98-47.29-26.16l0.02,0.01l-0.03-0.01
		c-9.1-4.73-18.21-9.28-27.32-13.64c-46.33-23.84-144.28-71.76-267.36-91.34c10.09,7.38,13.61,17.07,13.61,17.07
		s-31.51-13.32-65.88-15.4c0,0,14.64,11.44,17.16,15.68c0.39,0.37-5.38-1.2-16.39-2.76c-25.66-3.64-79.77-7.28-150.68,13.46
		c-0.79,0.26,8.31,1.1,13.65,6.68c-4.62,0.79-9.27,1.6-13.95,2.46c-202.23,33.53-362.17,169.8-360.4,386.3
		c1.09,57.61,18.3,116.72,87.39,211.08c20.39,36.25,11.58,78.87,6.17,117.87c-1.97,18.76-5.55,38.79-0.6,57.31
		c0.38,0.99,0.41,0.98,0.95,1.96c0.14,0.24,1.1,0.98,0.49,0.66c0.12,0.07,0.19,0.11,0.23,0.14c20.8,3.88,42.12,6.61,63.78,7.08
		c4.05,0.09,7.36-3.22,7.3-7.27c-0.12-7.74-0.4-15.54-2.5-22.96c-1.2-3.78,4.65-5.58,5.84-1.83c2.27,7.96,2.63,16.34,2.77,24.64
		c0.07,4.1,3.55,7.28,7.64,7.03c6.99-0.42,13.92-1.17,20.76-2.28c4.27-0.69,6.95-5,5.7-9.15c-3.41-11.38-10.17-21.96-19.05-29.46
		c-3.02-2.55,1.17-7.02,4.18-4.48c10.01,8.45,17.48,20.53,21.07,33.41c1.11,3.96,5.27,6.21,9.16,4.86l4.87-1.69
		c3.95-1.37,5.91-5.85,4.16-9.65c-5.39-11.68-12.89-22.32-18.25-34.05c-0.12-0.27-0.23-0.55-0.33-0.83
		c-8.19-24.69,15.36-56.13,26.41-77.58c52.02-93.84,252.08-264.51,306.61-59.24c12.3-73.65,171.35-287.33,402.69-190.79
		c0,0,98.98,44.82,116.4,55.18c72.29,42.34,123.55,80.27,191.6,129.09c0.34,0.24,0.69,0.47,1.09,0.6c0.54,0.18,1.56,0.91,2.65,1.71
		c2.25,1.67,5.29,1.86,7.73,0.49C1765.18,955.6,1768.35,947.84,1765.06,939.68"/>
</g>
<g>
	<defs>
		<path id="SVGID_3_" d="M1637.4,897.82c42.27,28.9,76.87,54.22,77.93,54.99c0.6,0.43,1.21,0.85,1.81,1.28
			c3.04,2.15,6.11,4.33,9.24,6.57c0.03,0.01,0.05,0.03,0.07,0.04c-31.8-22.84-60.08-43.34-88.86-63.12
			C1637.53,897.67,1637.47,897.74,1637.4,897.82"/>
	</defs>
	<clipPath id="SVGID_4_">
		<use xlink:href="#SVGID_3_"  style="overflow:visible;"/>
	</clipPath>
	
		<linearGradient id="SVGID_5_" gradientUnits="userSpaceOnUse" x1="0" y1="1417.3516" x2="1" y2="1417.3516" gradientTransform="matrix(305.8867 368.5564 368.5564 -305.8867 -520952.625 434164.1875)">
		<stop  offset="0" style="stop-color:#9F847C"/>
		<stop  offset="4.796650e-05" style="stop-color:#9F847C"/>
		<stop  offset="1" style="stop-color:#C8A496"/>
	</linearGradient>
	<polygon class="st3" points="1690.13,853.82 1757.48,934.96 1673.72,1004.48 1606.38,923.33 	"/>
</g>
<g>
	<defs>
		<path id="SVGID_6_" d="M837.13,379.47C634.89,413,474.96,549.27,476.73,765.78c1.09,57.6,73.88,184.44,87.39,211.08
			c20.39,36.25,11.59,78.87,6.17,117.87c-1.98,18.76-5.55,38.79-0.6,57.31c0.38,0.99,0.41,0.98,0.95,1.96
			c0.14,0.24,1.1,0.98,0.49,0.66c0.12,0.07,0.19,0.11,0.23,0.14c20.8,3.88,42.12,6.61,63.78,7.08c4.05,0.09,7.36-3.22,7.3-7.27
			c-0.12-7.74-0.4-15.54-2.5-22.96c-1.2-3.78,4.65-5.58,5.84-1.83c2.27,7.96,2.63,16.34,2.77,24.64c0.07,4.1,3.55,7.28,7.64,7.03
			c6.99-0.43,13.92-1.17,20.76-2.28c4.27-0.69,6.95-5,5.7-9.15c-3.41-11.38-10.16-21.96-19.05-29.46c-3.02-2.55,1.17-7.02,4.18-4.48
			c10.01,8.45,17.48,20.53,21.07,33.41c1.11,3.96,5.27,6.21,9.16,4.86l4.87-1.69c3.95-1.37,5.91-5.85,4.16-9.65
			c-5.39-11.68-12.89-22.32-18.25-34.05c-0.12-0.27-0.23-0.55-0.33-0.83c-8.19-24.69,15.36-56.13,26.41-77.58
			c52.03-93.84,252.08-264.51,306.61-59.24c12.3-73.65,165.52-287.14,402.69-190.79c0,0,38.04,18.92,98.98,44.83
			c97.68,63.86,140.98,90.63,209.02,139.44c0.34,0.24,0.69,0.47,1.09,0.6c0.54,0.18,1.56,0.91,2.65,1.71
			c2.26,1.67,5.29,1.86,7.73,0.49c21.51-12.04,24.68-19.79,21.39-27.96c-4.06-14.66-11.9-24.91-21.55-37.61
			c-87.98-115.84-134.69-203.59-185.02-279.28c-42.75-64.3-110.23-110.33-176.91-149.36c-119.86-70.16-235.81-110.17-378.05-110.17
			C951.99,363.25,897.02,368.5,837.13,379.47"/>
	</defs>
	<clipPath id="SVGID_7_">
		<use xlink:href="#SVGID_6_"  style="overflow:visible;"/>
	</clipPath>
	<path class="st4" d="M1726.46,960.71c-0.03-0.01-0.05-0.03-0.07-0.04c-3.75-2.68-7.43-5.29-11.06-7.85
		c-1.07-0.78-35.66-26.1-77.93-55c0.07-0.08,0.14-0.15,0.21-0.23C1666.37,917.37,1694.65,937.86,1726.46,960.71"/>
</g>
<g>
	<defs>
		<path id="SVGID_8_" d="M1637.4,897.82c0.07-0.08,0.14-0.15,0.21-0.23c-24.97-17.17-50.32-33.79-78.67-50.93
			C1584.15,862.01,1612.14,880.56,1637.4,897.82"/>
	</defs>
	<clipPath id="SVGID_9_">
		<use xlink:href="#SVGID_8_"  style="overflow:visible;"/>
	</clipPath>
	
		<linearGradient id="SVGID_10_" gradientUnits="userSpaceOnUse" x1="0" y1="1417.2931" x2="1" y2="1417.2931" gradientTransform="matrix(305.8867 368.5564 368.5564 -305.8867 -520952.625 434164.1875)">
		<stop  offset="0" style="stop-color:#5D6C43"/>
		<stop  offset="4.796650e-05" style="stop-color:#5D6C43"/>
		<stop  offset="1" style="stop-color:#808750"/>
	</linearGradient>
	<polygon class="st5" points="1605.52,807.99 1662.75,876.95 1591.02,936.48 1533.79,867.52 	"/>
</g>
<g>
	<defs>
		<path id="SVGID_11_" d="M1765.06,939.68c-0.48-1.72-1.01-3.38-1.58-5c-0.01-0.02-0.02-0.04-0.02-0.06
			c-0.01-0.03-0.02-0.06-0.03-0.09c-0.02-0.04-0.03-0.09-0.05-0.13c0-0.01-0.01-0.02-0.01-0.02c0-0.01,0-0.01-0.01-0.02
			c-0.14-0.27-0.28-0.54-0.42-0.82C1764.38,937.17,1765.02,939.57,1765.06,939.68"/>
	</defs>
	<clipPath id="SVGID_12_">
		<use xlink:href="#SVGID_11_"  style="overflow:visible;"/>
	</clipPath>
	
		<linearGradient id="SVGID_13_" gradientUnits="userSpaceOnUse" x1="0" y1="1417.4735" x2="1" y2="1417.4735" gradientTransform="matrix(305.8867 368.5564 368.5564 -305.8867 -520952.625 434164.1875)">
		<stop  offset="0" style="stop-color:#9F847C"/>
		<stop  offset="4.796650e-05" style="stop-color:#9F847C"/>
		<stop  offset="1" style="stop-color:#C8A496"/>
	</linearGradient>
	<polygon class="st6" points="1764.19,932.49 1768.08,937.17 1763.8,940.72 1759.91,936.04 	"/>
</g>
<g>
	<defs>
		<path id="SVGID_14_" d="M837.13,379.47C634.89,413,474.96,549.27,476.73,765.78c1.09,57.6,73.88,184.44,87.39,211.08
			c20.39,36.25,11.59,78.87,6.17,117.87c-1.98,18.76-5.55,38.79-0.6,57.31c0.38,0.99,0.41,0.98,0.95,1.96
			c0.14,0.24,1.1,0.98,0.49,0.66c0.12,0.07,0.19,0.11,0.23,0.14c20.8,3.88,42.12,6.61,63.78,7.08c4.05,0.09,7.36-3.22,7.3-7.27
			c-0.12-7.74-0.4-15.54-2.5-22.96c-1.2-3.78,4.65-5.58,5.84-1.83c2.27,7.96,2.63,16.34,2.77,24.64c0.07,4.1,3.55,7.28,7.64,7.03
			c6.99-0.43,13.92-1.17,20.76-2.28c4.27-0.69,6.95-5,5.7-9.15c-3.41-11.38-10.16-21.96-19.05-29.46c-3.02-2.55,1.17-7.02,4.18-4.48
			c10.01,8.45,17.48,20.53,21.07,33.41c1.11,3.96,5.27,6.21,9.16,4.86l4.87-1.69c3.95-1.37,5.91-5.85,4.16-9.65
			c-5.39-11.68-12.89-22.32-18.25-34.05c-0.12-0.27-0.23-0.55-0.33-0.83c-8.19-24.69,15.36-56.13,26.41-77.58
			c52.03-93.84,252.08-264.51,306.61-59.24c12.3-73.65,165.52-287.14,402.69-190.79c0,0,38.04,18.92,98.98,44.83
			c97.68,63.86,140.98,90.63,209.02,139.44c0.34,0.24,0.69,0.47,1.09,0.6c0.54,0.18,1.56,0.91,2.65,1.71
			c2.26,1.67,5.29,1.86,7.73,0.49c21.51-12.04,24.68-19.79,21.39-27.96c-4.06-14.66-11.9-24.91-21.55-37.61
			c-87.98-115.84-134.69-203.59-185.02-279.28c-42.75-64.3-110.23-110.33-176.91-149.36c-119.86-70.16-235.81-110.17-378.05-110.17
			C951.99,363.25,897.02,368.5,837.13,379.47"/>
	</defs>
	<clipPath id="SVGID_15_">
		<use xlink:href="#SVGID_14_"  style="overflow:visible;"/>
	</clipPath>
	<path class="st7" d="M1765.06,939.68c-0.04-0.1-0.68-2.5-2.12-6.15c0.15,0.28,0.28,0.55,0.42,0.82
		C1763.98,936.06,1764.55,937.84,1765.06,939.68"/>
</g>
<g>
	<defs>
		<path id="SVGID_16_" d="M1546.07,838.96c-1.81-1.07-3.63-2.14-5.47-3.22c-1.05-0.62-2.4-1.37-4.01-2.23
			C1539.68,835.25,1542.84,837.07,1546.07,838.96"/>
	</defs>
	<clipPath id="SVGID_17_">
		<use xlink:href="#SVGID_16_"  style="overflow:visible;"/>
	</clipPath>
	
		<linearGradient id="SVGID_18_" gradientUnits="userSpaceOnUse" x1="0" y1="1417.2495" x2="1" y2="1417.2495" gradientTransform="matrix(305.8867 368.5564 368.5564 -305.8867 -520952.625 434164.1875)">
		<stop  offset="0" style="stop-color:#5D6C43"/>
		<stop  offset="4.796650e-05" style="stop-color:#5D6C43"/>
		<stop  offset="1" style="stop-color:#808750"/>
	</linearGradient>
	<polygon class="st8" points="1542.2,828.85 1548.75,836.74 1540.46,843.62 1533.91,835.73 	"/>
</g>
<g>
	<defs>
		<path id="SVGID_19_" d="M1406.04,700.43c-6.88-26.2,10.83-44.41,29.92-44.41c10.56,0,21.54,5.58,29.01,18.47
			c6.88,26.2-10.83,44.41-29.92,44.41C1424.48,718.89,1413.51,713.32,1406.04,700.43 M1387.09,665.62
			c-17.05,73.98,82.25,132.41,125.67,155.3c3.39,1.46,6.87,2.95,10.42,4.46c2.31,1.51,4.6,3.01,6.85,4.48c0,0,0.01,0.01,0.01,0.01
			c2.14,1.17,4.33,2.38,6.55,3.64c1.61,0.86,2.95,1.61,4.01,2.23c1.84,1.08,3.66,2.15,5.47,3.22c4.19,2.45,8.48,5.02,12.87,7.69
			c28.35,17.15,53.69,33.77,78.67,50.93c28.77,19.78,57.05,40.28,88.86,63.12c4.47,2.4,9.89,4.43,15.43,4.43
			c3.88,0,7.83-0.99,11.56-3.54c0.14-0.1,0.28-0.19,0.42-0.29c1.51-1.06,2.86-2.09,4.06-3.09c5.94-5.04,8.59-10.13,7.91-16.1
			c-0.18-0.79-0.43-1.57-0.75-2.36c0,0,0,0,0-0.01c-0.01-0.02-0.02-0.05-0.03-0.07c-0.04-0.1-0.68-2.5-2.12-6.15
			c-12.36-23.34-62.84-60.79-152.76-143.68c-58.35-53.79-88.92-142.91-131.23-166.22c-11.45-6.31-24.2-10.09-36.57-10.09
			C1418.36,613.54,1395.8,627.82,1387.09,665.62"/>
	</defs>
	<clipPath id="SVGID_20_">
		<use xlink:href="#SVGID_19_"  style="overflow:visible;"/>
	</clipPath>
	
		<linearGradient id="SVGID_21_" gradientUnits="userSpaceOnUse" x1="0" y1="1417.3553" x2="1" y2="1417.3553" gradientTransform="matrix(305.8867 368.5564 368.5564 -305.8867 -520952.625 434164.1875)">
		<stop  offset="0" style="stop-color:#764136"/>
		<stop  offset="4.796650e-05" style="stop-color:#764136"/>
		<stop  offset="1" style="stop-color:#995745"/>
	</linearGradient>
	<polygon class="st9" points="1604.81,418.69 1939.31,821.73 1531.76,1159.98 1197.25,756.94 	"/>
</g>
<g>
	<defs>
		<path id="SVGID_22_" d="M837.13,379.47C634.89,413,474.96,549.27,476.73,765.78c1.09,57.6,73.88,184.44,87.39,211.08
			c20.39,36.25,11.59,78.87,6.17,117.87c-1.98,18.76-5.55,38.79-0.6,57.31c0.38,0.99,0.41,0.98,0.95,1.96
			c0.14,0.24,1.1,0.98,0.49,0.66c0.12,0.07,0.19,0.11,0.23,0.14c20.8,3.88,42.12,6.61,63.78,7.08c4.05,0.09,7.36-3.22,7.3-7.27
			c-0.12-7.74-0.4-15.54-2.5-22.96c-1.2-3.78,4.65-5.58,5.84-1.83c2.27,7.96,2.63,16.34,2.77,24.64c0.07,4.1,3.55,7.28,7.64,7.03
			c6.99-0.43,13.92-1.17,20.76-2.28c4.27-0.69,6.95-5,5.7-9.15c-3.41-11.38-10.16-21.96-19.05-29.46c-3.02-2.55,1.17-7.02,4.18-4.48
			c10.01,8.45,17.48,20.53,21.07,33.41c1.11,3.96,5.27,6.21,9.16,4.86l4.87-1.69c3.95-1.37,5.91-5.85,4.16-9.65
			c-5.39-11.68-12.89-22.32-18.25-34.05c-0.12-0.27-0.23-0.55-0.33-0.83c-8.19-24.69,15.36-56.13,26.41-77.58
			c52.03-93.84,252.08-264.51,306.61-59.24c12.3-73.65,165.52-287.14,402.69-190.79c0,0,38.04,18.92,98.98,44.83
			c97.68,63.86,140.98,90.63,209.02,139.44c0.34,0.24,0.69,0.47,1.09,0.6c0.54,0.18,1.56,0.91,2.65,1.71
			c2.26,1.67,5.29,1.86,7.73,0.49c21.51-12.04,24.68-19.79,21.39-27.96c-4.06-14.66-11.9-24.91-21.55-37.61
			c-87.98-115.84-134.69-203.59-185.02-279.28c-42.75-64.3-110.23-110.33-176.91-149.36c-119.86-70.16-235.81-110.17-378.05-110.17
			C951.99,363.25,897.02,368.5,837.13,379.47"/>
	</defs>
	<clipPath id="SVGID_23_">
		<use xlink:href="#SVGID_22_"  style="overflow:visible;"/>
	</clipPath>
	<path class="st10" d="M1686.59,921.99c0,0-1.29-1.42,11.83-3.7c8.14-1.42,13.82,2.03,13.82,2.03"/>
	<path class="st10" d="M1697.56,918.79c0,0,1.05,13.59,9.71,24.16c8.09,9.89,17.36,16.45,17.36,16.45"/>
</g>
<g>
	<defs>
		<rect id="SVGID_24_" y="0" width="1984.25" height="1417.32"/>
	</defs>
	<clipPath id="SVGID_25_">
		<use xlink:href="#SVGID_24_"  style="overflow:visible;"/>
	</clipPath>
	<path class="st11" d="M1108.41,1106.34c97.09,4.44,141.51-13.98,151.58-133.64c5.24-62.22,8.65-124.6,13.92-186.82
		c0.54-5.98,0.41-30.49,1.13-36.47C1062.85,747.18,1109.02,1102.98,1108.41,1106.34"/>
	<path class="st12" d="M1160.41,1007.6c0.01,5.2,0.78,16.16,0.7,21.35c-0.14,10.23-0.91,14.97-1.97,25.37
		C1205.72,1055.94,1216.37,1002.02,1160.41,1007.6"/>
	<path class="st13" d="M906.76,586.1c-24.95,3.04-57.79-0.09-72.77,24.47c-27.69,50.08,85.9,142.83,115.69,183.69
		c47.13,60.95,53.89,93.77,71.82,177.09c4.3,21.59,6.27,43.11,7.07,64.92c0.28,27.39,1.03,41.47-1.57,69.67
		c-3.9,17.99-16.78,28.21-42.86,43.55c-3.86,3.37-11.49,9.45-11.74,14.01c3.39,7.03,16.96,9.62,24.22,11.61
		c5.53,0.69,13.04,3.45,18.13,3.14c130.49,11.94,148.08-38.87,146.09-157.5c2.15-38.81,5.57-70.8,13.32-108.9
		c16.34-90.93,56.08-186.17,200.54-146.3c4.64,0.69,23.59,6.7,30.9,9.06c10.3,3.32,8.09,2.98,18.58,5.95
		C1299.41,651.61,1079.36,575.08,906.76,586.1"/>
	<path class="st14" d="M877.89,625.42c45.25-10.53,137.75-0.99,137.64-2.56c-0.69-9.96-12.84-15.45-11.84-15.42
		c105.43,5.73,161.95,47.01,161.13,45.43c-0.98-4.83-10.98-20.49-10.98-20.49c31.72,13.39,57.02,36.42,57.02,36.42
		s-0.1-10.32-7.17-20.63c0,0,86.93,50.67,137.73,82.37c47.77,29.8,68.67,45.69,68.67,45.69s-103.9-40.14-159.43-3.83
		c-44.57,29.15-61.8,86.71-63.39,87.48c-19.84-34.86-49.7-113.36-164.01-179.72c-57.85-33.58-142.17-48.71-150.67-53.43
		C874.37,626.28,876.13,625.86,877.89,625.42"/>
	<path class="st12" d="M1062.8,1040.46c-11.31-0.29-22.75,0.9-34.06,1.9c0.45,19.12-0.08,38.29-1.14,57.35
		c21.65-3.54,46.67-5.1,63.42-20.81C1108.62,1058.59,1083.44,1039.26,1062.8,1040.46"/>
	<path class="st14" d="M1381.44,609.05c-5.36-26.08-8.89-62.95-34.96-86.65c-19.82-16.32-47.13-14.77-54.79,12.72
		c-5.1,24.93,5.19,53.89,40.58,81.49c7.82,5.67,20.52,13.58,24.72,11.19c1.42-2.07,12.82-10.2,17.97-13.46
		C1379.12,612.59,1381.44,609.05,1381.44,609.05"/>
</g>
<g>
	<defs>
		<path id="SVGID_26_" d="M1319.83,532.47c-10.45,2.76-10.41,10.66-10.09,20.32c3.32,26.8,32,53.73,51.65,71.2
			c3.02-2.29,5.23-4.09,8.43-6.39c-3.55-9.86-8.27-28.98-12.27-40.1c-3.58-8.33-16.74-45.47-34.42-45.47
			C1322.05,532.03,1320.95,532.17,1319.83,532.47"/>
	</defs>
	<clipPath id="SVGID_27_">
		<use xlink:href="#SVGID_26_"  style="overflow:visible;"/>
	</clipPath>
	
		<linearGradient id="SVGID_28_" gradientUnits="userSpaceOnUse" x1="0" y1="1417.33" x2="1" y2="1417.33" gradientTransform="matrix(-53.0778 -85.295 -85.295 53.0778 122257.5234 -74607.8125)">
		<stop  offset="0" style="stop-color:#995745"/>
		<stop  offset="0.1407" style="stop-color:#995745"/>
		<stop  offset="1" style="stop-color:#DA9D90"/>
	</linearGradient>
	<polygon class="st15" points="1326.25,651.1 1268.13,557.7 1352.95,504.92 1411.07,598.32 	"/>
</g>
<g>
	<defs>
		<rect id="SVGID_29_" y="0" width="1984.25" height="1417.32"/>
	</defs>
	<clipPath id="SVGID_30_">
		<use xlink:href="#SVGID_29_"  style="overflow:visible;"/>
	</clipPath>
	<path class="st16" d="M1410.54,644.72c-10.25-0.67-16.55,11.33-17.06,22.74c-0.34,7.51,0.8,9.59,3.75,9.79
		c2.33,0.16,5.49-5.65,10.7-14.18C1413.14,654.56,1420.79,645.39,1410.54,644.72"/>
	<path class="st17" d="M1447.6,687.3c-2.47-6.13-7.37-9.92-10.95-8.47c-3.58,1.45-4.48,7.59-2.02,13.71
		c2.47,6.13,7.37,9.92,10.95,8.47C1449.16,699.57,1450.07,693.43,1447.6,687.3"/>
	<path class="st17" d="M1464.96,674.48c10.69,40.7-37.97,62.13-58.92,25.95C1395.35,659.73,1444.01,638.3,1464.96,674.48"/>
	<path class="st16" d="M1427.3,669.72c-13.33,6.27-13.35,26.82,1.84,34.68c9.66,5,22.35,2.44,28.14-2.79
		C1474.47,686.07,1448.75,659.63,1427.3,669.72"/>
	<path class="st17" d="M1449.66,688.31c-2.3,0.83-4.48,3.01-4.09,5.45c0.41,2.56,3.53,3.81,6.01,3.16c1.79-0.47,3.44-1.76,4.06-3.54
		c0.63-1.77,0.05-3.99-1.51-4.95C1452.81,687.63,1451.11,687.79,1449.66,688.31"/>
	<path class="st18" d="M1442.19,686.35c-1.14,0-2.31-0.67-2.65-1.79c0.25-1.28,1.24-2.47,2.5-2.67c0.11-0.02,0.22-0.03,0.34-0.03
		c1.16,0,2.31,0.94,2.32,2.13c0,0.62-0.29,1.23-0.73,1.67C1443.49,686.13,1442.84,686.35,1442.19,686.35"/>
	<path class="st19" d="M1690.81,844.28c-0.35,0-0.71-0.15-0.98-0.52c-18.62-25.56-41-49.49-59.34-74.49
		c2.04,4.77,4.12,9.51,6.31,14.19c0.38,0.81,0.48,2.39-0.36,2.39c-0.2,0-0.46-0.09-0.78-0.31c-5.46-3.59-31.32-39.14-39.2-51.71
		c-5.32-8.52-10.97-17.63-16.13-27.08c0.88,4.91,1.35,9.76,0.92,14.45c-0.02,0.12-0.08,0.16-0.18,0.16c-0.03,0-0.06,0-0.09-0.01
		c-12.49-29.82-33.99-57.85-55.1-81.85c-13.25-15.05-28.05-28.58-42.8-42.16c-3.64-3.57-8.5-8.06-13.44-12.51
		c-6.34-5.98-12.57-12.07-18.57-18.38c16.18,6.81,29.01,16.78,41.34,29.4c1.72,1.77,3.33,3.58,4.91,5.45
		c-4.78-8.4-10.78-16.01-15.99-24.11c-0.47-0.75-0.91-3.05,0.07-3.05c0.21,0,0.48,0.1,0.82,0.34
		c20.53,14.13,35.88,32.83,49.57,52.99c-1.35-2.9-2.76-5.79-4.19-8.66c-4.26-8.51-7.18-18.36-12.1-26.49
		c-1.04-1.73-0.65-2.84,0.21-2.84c0.56,0,1.32,0.47,2.01,1.55c0.17,0.28,0.4,0.55,0.58,0.89c17.9,21.54,37.01,41.87,53.67,64.48
		c17.78,24.08,34.56,50.12,51.03,74.97c16.6,25.08,51.68,81.03,68.91,111.02C1692.47,843.37,1691.66,844.28,1690.81,844.28"/>
	<path class="st20" d="M1033.51,1129.24c0,0-5.26,12.48-23.11,16.81c-17.85,4.32-27.29-0.7-27.29-0.7"/>
	<path class="st20" d="M1047.86,1150.83c0,0-4.84,8.67-21.41,19.56c-8.66,5.69-22.58,8.37-22.58,8.37"/>
	<path class="st20" d="M833.38,1048.56c0,0,10.43,11.05,20.24,29.81c5.35,10.25,7.94,21.71,7.94,21.71"/>
	<path class="st20" d="M811.81,1063.31c0,0,5.9,8.63,7.86,19.39c1.96,10.76,0.78,23.64,0.78,23.64"/>
	<path class="st20" d="M659.81,1111.65c0,0,15.3,13.93,20.49,25.39c5.19,11.46,7.99,23.47,7.99,23.47"/>
	<path class="st20" d="M639.32,1122.75c0,0,5.29,14.3,6.47,25.85c1.38,13.46,0.65,19.63,0.65,19.63"/>
</g>
</svg>
