<?xml version="1.0" encoding="utf-8"?>
<!-- Generator: Adobe Illustrator 25.1.0, SVG Export Plug-In . SVG Version: 6.00 Build 0)  -->
<svg version="1.1" id="Capa_1" xmlns="http://www.w3.org/2000/svg" xmlns:xlink="http://www.w3.org/1999/xlink" x="0px" y="0px"
	 viewBox="0 0 1984.25 1417.32" style="enable-background:new 0 0 1984.25 1417.32;" xml:space="preserve">
<style type="text/css">
	.st0{clip-path:url(#SVGID_2_);fill-rule:evenodd;clip-rule:evenodd;fill:#6FBC85;}
	.st1{clip-path:url(#SVGID_4_);fill-rule:evenodd;clip-rule:evenodd;fill:#009664;}
	.st2{clip-path:url(#SVGID_4_);fill:#00A754;}
	
		.st3{clip-path:url(#SVGID_4_);fill:none;stroke:#009870;stroke-width:9.524;stroke-linecap:round;stroke-linejoin:round;stroke-miterlimit:10;}
	.st4{clip-path:url(#SVGID_4_);fill:#009746;}
	
		.st5{clip-path:url(#SVGID_4_);fill:none;stroke:#007739;stroke-width:9.524;stroke-linecap:round;stroke-linejoin:round;stroke-miterlimit:10;}
	.st6{clip-path:url(#SVGID_4_);fill:#009664;}
	.st7{clip-path:url(#SVGID_12_);fill:#E6007E;}
	.st8{clip-path:url(#SVGID_12_);fill:#F192AA;}
	.st9{clip-path:url(#SVGID_12_);fill:none;stroke:#F192AA;stroke-width:1.781;stroke-miterlimit:10;}
	.st10{clip-path:url(#SVGID_12_);fill:#E9418B;}
</style>
<g>
	<defs>
		<rect id="SVGID_1_" y="0" width="1984.25" height="1417.32"/>
	</defs>
	<clipPath id="SVGID_2_">
		<use xlink:href="#SVGID_1_"  style="overflow:visible;"/>
	</clipPath>
	<path class="st0" d="M97.12,727.21c77-38.96,346.33,124.33,346.33,124.33l-82.76-287.81l214.59,240.25
		c0.04,0.35,417.89,120.97,678.78-41.96c659.87-412.09,604.01-227.63,604.01-227.63c-72.8,96.92-332.73,253.76-305.8,291.44
		c8.6,12.03,70.5-2.27,143.14-16.56c117.19-23.06,262.34-46.13,256.85,41.33c-7.95,126.67-421.22,199.12-421.22,199.12
		S899.28,1047,192.7,1047C156.85,1047-60.03,806.73,97.12,727.21"/>
</g>
<g>
	<defs>
		<rect id="SVGID_3_" y="1.41" width="1984.25" height="1415.91"/>
	</defs>
	<clipPath id="SVGID_4_">
		<use xlink:href="#SVGID_3_"  style="overflow:visible;"/>
	</clipPath>
	<path class="st1" d="M125.94-10.27c-6.22,1.26-143,15.95-132.41,90.41C4.11,154.6,144.08,66.78,144.08,66.78
		s-48.89,64.21-62.45,167.58c-13.56,103.37,63.01,175.16,90.56,94.37c27.55-80.79,33.01-219.31,33.01-219.31
		c-0.17,0.13,42.83,124.1,86.02,189.52c43.24,65.49,107.2-3.59,102.34-47.23C388.7,208.08,270.74,88.34,270.74,88.34
		s121.95,85.25,215.04,118.94c93.1,33.7,115.63-27.18,115.9-65.32C601.95,103.83,301.4,8.57,301.4,8.57
		c-0.1,0.35,275.26,73.96,320.6,50.59c44.18-22.77,51.15-107.19-20.73-113.32c-71.88-6.12-471.45,41.92-471.45,41.92"/>
	<path class="st2" d="M1124.49,1037.82c0,0,32.46-144.02,229.76-266.39c87.23-54.1,193.95-69.32,193.95-69.32l16.21,37.93
		l21.93-49.53c0,0,73.44-12.89,193.15-11.75c87.37,0.83,134.98,15.42,134.98,15.42s-75.27,145.59-199.27,241.91
		s-192.8,138.13-192.8,138.13l-32.23-33.74l-17.57,43.85c0,0-71.61,8.71-175.41-3.59
		C1193.4,1068.44,1124.49,1037.82,1124.49,1037.82"/>
	<path class="st3" d="M1871.35,711.11c0,0-304.09,91.84-488.7,210.36"/>
	<path class="st4" d="M1073.2,1078.8c0,0-39.69-241.47,77.8-407.02c82.42-116.13,166.31-157.5,166.31-157.5l44.89,19.78
		l-12.28-38.75c0,0,36.81-20.7,90.35-39.51c53.54-18.81,67.64-20.62,67.64-20.62l19.24,23.15l19.01-31.7
		c0,0,57.94-12.65,151.25-23.91c93.32-11.26,165.38-12.99,165.38-12.99s-137.69,182.38-178.44,238.13
		c-40.74,55.76-157.52,169.82-206.01,209.65c-48.49,39.83-43.61,31.45-43.61,31.45l-50.68-25.37l19.73,42.86
		c0,0-57.02,60.85-158.01,115.87C1144.77,1057.36,1073.2,1078.8,1073.2,1078.8"/>
	<path class="st5" d="M1813.02,412.57c0,0-171.72,64.97-301.52,155.71c-129.79,90.74-231.04,215.15-231.04,215.15"/>
	<path class="st6" d="M900.93,1110.29c0,0-30.37-144.47-225.87-269.69c-86.43-55.36-192.93-72.13-192.93-72.13l-16.76,37.69
		l-21.21-49.84c0,0-73.24-13.95-192.96-14.56c-87.37-0.44-135.19,13.46-135.19,13.46S189.15,901.89,311.74,1000
		c122.59,98.12,190.78,140.91,190.78,140.91l32.71-33.27l16.93,44.1c0,0,71.47,9.75,175.44-1.04
		C831.58,1139.9,900.93,1110.29,900.93,1110.29"/>
	<path class="st5" d="M158.88,772.77c0,0,302.72,96.25,485.59,217.43"/>
	<path class="st2" d="M951.62,1152.01c0,0,43.19-240.87-71.88-408.1c-80.73-117.32-164-159.9-164-159.9l-45.17,19.13l12.84-38.57
		c0,0-36.51-21.23-89.77-40.81c-53.26-19.59-67.33-21.6-67.33-21.6l-19.57,22.87l-18.54-31.97c0,0-57.75-13.49-150.89-26.11
		c-93.14-12.61-165.18-15.39-165.18-15.39s135.03,184.36,174.96,240.7c39.93,56.34,155.03,172.09,202.94,212.61
		c47.91,40.53,43.15,32.08,43.15,32.08l51.04-24.63l-20.35,42.57c0,0,56.13,61.67,156.31,118.16
		C880.37,1129.53,951.62,1152.01,951.62,1152.01"/>
	<path class="st3" d="M221.55,475.11c0,0,170.76,67.46,299.22,160.07c128.46,92.62,227.89,218.48,227.89,218.48"/>
</g>
<g>
	<defs>
		<rect id="SVGID_5_" y="0" width="1984.25" height="1417.32"/>
	</defs>
	<clipPath id="SVGID_6_">
		<use xlink:href="#SVGID_5_"  style="overflow:visible;"/>
	</clipPath>
</g>
<g>
	<defs>
		<rect id="SVGID_7_" y="0" width="1984.25" height="1417.32"/>
	</defs>
	<clipPath id="SVGID_8_">
		<use xlink:href="#SVGID_7_"  style="overflow:visible;"/>
	</clipPath>
</g>
<g>
	<defs>
		<rect id="SVGID_9_" y="0" width="1984.25" height="1417.32"/>
	</defs>
	<clipPath id="SVGID_10_">
		<use xlink:href="#SVGID_9_"  style="overflow:visible;"/>
	</clipPath>
</g>
<g>
	<defs>
		<rect id="SVGID_11_" y="0" width="1984.25" height="1417.32"/>
	</defs>
	<clipPath id="SVGID_12_">
		<use xlink:href="#SVGID_11_"  style="overflow:visible;"/>
	</clipPath>
	<path class="st7" d="M1228.99,161.44l58.05,79.74c0,0,4.96,44.99-23.76,46.84c-28.71,1.85-28.42-55.04-28.42-55.04
		s-82.46,11.69-85.05-26.84C1146.27,153.62,1228.99,161.44,1228.99,161.44"/>
	<path class="st7" d="M1247.47,152.03l56.3,72.98c0,0,33.62,8.1,44.04-13.2c14.23-29.09-43.42-35.87-43.42-35.87
		s12.93-34.54,9.14-58.9c-4.32-27.71-26.24-45.29-41.37-38.21C1243.72,92.12,1247.47,152.03,1247.47,152.03"/>
	<path class="st8" d="M1179.23,109.71c-2.19,2.33,3.17,11.38,5.31,4.78C1186.68,107.89,1182.89,105.81,1179.23,109.71"/>
	<path class="st9" d="M1179.23,109.71c-2.19,2.33,3.17,11.38,5.31,4.78C1186.68,107.89,1182.89,105.81,1179.23,109.71z"/>
	<path class="st8" d="M1211.87,91.06c-4.7-0.2-7.41,6.05-2.11,5.88C1215.06,96.77,1219.08,91.37,1211.87,91.06"/>
	<path class="st9" d="M1211.87,91.06c-4.7-0.2-7.41,6.05-2.11,5.88C1215.06,96.77,1219.08,91.37,1211.87,91.06z"/>
	<path class="st8" d="M1225.47,138.83c0,0,70.89,91.29,77.18,98.5c6.29,7.22,2.05,15.89-6.24,5.54c0,0-63.59-88.33-70.14-96.9
		C1219.73,137.4,1216.13,128.12,1225.47,138.83"/>
	<path class="st9" d="M1220.71,130.05c0,0-6.05-7.4-7.75-19.29c-1.71-11.88-1.36-14.47-1.36-14.47"/>
	<path class="st9" d="M1184.54,114.49c0,0,11.85,5.05,20.15,10.34c8.31,5.29,11.17,8.53,11.17,8.53"/>
	<path class="st8" d="M1226.69,129.75c2.58,3.38,1.94,8.22-1.45,10.8c-3.38,2.58-8.22,1.94-10.8-1.45
		c-2.58-3.38-1.94-8.22,1.45-10.8C1219.27,125.72,1224.1,126.37,1226.69,129.75"/>
	<path class="st10" d="M1261.32,269.01c-3.79,0-7.53-1.7-10.01-4.95c-4.22-5.52-3.16-13.42,2.36-17.64
		c2.28-1.74,4.97-2.59,7.63-2.59c3.79,0,7.53,1.7,10.01,4.95c4.22,5.52,3.16,13.42-2.36,17.64
		C1266.67,268.17,1263.99,269.01,1261.32,269.01"/>
	<path class="st10" d="M1328.02,218.06c-3.79,0-7.53-1.7-10.01-4.95c-4.22-5.52-3.16-13.42,2.36-17.64
		c2.28-1.74,4.97-2.59,7.63-2.59c3.79,0,7.53,1.7,10.01,4.95c4.22,5.52,3.16,13.42-2.36,17.64
		C1333.37,217.22,1330.68,218.06,1328.02,218.06"/>
</g>
</svg>
