<svg version="1.1" id="Capa_1" xmlns="http://www.w3.org/2000/svg" xmlns:xlink="http://www.w3.org/1999/xlink" x="0" y="0" viewBox="0 0 1984.25 1417.32" style="enable-background:new 0 0 1984.25 1417.32" xml:space="preserve"><style>.st0,.st3,.st4{clip-path:url(#SVGID_2_);fill:#005fa8}.st3,.st4{fill:#4bbecf}.st4{fill-rule:evenodd;clip-rule:evenodd;fill:#009c90}.st6{clip-path:url(#SVGID_4_);fill:#e6007e}.st7{fill:#f193bd}.st7,.st8,.st9{clip-path:url(#SVGID_4_)}.st8{fill:none;stroke:#f193bd;stroke-width:1.781;stroke-miterlimit:10}.st9{fill:#e94190}</style><defs><path id="SVGID_1_" d="M0 0h1984.25v1417.32H0z"/></defs><clipPath id="SVGID_2_"><use xlink:href="#SVGID_1_" style="overflow:visible"/></clipPath><path class="st0" d="M3.74 584.03s443.83-73.41 576.45-76.81c98.18-2.52 178.94 18.92 250.53 40.35 70.39 21.07 131.9 42.15 192.38 40.46 152.98-4.27 159.15-82.32 329.5-81.01 156.19 1.2 208.79 69.7 292.06 67.62 45.99-1.15 227.12-88.51 347.33-88.51v931.19H3.74V584.03"/><path d="M1640.94 574.69c-75.98 0-127.59-58.28-260.12-66.68 26.45-10.62 54.18-18.12 83.58-18.12 5.12 0 10.28.23 15.5.7 58.66 5.36 110.8 52.92 173.32 83.14-3.22.53-6.09.84-8.56.91-1.25.04-2.49.05-3.72.05m-689.77 6.23c-29.22-5.91-59.35-14.85-91.17-24.49 39.05-6.04 44.02-12.65 72.16-16.25 5.58 15.16 12.73 26.22 19.01 40.74M3.74 1417.32H0V526.51s140.1-15.09 286.55-15.09c27.46 0 55.14.53 82.17 1.79 25.96 1.21 51.16 3.4 75.69 6.21C262.98 541.15 3.74 584.03 3.74 584.03v833.29" style="clip-path:url(#SVGID_2_);fill:#50baeb"/><path d="M1640.94 574.69c-75.98 0-127.59-58.28-260.12-66.68 26.45-10.62 54.18-18.12 83.58-18.12 5.12 0 10.28.23 15.5.7 58.66 5.36 110.8 52.92 173.32 83.14-3.22.53-6.09.84-8.56.91-1.25.04-2.49.05-3.72.05m-689.77 6.23c-29.22-5.91-59.35-14.85-91.17-24.49 39.05-6.04 44.02-12.65 72.16-16.25 5.58 15.16 12.73 26.22 19.01 40.74M3.74 1417.32H0V526.51s140.1-15.09 286.55-15.09c27.46 0 55.14.53 82.17 1.79 25.96 1.21 51.16 3.4 75.69 6.21C262.98 541.15 3.74 584.03 3.74 584.03v833.29" style="clip-path:url(#SVGID_2_);fill:#bdc0e2"/><path class="st0" d="M844.4 442.97c8.83-8.15 25.04-7.84 42.45 12.23 15.03 17.32 17.7 31.29 11.72 37.69-7.13 7.64-29.05-.16-46.35-14.26-27.51-22.41-7.82-35.66-7.82-35.66M1325.58 395.73c7.98 5.76 17.73 18.18-1.77 38.13-19.51 19.95-40.35 21.38-46.11 16.45-5.76-4.92-1.77-28.42 15.96-47.49 17.73-19.06 31.92-7.09 31.92-7.09"/><path class="st3" d="M1143.06 428.36c5.6-4.91 18.85-1.85 22.41 8.34 3.56 10.19 2.55 24.45-11.21 22.92-13.75-1.53-18.34-11.21-17.32-20.89 1.03-9.68 6.12-10.37 6.12-10.37M851.7 394.58c8.66-4.14 16.34-2.55 17.85 7.64 1.51 10.19-1.53 13.75-8.92 15.28-7.4 1.53-11.47-5.18-14.02-12.52-2.55-7.34 5.09-10.4 5.09-10.4"/><path class="st4" d="M537.04 15.88s-34.7 13.35-56.52 58.14c-21.77 44.81-27.43 174.16-27.43 174.16s23.79-19.7 38.43-55.89c14.58-36.25 14.33-99.81 57.53-139.47 15.65-14.34 3.58-31.47 3.58-31.47l-15.59-5.47zM433.45-76.96s-36.83 12.6-63.87 60.71c-26.97 48.09-50.86 192.22-50.86 192.22s28.39-21.38 46.71-60.2c18.36-38.88 61.69-131.16 72.07-149.6 10.43-18.51 6.46-38.27 6.46-38.27l-10.51-4.86zM320.88-157.29s-38.7 9.79-72.68 55.5c-33.91 45.66-78.71 186.7-78.71 186.7s31.47-19.13 55.4-56.28c23.97-37.16 80.74-125.39 93.79-142.93 13.06-17.59 21.68-44.65 21.68-44.65l-19.48 1.66zM599.47 188.18c.77 47.97 49.35 180.89 49.35 180.89s12.85-24.44 9.43-62.52c-3.48-38.09-11.91-128.46-12.22-146.91-.28-18.46-9.6-43.97-9.6-43.97s-37.78 24.52-36.96 72.51"/><path class="st4" d="M528.15 13.67s7.82-33.67 68.86-53.03c61.05-19.35 250.56-26.87 250.56-26.87s-25.6 18.59-75.27 32.11C722.62-20.6 633.21-15.14 581.2 18.85c-18.73 12.3-43.92 5.33-43.92 5.33l-9.13-10.51zM650 103.97s13.67-13.02 81.27-16.68c67.59-3.67 259 18.71 259 18.71s-33.28 11.19-87.14 12.17c-53.91.94-171.05 5.02-196.77.9-32.46-5.17-56.36-15.1-56.36-15.1M584.09 92.7s-38.58 11.71-54.65 57.86c-16.05 46.09 1.48 172.78 1.48 172.78s23.98-23.11 29.91-60.78c6.33-39.78-3.48-54.26 29.38-112.27 19.67-34.79 13.47-63.22 13.47-63.22l-19.59 5.63zM479.75-34.64s-22.86 7.33-44.64 52.15c-21.85 44.74-66.62 190.68-66.62 190.68s63.25-29.07 67.08-66.89c4.74-47 49.2-122.21 57.55-139.45 8.43-17.27 2.13-29.87 2.13-29.87l-15.5-6.62zM376.75-119.05s-48.38 5.55-75.43 53.59c-26.98 48.15-39.33 199.31-39.33 199.31s28.4-21.4 46.75-60.23c18.33-38.84 61.67-131.08 72.04-149.59 10.39-18.48 13.83-40.23 13.83-40.23l-17.86-2.85zM708.22 20.52c63.55-15.39 248.49-.36 248.49-.36s-25.5 9.6-76.82 19.92C828.54 50.4 706.6 74.84 682.19 80.76c-24.47 5.92-63.92-4.14-63.92-4.14s26.47-40.67 89.95-56.1M691.97 138.97s52.59-4.51 121.2 16.84c68.58 21.34 155.87 56 155.87 56l19.52 9.67s-45.65-2.66-89.32-12.28c-43.67-9.61-100.42-23.46-142.14-38.24-41.72-14.68-75.82-30.51-75.82-30.51l10.69-1.48zM681.6 152.05s29.38 45.79 44.91 81.25c15.53 35.45 21.79 55.41 20.7 81.65-1.09 26.17-11.96 48.81-11.96 48.81s-10.85-11.2-22.02-36.56c-11.2-25.31-29.29-56.28-34.21-89.59-4.99-33.32-1.94-66.55-3.59-75.48-1.65-8.95-.52-21.63-.52-21.63l6.69 11.55zM771.46 226.06c37.41 24.03 77.77 45.54 112.85 71.46 3.87 2.87 9.03-.75 6.03-3.8-.81-.83-1.61-1.62-2.4-2.44l-.02-.14c-10.7-13.21-19.87-26.9-32.19-39.48-13.68-13.85-30.12-26.44-46.22-38.95-6.49-5.05-23.7-19.92-40.67-27.9-22.13-12.21-48.14-21.97-70.95-28.86-4.09-1.24-6.35 2.36-4.1 4.52 14.56 13.52 26.86 28.2 43.09 40.87 1.97 1.54 4.17 2.94 6.27 4.4 9.26 8.77 22.86 16.82 28.31 20.32"/><path d="M1305.68 90.81s78.29 78.42 149.54-13.69c0 .01-25.82-84.54-149.54 13.69m167.57-2.48C1413.03 187.24 1520 224 1520 224c45.02-147.11-46.75-135.67-46.75-135.67m50.05-103.3s-23.96-85.58-148.88 10.39c0 0 76.28 80.63 148.88-10.39m61.61 149.12c47.61-146.9-43.86-137.44-43.86-137.44-61.81 98.13 43.86 137.44 43.86 137.44" style="clip-path:url(#SVGID_2_);fill:#318c2c"/><defs><path id="SVGID_3_" d="M0 0h1984.25v1417.32H0z"/></defs><clipPath id="SVGID_4_"><use xlink:href="#SVGID_3_" style="overflow:visible"/></clipPath><path class="st6" d="m1228.99 214.44 58.05 79.74s4.96 44.99-23.76 46.84c-28.71 1.85-28.42-55.04-28.42-55.04s-82.46 11.69-85.05-26.84c-3.54-52.52 79.18-44.7 79.18-44.7M1247.47 205.03l56.3 72.98s33.62 8.1 44.04-13.2c14.23-29.09-43.42-35.87-43.42-35.87s12.93-34.54 9.14-58.9c-4.32-27.71-26.24-45.29-41.37-38.21-28.44 13.29-24.69 73.2-24.69 73.2"/><path class="st7" d="M1179.23 162.71c-2.19 2.33 3.17 11.38 5.31 4.78 2.14-6.6-1.65-8.68-5.31-4.78"/><path class="st8" d="M1179.23 162.71c-2.19 2.33 3.17 11.38 5.31 4.78 2.14-6.6-1.65-8.68-5.31-4.78z"/><path class="st7" d="M1211.87 144.06c-4.7-.2-7.41 6.05-2.11 5.88 5.3-.17 9.32-5.57 2.11-5.88"/><path class="st8" d="M1211.87 144.06c-4.7-.2-7.41 6.05-2.11 5.88 5.3-.17 9.32-5.57 2.11-5.88z"/><path class="st7" d="M1225.47 191.83s70.9 91.29 77.19 98.5c6.29 7.22 2.05 15.89-6.24 5.54 0 0-63.59-88.33-70.14-96.9-6.55-8.57-10.15-17.85-.81-7.14"/><path class="st8" d="M1220.71 183.05s-6.05-7.4-7.75-19.29c-1.71-11.88-1.36-14.47-1.36-14.47M1184.54 167.49s11.85 5.05 20.16 10.34 11.17 8.53 11.17 8.53"/><path class="st7" d="M1226.69 182.75c2.58 3.38 1.94 8.22-1.45 10.8-3.38 2.58-8.22 1.94-10.8-1.44s-1.94-8.22 1.45-10.8c3.38-2.58 8.22-1.94 10.8 1.44"/><path class="st9" d="M1261.32 322.02c-3.79 0-7.53-1.7-10.01-4.95-4.22-5.53-3.16-13.42 2.36-17.64 2.28-1.74 4.97-2.59 7.63-2.59 3.79 0 7.53 1.7 10.01 4.95 4.22 5.52 3.16 13.42-2.36 17.64a12.556 12.556 0 0 1-7.63 2.59M1328.02 271.06c-3.79 0-7.53-1.7-10.01-4.95-4.22-5.52-3.16-13.42 2.36-17.64 2.28-1.74 4.97-2.58 7.63-2.58 3.79 0 7.53 1.7 10.01 4.95 4.22 5.52 3.16 13.42-2.36 17.64a12.524 12.524 0 0 1-7.63 2.58"/></svg>