<svg version="1.1" id="Capa_1" xmlns="http://www.w3.org/2000/svg" xmlns:xlink="http://www.w3.org/1999/xlink" x="0" y="0" viewBox="0 0 1984.25 1417.32" style="enable-background:new 0 0 1984.25 1417.32" xml:space="preserve"><style>.st0{clip-path:url(#SVGID_2_);fill:#e6007e}.st1{fill:#ea90b0}.st1,.st2,.st3{clip-path:url(#SVGID_2_)}.st2{fill:none;stroke:#ea90b0;stroke-width:1.781;stroke-miterlimit:10}.st3{fill:#e7418d}.st4{fill-rule:evenodd;clip-rule:evenodd;fill:#76b82a}.st4,.st5,.st7{clip-path:url(#SVGID_4_)}.st5{fill-rule:evenodd;clip-rule:evenodd;fill:#009982}.st7{fill:#009870}</style><defs><path id="SVGID_1_" d="M0 0h1984.25v1417.32H0z"/></defs><clipPath id="SVGID_2_"><use xlink:href="#SVGID_1_" style="overflow:visible"/></clipPath><path class="st0" d="m1142.25 169.6 58.05 79.75s4.96 44.99-23.76 46.83c-28.71 1.85-28.42-55.04-28.42-55.04s-82.46 11.69-85.05-26.84c-3.54-52.52 79.18-44.7 79.18-44.7M1160.73 160.2l56.3 72.98s33.62 8.1 44.04-13.2c14.23-29.09-43.42-35.87-43.42-35.87s12.93-34.54 9.14-58.9c-4.32-27.71-26.24-45.29-41.37-38.21-28.43 13.29-24.69 73.2-24.69 73.2"/><path class="st1" d="M1092.5 117.87c-2.19 2.33 3.17 11.38 5.31 4.78 2.14-6.6-1.66-8.67-5.31-4.78"/><path class="st2" d="M1092.5 117.87c-2.19 2.33 3.17 11.38 5.31 4.78 2.14-6.6-1.66-8.67-5.31-4.78z"/><path class="st1" d="M1125.13 99.23c-4.7-.2-7.41 6.05-2.11 5.88 5.31-.18 9.33-5.58 2.11-5.88"/><path class="st2" d="M1125.13 99.23c-4.7-.2-7.41 6.05-2.11 5.88 5.31-.18 9.33-5.58 2.11-5.88z"/><path class="st1" d="M1138.74 146.99s70.89 91.29 77.18 98.5c6.29 7.22 2.05 15.89-6.24 5.54 0 0-63.59-88.33-70.14-96.9-6.54-8.57-10.14-17.85-.8-7.14"/><path class="st2" d="M1133.98 138.22s-6.05-7.4-7.75-19.29c-1.71-11.88-1.36-14.47-1.36-14.47M1097.81 122.65s11.85 5.05 20.15 10.34c8.31 5.29 11.17 8.53 11.17 8.53"/><path class="st1" d="M1139.96 137.92c2.58 3.38 1.94 8.22-1.45 10.8-3.38 2.58-8.22 1.94-10.8-1.45-2.58-3.38-1.94-8.22 1.45-10.8 3.38-2.58 8.21-1.93 10.8 1.45"/><path class="st3" d="M1174.59 277.18c-3.79 0-7.54-1.7-10.01-4.95-4.22-5.52-3.16-13.42 2.36-17.64 2.28-1.74 4.97-2.58 7.63-2.58 3.79 0 7.53 1.7 10.01 4.95 4.22 5.52 3.16 13.42-2.36 17.64a12.609 12.609 0 0 1-7.63 2.58M1241.29 226.23c-3.79 0-7.54-1.7-10.01-4.95-4.22-5.52-3.16-13.42 2.36-17.64 2.28-1.74 4.97-2.58 7.63-2.58 3.79 0 7.54 1.7 10.01 4.95 4.22 5.52 3.16 13.42-2.36 17.64a12.609 12.609 0 0 1-7.63 2.58"/><defs><path id="SVGID_3_" d="M0 1.41h1984.25v954.67H0z"/></defs><clipPath id="SVGID_4_"><use xlink:href="#SVGID_3_" style="overflow:visible"/></clipPath><path class="st4" d="M460.75 538.19s18.41 7.67 50.46-2.89c32.04-10.6 106.56-63.13 106.56-63.13s-18.56-.8-43.51 8.89c-24.97 9.74-60.63 36.71-96.52 36.91-12.99.06-18.82 11.94-18.82 11.94l1.83 8.28zM442.67 611.51s14.92 7.04 43.34-.93c28.4-7.98 99.19-49.38 99.19-49.38s-16.75-1.48-38.8 6.02c-22.09 7.51-74.46 25.42-85.36 28.47-10.94 3.06-18.83 10.96-18.83 10.96l.46 4.86zM434.16 672.54s12.39 7.51 37.91 3.1c25.48-4.41 90.98-34.19 90.98-34.19s-14.48-2.8-34.41 1.78c-19.94 4.57-67.25 15.46-77.04 17.15-9.81 1.7-22.39 7.41-22.39 7.41l4.95 4.75zM525.99 460.41c20.55-15.82 66.27-73.38 66.27-73.38s-13.67 4.16-29.3 17.55c-15.62 13.41-52.65 45.28-60.55 51.37-7.91 6.09-16.69 17.13-16.69 17.13s19.72 3.18 40.27-12.67M446.5 519.75s-18.48 9.71-44.47-3.46c-25.98-13.18-81.11-73.28-81.11-73.28s15.99 1.7 36.04 13.23c20.06 11.54 47 39.2 77.64 44.02 11.07 1.72 14.52 12.62 14.52 12.62l-2.62 6.87zM439.81 595.98s-19.79 7.02-48.85-6.11c-29.06-13.13-95.29-70.76-95.29-70.76s18.12 1.12 40.48 12.71c22.35 11.63 75.42 39.21 86.6 44.27 11.17 5.06 18.34 14.75 18.34 14.75l-1.28 5.14zM429.89 666.1s-16.47 6.83-46.72-3.26c-30.26-10.08-104.52-58.47-104.52-58.47s18.16-.74 41.58 8.52c23.43 9.24 79.03 31.26 90.66 35.13 11.64 3.88 25.89 13.18 25.89 13.18l-6.89 4.9zM462.93 752.33s-15.48 5.46-46.87-.12c-43.92-7.84-103.07-61.84-103.07-61.84s16.38 4.06 43.35 18.32c22.31 11.81 74.54 23.8 86.44 26.91 11.87 3.1 26.7 11.4 26.7 11.4l-6.55 5.33zM474.83 471.2s-10.04.22-30.18-20.86c-20.14-21.07-61.26-92.73-61.26-92.73s14.48 6.95 29.58 24.45c15.1 17.53 48.9 54.89 53.89 64.93 6.3 12.66 7.97 24.21 7.97 24.21"/><path class="st4" d="M482.37 496.58s16.17 8.52 42.95-3.02c26.75-11.52 83.54-63.63 83.54-63.63s-17.74.49-37.65 12.29c-21.05 12.44-25.42 20.98-62.52 31.28-22.25 6.19-34.38 18.64-34.38 18.64l8.06 4.44zM453.73 578.31s9.77 4.9 37.46-4.25c27.67-9.1 110.73-47.59 110.73-47.59s-31.3-10.35-50.72 2.19c-24.12 15.6-72.74 28.34-83.38 31.87-10.68 3.52-15.09 10.21-15.09 10.21l1 7.57zM438 643.14s14.65 12.97 43.04 5.03c28.43-8 99.48-55.32 99.48-55.32s-16.76-1.48-38.82 6.02c-22.06 7.51-74.42 25.4-85.35 28.47-10.92 3.06-21.56 9.36-21.56 9.36l3.21 6.44zM418.47 482.39c-24.74-15.45-67.67-82.28-67.67-82.28s11.59 4.95 30.54 18.2c18.96 13.26 63.95 44.77 73.46 50.7 9.52 5.95 15.35 22.71 15.35 22.71s-26.94 6.08-51.68-9.33M447.65 566s-12.2 8.81-38.19-4.39c-18.01-9.11-14.95-12.46-100.56-69.14 0 0 32.49-5.5 49.81 9.84 21.52 19 67.67 38.92 77.63 44.02 10.01 5.04 13.4 12.36 13.4 12.36l-2.09 7.31zM432.56 630.35s-17.87 9.51-46.92-3.63c-29.07-13.12-97.23-73.28-97.23-73.28s18.13 1.14 40.5 12.71c22.38 11.62 75.41 39.23 86.58 44.25 11.17 5.08 21.52 13.55 21.52 13.55l-4.45 6.4zM436.26 703.64s-15.99 7.92-46.86-.12c-30.85-8.05-108.2-51.39-108.2-51.39s18.12-1.95 42.1 5.72c24.01 7.67 80.94 25.97 92.79 29.02 11.86 3.12 26.72 11.43 26.72 11.43l-6.55 5.34zM480.44 444.49s-16.48-15.79-24.74-46.35c-8.26-30.54-15.13-72.15-15.13-72.15l-.6-10.01s11.1 16.11 18.29 34.11c7.19 17.99 15.88 41.88 20.03 61.11 4.2 19.2 5.77 36.29 5.77 36.29l-3.62-3zM490.52 447.92s12.69-23.56 24.27-39.67c11.57-16.11 18.69-24.44 30.29-32.66 11.58-8.19 23.99-12.34 23.99-12.34s-2.22 6.84-10.48 18.38c-8.24 11.53-17.25 26.94-30.46 39.22-13.2 12.31-28.3 22.21-31.76 25.6-3.47 3.39-9.22 7.19-9.22 7.19l3.37-5.72zM505.91 375.63c1.83-25.67 1.21-51.42 4.93-76.99.42-2.82-3.41-3.3-4.22-.74-.22.69-.42 1.36-.65 2.04l-.07.07c-4.26 10.15-9.29 19.89-12.65 30.42-3.65 11.63-5.65 23.81-7.71 35.82-.84 4.84-3.93 18.34-3.04 28.7.1 14.3 2.91 29.08 6.36 41.29.61 2.2 3.48 1.51 4.01-.36 3.17-11.83 7.76-23.28 9.88-35.41.26-1.47.36-2.97.53-4.47 2.1-7.6 2.36-16.63 2.63-20.37"/><path class="st5" d="M1636.91 660.72s-16.32-21.84-12.71-67.4c3.65-45.56 49.48-160.32 49.48-160.32s7.17 24.2 2.4 60.13c-4.83 35.97-29.21 91.47-17.68 138.81 4.19 17.13-9.79 28.56-9.79 28.56l-11.7.22zM1544.72 707.68s-14.33-17.43-13-57.4c1.36-39.93 33.5-146.27 33.5-146.27s7.49 21.6 4.69 53.02c-2.8 31.48-9.55 106.13-10.05 121.45-.5 15.38-8.48 28.27-8.48 28.27l-6.66.93M1465.82 738.17s-14.13-13.95-16.61-48.97c-2.47-34.97 15.86-130.65 15.86-130.65s8.5 18.2 8.93 45.89c.44 27.71 1.41 93.48 2.37 106.92.95 13.47-2.56 31.83-2.56 31.83l-7.99-5.02M1719.57 550.22C1734 518.15 1796 439.75 1796 439.75s-1.07 19.32-13.85 44.15c-12.82 24.82-43.3 83.67-48.86 96-5.54 12.35-17.44 27.39-17.44 27.39s-10.73-25 3.72-57.07M1666.28 673.68s-6.93 27.42 19.24 57.5c26.17 30.07 124.73 83.73 124.73 83.73s-7.53-20.53-29.55-43.31c-22.04-22.79-67.91-49.56-84.44-88.4-5.94-14.04-21.66-15.15-21.66-15.15l-8.32 5.63zM1566.44 706.55s-2.9 28.29 24.23 62.43c27.12 34.14 126.03 103.21 126.03 103.21s-7.45-23.52-30.32-49.33c-22.91-25.77-77.27-86.99-87.71-100.12-10.44-13.12-25.77-19.5-25.77-19.5l-6.46 3.31M1475.85 741.75s-3.73 23.86 19.71 60.53c23.43 36.69 112.6 119.25 112.6 119.25s-4.98-24.15-25.07-52.1c-20.07-27.95-67.81-94.26-76.82-108.36-9.02-14.1-26.15-29.95-26.15-29.95l-4.27 10.63M1349.57 725.44s-2.23 22.12 15.56 61.72c24.92 55.4 116.65 116.28 116.65 116.28s-10.82-20.29-38.77-51.33c-23.14-25.66-56.35-90.7-64.42-105.39-8.05-14.66-24.04-31.58-24.04-31.58l-4.98 10.3zM1721.94 621.03s3 13.29 37.83 33.17c34.83 19.89 144.25 51.44 144.25 51.44s-14.05-16.88-42.45-31.25c-28.43-14.36-89.54-47.1-104.61-50.5-19.01-4.31-35.02-2.86-35.02-2.86"/><path class="st5" d="M1685.5 619.1s-16.71-18.62-10.07-57.54c6.63-38.88 57.71-130.15 57.71-130.15s5.17 23.53-4.07 53.49c-9.73 31.66-19.73 40.11-21.32 92.25-.97 31.26-13.65 51.17-13.65 51.17l-8.6-9.22zM1585.51 682.63s-9.77-11.32-6.62-50.69c3.09-39.33 27.3-160.92 27.3-160.92s24.14 37.97 13.73 67.51c-12.95 36.7-14.03 104.78-15.26 119.92-1.19 15.18-8.71 23.11-8.71 23.11l-10.44 1.07M1503.92 723.81s-22.18-15.21-20.87-55.12c1.37-39.98 41.35-148.52 41.35-148.52s7.48 21.61 4.7 53.05c-2.8 31.44-9.54 106.07-10.06 121.43-.51 15.35-5.44 31.36-5.44 31.36l-9.68-2.2M1725.49 698.81c28.81 27.72 132.36 63.19 132.36 63.19s-10.43-13.71-34.39-34.5c-23.98-20.8-80.94-70.13-92-80.78-11.09-10.67-35.45-13.05-35.45-13.05s.72 37.41 29.48 65.14M1603.99 686.75s-7.79 18.86 18.42 48.93c18.11 20.85 21.59 15.77 125.59 110.67 0 0-3.31-44.54-29.54-62.53-32.5-22.36-74.33-76.87-84.42-88.39-10.04-11.6-20.94-13.76-20.94-13.76l-9.11 5.08M1522.82 726.96s-6.86 26.54 20.28 60.67c27.12 34.16 130.03 104.98 130.03 104.98s-7.49-23.53-30.32-49.35c-22.91-25.82-77.29-86.97-87.68-100.11-10.48-13.12-25.21-24.08-25.21-24.08l-7.1 7.89M1423.5 745.2s-5.35 23.57 15.56 61.7c20.92 38.1 104.34 126.33 104.34 126.33s-3.34-24.49-21.49-53.65c-18.16-29.21-61.35-98.44-69.34-113.09-8.08-14.64-24.07-31.6-24.07-31.6l-5 10.31M1755.85 605.21s26.55 16.73 70.16 17.96c43.59 1.24 101.55-2.84 101.55-2.84l13.59-2.37s-25.21-9.55-51.67-13.34c-26.45-3.8-61.27-7.7-88.38-7.1-27.08.53-50.48 3.85-50.48 3.85l5.23 3.84zM1747.94 593.01s27.36-24.16 45.12-44.5c17.76-20.33 26.58-32.33 33.76-50.22 7.15-17.83 8.64-35.5 8.64-35.5s-8.43 5.09-21.16 19.61c-12.73 14.49-30.39 31.23-42.49 52.52-12.13 21.28-20.42 44.29-23.83 49.92-3.4 5.64-6.59 14.42-6.59 14.42l6.55-6.25zM1839.64 549.92c33.76-10.52 68.42-17.83 101.43-30.8 3.64-1.44 5.53 3.46 2.38 5.33-.86.51-1.69.99-2.52 1.5l-.07.12c-12.19 8.81-23.57 18.52-36.56 26.26-14.36 8.48-30.01 14.97-45.41 21.47-6.21 2.63-23.26 10.96-37.41 13.06-19.17 4.39-39.87 5.35-57.35 4.65-3.14-.12-3.16-4.11-.84-5.4 14.8-7.91 28.61-17.57 44.15-24.2 1.89-.81 3.86-1.41 5.81-2.1 9.47-5.17 21.47-8.37 26.39-9.89"/><path d="M1267.89 1001.6s16.95-132.89 154.36-267.56c60.75-59.54 137.41-86.83 137.41-86.83l13.48 31.83 13.63-47.08s52.64-20.94 139.45-35.27c63.36-10.46 98.54-3.52 98.54-3.52s-47.9 139.78-133.38 241.78c-85.47 102-133.43 148.18-133.43 148.18l-24.9-26.03-10.73 41.45s-51.5 16.97-127.3 19.28c-75.79 2.3-127.13-16.23-127.13-16.23" style="clip-path:url(#SVGID_4_);fill:#00a754"/><path class="st7" d="M1792.4 610.46c-.06.03-54.18 30.34-124.39 76.89-70.22 46.56-156.52 109.31-221.05 174.44-1.5 1.51-1.48 3.95.03 5.45a3.842 3.842 0 0 0 5.44-.03c63.86-64.47 149.85-127.06 219.83-173.44a2352.61 2352.61 0 0 1 88.22-55.7c11.12-6.68 20.05-11.9 26.19-15.46 3.07-1.78 5.45-3.14 7.06-4.05.8-.46 1.42-.8 1.82-1.03.41-.23.61-.34.61-.35a3.844 3.844 0 0 0 1.48-5.24 3.847 3.847 0 0 0-5.24-1.48"/><path d="M1232.59 1044.8s-39.79-210.75 37.8-373.78c54.43-114.37 113.34-162.1 113.34-162.1l33.44 11.93-10.67-33.07s25.73-23.22 63.68-46.89c37.95-23.68 48.08-27.1 48.08-27.1l15 18.23 12.33-30.77s41.41-18.74 108.53-40.76c67.12-22.03 119.27-32.81 119.27-32.81s-91.47 180.67-118.45 235.73c-26.98 55.06-106.41 171.98-139.73 213.8-33.33 41.82-30.17 33.7-30.17 33.7l-37.89-16.17 16.26 35.78s-38.55 61.7-109.23 123.83c-70.7 62.11-121.59 90.45-121.59 90.45" style="clip-path:url(#SVGID_4_);fill:#009746"/><path class="st7" d="M1736.25 351.24c-.06.04-30.51 20.11-72.23 52.43-41.72 32.33-94.71 76.89-139.91 126.01-45.18 49.12-84.69 104.75-112.93 148.13-28.24 43.38-45.21 74.5-45.24 74.56a3.84 3.84 0 0 0 1.54 5.22c1.87 1.02 4.2.33 5.22-1.54l.19-.35c1.99-3.62 19.53-35.26 47.41-77.78 27.88-42.52 66.13-95.92 109.47-143.03 44.73-48.63 97.45-92.98 138.96-125.14 20.75-16.08 38.7-29.11 51.46-38.12 6.38-4.5 11.46-8 14.94-10.37 1.74-1.18 3.08-2.09 3.98-2.69.45-.3.8-.53 1.02-.68l.34-.22a3.833 3.833 0 0 0 1.09-5.33c-1.15-1.78-3.54-2.27-5.31-1.1"/><path d="M1512.96 298.68s-50.37 28.31-50.98 56.05c-.61 27.73 16.31 55.76 16.31 55.76s37.63-22.22 41.11-53.83c3.48-31.62-6.44-57.98-6.44-57.98" style="clip-path:url(#SVGID_4_);fill-rule:evenodd;clip-rule:evenodd;fill:#007e94"/><path class="st5" d="M1379.07 371.45s25.76 51.73 53.42 53.72c27.67 2 56.51-13.49 56.51-13.49s-20.31-38.69-51.71-43.76c-31.39-5.06-58.22 3.53-58.22 3.53"/><path d="M367.53-91.05S134.09-40.3 158.52 56.18c25.36 100.19 161.43 88.61 157.27 68.81 0 0-2.11 63.22 53.06 82.37 57.75 20.04 114.37-35.5 114.37-35.5-12.15 2.59 70.21 113.65 144.6 85.45 74.39-28.2 74.93-130.14 74.93-130.14s71 73.92 130.14 15.77c59.14-58.15-1.32-151.17-1.32-151.17L367.53-91.05z" style="clip-path:url(#SVGID_4_);fill-rule:evenodd;clip-rule:evenodd;fill:#00b2bb"/><path d="M300.65 731.86s-74.9-170.23-6.6-186.97c76.73-18.79 135.12 168.3 135.04 168.32l4.76 2.85s-6.54-14.39-8.49-32.03c-2.64-23.93-8.18-53.66-8.18-53.66s14.95 11.55 30.35 26.62c27.47 26.88 62.77 64.5 62.77 64.5s80.43-79.07 179.02-59.68-69.08 385.11-69.08 385.11h-357.2s-218.23-58.89-102.95-94.6c115.28-35.71 164.25-33.64 164.25-33.64s-215.81-39.22-261.17-88.02c-45.36-48.8 152.16-37.96 152.16-37.96S95.97 714.63 70.19 695.4c-22.55-16.83-33.06-53.27-21.49-75.45 64.23-123.22 251.95 111.91 251.95 111.91" style="clip-path:url(#SVGID_4_);fill-rule:evenodd;clip-rule:evenodd;fill:#00a255"/><defs><path id="SVGID_5_" d="M0 0h1984.25v1417.32H0z"/></defs><clipPath id="SVGID_6_"><use xlink:href="#SVGID_5_" style="overflow:visible"/></clipPath><defs><path id="SVGID_7_" d="M1765.06 939.68c-.48-1.72-1.01-3.38-1.58-5-.01-.02-.02-.04-.02-.06l-.03-.09c-.02-.04-.03-.09-.05-.13 0-.01-.01-.02-.01-.02 0-.01 0-.01-.01-.02-.14-.27-.28-.54-.42-.82 1.44 3.63 2.08 6.03 2.12 6.14"/></defs><clipPath id="SVGID_8_"><use xlink:href="#SVGID_7_" style="overflow:visible"/></clipPath><linearGradient id="SVGID_9_" gradientUnits="userSpaceOnUse" x1="0" y1="1417.474" x2="1" y2="1417.474" gradientTransform="scale(478.9577 -478.9577) rotate(-50.309 -1509.016 704.874)"><stop offset="0" style="stop-color:#9f847c"/><stop offset="0" style="stop-color:#9f847c"/><stop offset="1" style="stop-color:#c8a496"/></linearGradient><path style="clip-path:url(#SVGID_8_);fill:url(#SVGID_9_)" d="m1764.19 932.49 3.89 4.68-4.28 3.55-3.89-4.68z"/><defs><path id="SVGID_10_" d="M0 0h1984.25v1417.32H0z"/></defs><clipPath id="SVGID_11_"><use xlink:href="#SVGID_10_" style="overflow:visible"/></clipPath></svg>