<?xml version="1.0" encoding="utf-8"?>
<!-- Generator: Adobe Illustrator 25.1.0, SVG Export Plug-In . SVG Version: 6.00 Build 0)  -->
<svg version="1.1" id="Capa_1" xmlns="http://www.w3.org/2000/svg" xmlns:xlink="http://www.w3.org/1999/xlink" x="0px" y="0px"
	 viewBox="0 0 1984.25 1417.32" style="enable-background:new 0 0 1984.25 1417.32;" xml:space="preserve">
<style type="text/css">
	.st0{clip-path:url(#SVGID_2_);fill:#005FA8;}
	.st1{clip-path:url(#SVGID_2_);fill:#50BAEB;}
	.st2{clip-path:url(#SVGID_2_);fill:#BDC0E2;}
	.st3{clip-path:url(#SVGID_2_);fill:#4BBECF;}
	.st4{clip-path:url(#SVGID_2_);fill-rule:evenodd;clip-rule:evenodd;fill:#009C90;}
	.st5{clip-path:url(#SVGID_2_);fill:#318C2C;}
	.st6{clip-path:url(#SVGID_4_);fill:#E6007E;}
	.st7{clip-path:url(#SVGID_4_);fill:#F193BD;}
	.st8{clip-path:url(#SVGID_4_);fill:none;stroke:#F193BD;stroke-width:1.781;stroke-miterlimit:10;}
	.st9{clip-path:url(#SVGID_4_);fill:#E94190;}
</style>
<g>
	<defs>
		<rect id="SVGID_1_" y="0" width="1984.25" height="1417.32"/>
	</defs>
	<clipPath id="SVGID_2_">
		<use xlink:href="#SVGID_1_"  style="overflow:visible;"/>
	</clipPath>
	<path class="st0" d="M3.74,584.03c0,0,443.83-73.41,576.45-76.81c98.18-2.52,178.94,18.92,250.53,40.35
		c70.39,21.07,131.9,42.15,192.38,40.46c152.98-4.27,159.15-82.32,329.5-81.01c156.19,1.2,208.79,69.7,292.06,67.62
		c45.99-1.15,227.12-88.51,347.33-88.51v931.19H3.74V584.03"/>
	<path class="st1" d="M1640.94,574.69c-75.98,0-127.59-58.28-260.12-66.68c26.45-10.62,54.18-18.12,83.58-18.12
		c5.12,0,10.28,0.23,15.5,0.7c58.66,5.36,110.8,52.92,173.32,83.14c-3.22,0.53-6.09,0.84-8.56,0.91
		C1643.41,574.68,1642.17,574.69,1640.94,574.69 M951.17,580.92c-29.22-5.91-59.35-14.85-91.17-24.49
		c39.05-6.04,44.02-12.65,72.16-16.25C937.74,555.34,944.89,566.4,951.17,580.92 M3.74,1417.32H0V526.51
		c0,0,140.1-15.09,286.55-15.09c27.46,0,55.14,0.53,82.17,1.79c25.96,1.21,51.16,3.4,75.69,6.21
		C262.98,541.15,3.74,584.03,3.74,584.03V1417.32"/>
	<path class="st2" d="M1640.94,574.69c-75.98,0-127.59-58.28-260.12-66.68c26.45-10.62,54.18-18.12,83.58-18.12
		c5.12,0,10.28,0.23,15.5,0.7c58.66,5.36,110.8,52.92,173.32,83.14c-3.22,0.53-6.09,0.84-8.56,0.91
		C1643.41,574.68,1642.17,574.69,1640.94,574.69 M951.17,580.92c-29.22-5.91-59.35-14.85-91.17-24.49
		c39.05-6.04,44.02-12.65,72.16-16.25C937.74,555.34,944.89,566.4,951.17,580.92 M3.74,1417.32H0V526.51
		c0,0,140.1-15.09,286.55-15.09c27.46,0,55.14,0.53,82.17,1.79c25.96,1.21,51.16,3.4,75.69,6.21
		C262.98,541.15,3.74,584.03,3.74,584.03V1417.32"/>
	<path class="st0" d="M844.4,442.97c8.83-8.15,25.04-7.84,42.45,12.23c15.03,17.32,17.7,31.29,11.72,37.69
		c-7.13,7.64-29.05-0.16-46.35-14.26C824.71,456.22,844.4,442.97,844.4,442.97"/>
	<path class="st0" d="M1325.58,395.73c7.98,5.76,17.73,18.18-1.77,38.13c-19.51,19.95-40.35,21.38-46.11,16.45
		c-5.76-4.92-1.77-28.42,15.96-47.49C1311.39,383.76,1325.58,395.73,1325.58,395.73"/>
	<path class="st3" d="M1143.06,428.36c5.6-4.91,18.85-1.85,22.41,8.34c3.56,10.19,2.55,24.45-11.21,22.92
		c-13.75-1.53-18.34-11.21-17.32-20.89C1137.97,429.05,1143.06,428.36,1143.06,428.36"/>
	<path class="st3" d="M851.7,394.58c8.66-4.14,16.34-2.55,17.85,7.64c1.51,10.19-1.53,13.75-8.92,15.28
		c-7.4,1.53-11.47-5.18-14.02-12.52C844.06,397.64,851.7,394.58,851.7,394.58"/>
	<path class="st4" d="M537.04,15.88c0,0-34.7,13.35-56.52,58.14c-21.77,44.81-27.43,174.16-27.43,174.16s23.79-19.7,38.43-55.89
		c14.58-36.25,14.33-99.81,57.53-139.47c15.65-14.34,3.58-31.47,3.58-31.47L537.04,15.88z"/>
	<path class="st4" d="M433.45-76.96c0,0-36.83,12.6-63.87,60.71c-26.97,48.09-50.86,192.22-50.86,192.22s28.39-21.38,46.71-60.2
		c18.36-38.88,61.69-131.16,72.07-149.6c10.43-18.51,6.46-38.27,6.46-38.27L433.45-76.96z"/>
	<path class="st4" d="M320.88-157.29c0,0-38.7,9.79-72.68,55.5c-33.91,45.66-78.71,186.7-78.71,186.7s31.47-19.13,55.4-56.28
		c23.97-37.16,80.74-125.39,93.79-142.93c13.06-17.59,21.68-44.65,21.68-44.65L320.88-157.29z"/>
	<path class="st4" d="M599.47,188.18c0.77,47.97,49.35,180.89,49.35,180.89s12.85-24.44,9.43-62.52
		c-3.48-38.09-11.91-128.46-12.22-146.91c-0.28-18.46-9.6-43.97-9.6-43.97S598.65,140.19,599.47,188.18"/>
	<path class="st4" d="M528.15,13.67c0,0,7.82-33.67,68.86-53.03c61.05-19.35,250.56-26.87,250.56-26.87s-25.6,18.59-75.27,32.11
		C722.62-20.6,633.21-15.14,581.2,18.85c-18.73,12.3-43.92,5.33-43.92,5.33L528.15,13.67z"/>
	<path class="st4" d="M650,103.97c0,0,13.67-13.02,81.27-16.68c67.59-3.67,259,18.71,259,18.71s-33.28,11.19-87.14,12.17
		c-53.91,0.94-171.05,5.02-196.77,0.9C673.9,113.9,650,103.97,650,103.97"/>
	<path class="st4" d="M584.09,92.7c0,0-38.58,11.71-54.65,57.86c-16.05,46.09,1.48,172.78,1.48,172.78s23.98-23.11,29.91-60.78
		c6.33-39.78-3.48-54.26,29.38-112.27c19.67-34.79,13.47-63.22,13.47-63.22L584.09,92.7z"/>
	<path class="st4" d="M479.75-34.64c0,0-22.86,7.33-44.64,52.15c-21.85,44.74-66.62,190.68-66.62,190.68s63.25-29.07,67.08-66.89
		c4.74-47,49.2-122.21,57.55-139.45c8.43-17.27,2.13-29.87,2.13-29.87L479.75-34.64z"/>
	<path class="st4" d="M376.75-119.05c0,0-48.38,5.55-75.43,53.59c-26.98,48.15-39.33,199.31-39.33,199.31s28.4-21.4,46.75-60.23
		c18.33-38.84,61.67-131.08,72.04-149.59c10.39-18.48,13.83-40.23,13.83-40.23L376.75-119.05z"/>
	<path class="st4" d="M708.22,20.52c63.55-15.39,248.49-0.36,248.49-0.36s-25.5,9.6-76.82,19.92
		c-51.35,10.32-173.29,34.76-197.7,40.68c-24.47,5.92-63.92-4.14-63.92-4.14S644.74,35.95,708.22,20.52"/>
	<path class="st4" d="M691.97,138.97c0,0,52.59-4.51,121.2,16.84c68.58,21.34,155.87,56,155.87,56l19.52,9.67
		c0,0-45.65-2.66-89.32-12.28c-43.67-9.61-100.42-23.46-142.14-38.24c-41.72-14.68-75.82-30.51-75.82-30.51L691.97,138.97z"/>
	<path class="st4" d="M681.6,152.05c0,0,29.38,45.79,44.91,81.25c15.53,35.45,21.79,55.41,20.7,81.65
		c-1.09,26.17-11.96,48.81-11.96,48.81s-10.85-11.2-22.02-36.56c-11.2-25.31-29.29-56.28-34.21-89.59
		c-4.99-33.32-1.94-66.55-3.59-75.48c-1.65-8.95-0.52-21.63-0.52-21.63L681.6,152.05z"/>
	<path class="st4" d="M771.46,226.06c37.41,24.03,77.77,45.54,112.85,71.46c3.87,2.87,9.03-0.75,6.03-3.8
		c-0.81-0.83-1.61-1.62-2.4-2.44l-0.02-0.14c-10.7-13.21-19.87-26.9-32.19-39.48c-13.68-13.85-30.12-26.44-46.22-38.95
		c-6.49-5.05-23.7-19.92-40.67-27.9c-22.13-12.21-48.14-21.97-70.95-28.86c-4.09-1.24-6.35,2.36-4.1,4.52
		c14.56,13.52,26.86,28.2,43.09,40.87c1.97,1.54,4.17,2.94,6.27,4.4C752.41,214.51,766.01,222.56,771.46,226.06"/>
	<path class="st5" d="M1305.68,90.81c0,0,78.29,78.42,149.54-13.69C1455.22,77.13,1429.4-7.42,1305.68,90.81 M1473.25,88.33
		C1413.03,187.24,1520,224,1520,224C1565.02,76.89,1473.25,88.33,1473.25,88.33 M1523.3-14.97c0,0-23.96-85.58-148.88,10.39
		C1374.42-4.58,1450.7,76.05,1523.3-14.97 M1584.91,134.15c47.61-146.9-43.86-137.44-43.86-137.44
		C1479.24,94.84,1584.91,134.15,1584.91,134.15"/>
</g>
<g>
	<defs>
		<rect id="SVGID_3_" y="0" width="1984.25" height="1417.32"/>
	</defs>
	<clipPath id="SVGID_4_">
		<use xlink:href="#SVGID_3_"  style="overflow:visible;"/>
	</clipPath>
	<path class="st6" d="M1228.99,214.44l58.05,79.74c0,0,4.96,44.99-23.76,46.84c-28.71,1.85-28.42-55.04-28.42-55.04
		s-82.46,11.69-85.05-26.84C1146.27,206.62,1228.99,214.44,1228.99,214.44"/>
	<path class="st6" d="M1247.47,205.03l56.3,72.98c0,0,33.62,8.1,44.04-13.2c14.23-29.09-43.42-35.87-43.42-35.87
		s12.93-34.54,9.14-58.9c-4.32-27.71-26.24-45.29-41.37-38.21C1243.72,145.12,1247.47,205.03,1247.47,205.03"/>
	<path class="st7" d="M1179.23,162.71c-2.19,2.33,3.17,11.38,5.31,4.78C1186.68,160.89,1182.89,158.81,1179.23,162.71"/>
	<path class="st8" d="M1179.23,162.71c-2.19,2.33,3.17,11.38,5.31,4.78C1186.68,160.89,1182.89,158.81,1179.23,162.71z"/>
	<path class="st7" d="M1211.87,144.06c-4.7-0.2-7.41,6.05-2.11,5.88C1215.06,149.77,1219.08,144.37,1211.87,144.06"/>
	<path class="st8" d="M1211.87,144.06c-4.7-0.2-7.41,6.05-2.11,5.88C1215.06,149.77,1219.08,144.37,1211.87,144.06z"/>
	<path class="st7" d="M1225.47,191.83c0,0,70.9,91.29,77.19,98.5c6.29,7.22,2.05,15.89-6.24,5.54c0,0-63.59-88.33-70.14-96.9
		C1219.73,190.4,1216.13,181.12,1225.47,191.83"/>
	<path class="st8" d="M1220.71,183.05c0,0-6.05-7.4-7.75-19.29c-1.71-11.88-1.36-14.47-1.36-14.47"/>
	<path class="st8" d="M1184.54,167.49c0,0,11.85,5.05,20.16,10.34c8.31,5.29,11.17,8.53,11.17,8.53"/>
	<path class="st7" d="M1226.69,182.75c2.58,3.38,1.94,8.22-1.45,10.8c-3.38,2.58-8.22,1.94-10.8-1.44
		c-2.58-3.38-1.94-8.22,1.45-10.8C1219.27,178.73,1224.11,179.37,1226.69,182.75"/>
	<path class="st9" d="M1261.32,322.02c-3.79,0-7.53-1.7-10.01-4.95c-4.22-5.53-3.16-13.42,2.36-17.64c2.28-1.74,4.97-2.59,7.63-2.59
		c3.79,0,7.53,1.7,10.01,4.95c4.22,5.52,3.16,13.42-2.36,17.64C1266.67,321.17,1263.98,322.02,1261.32,322.02"/>
	<path class="st9" d="M1328.02,271.06c-3.79,0-7.53-1.7-10.01-4.95c-4.22-5.52-3.16-13.42,2.36-17.64c2.28-1.74,4.97-2.58,7.63-2.58
		c3.79,0,7.53,1.7,10.01,4.95c4.22,5.52,3.16,13.42-2.36,17.64C1333.37,270.22,1330.69,271.06,1328.02,271.06"/>
</g>
</svg>
