<svg version="1.1" id="Capa_1" xmlns="http://www.w3.org/2000/svg" xmlns:xlink="http://www.w3.org/1999/xlink" x="0" y="0" viewBox="0 0 1984.25 1417.32" style="enable-background:new 0 0 1984.25 1417.32" xml:space="preserve"><style>.st2{clip-path:url(#SVGID_2_);fill-rule:evenodd;clip-rule:evenodd;fill:#009a82}.st4{fill:#e6007e}.st5{fill:#f29fc5}.st6{fill:none;stroke:#f29fc5;stroke-width:1.781;stroke-miterlimit:10}.st7{fill:#e94692}</style><defs><path id="SVGID_1_" d="M0 1.41h1984.25v1415.91H0z"/></defs><clipPath id="SVGID_2_"><use xlink:href="#SVGID_1_" style="overflow:visible"/></clipPath><path d="M146.14 1026.88c.13-.14-150.96-127.18-118.12-264.01 49.79-207.39 317.56-267.01 582.13-110.42 264.56 156.59 379.12 32.97 444.25-22.63 63.47-54.17 234.49-125.17 316.46 1.33 116.16 179.26 118.62 109.41 409.98-73.75 77.11-48.47 142.54 78.02 166.27 201.34 4.5 23.38 4.98 47.91 2.8 72.3-10.43 116.67-111.46 204.16-228.49 199.05l-1575.28-3.21" style="clip-path:url(#SVGID_2_);fill-rule:evenodd;clip-rule:evenodd;fill:#008f7c"/><path d="M1913.93 986.72c-20.97-71.47-81.31-124.36-154.89-135.92-75.26-11.82-211.58-26.75-308.22-26.75-219.59 0-300.61 70.43-411.58 87.92-142.88 22.52-215.66-18.77-296.38-85.58-112.11-92.78-231.35-103.05-339.13-.96-104.43 98.91-173.57 48.99-225.19-.93-38.81-37.54-67.71-75.08-94.26-49.35-55.27 53.59-22.28 136.86 17.36 234.67 19.6 48.37 76.23 104.51 128.42 104.47l1520.04-1.11c71.18-.05 164.56-55.28 163.83-126.46" style="clip-path:url(#SVGID_2_);fill-rule:evenodd;clip-rule:evenodd;fill:#00a75d"/><path class="st2" d="M1467.13 769.68s-26.42-35.35-20.57-109.09c5.91-73.74 80.09-259.5 80.09-259.5s11.61 39.16 3.89 97.32c-7.81 58.22-47.28 148.05-28.62 224.68 6.78 27.72-15.85 46.23-15.85 46.23l-18.94.36zM1317.91 845.68s-23.19-28.22-21.05-92.9c2.19-64.64 54.22-236.75 54.22-236.75s12.12 34.96 7.59 85.82c-4.53 50.95-15.45 171.78-16.27 196.58-.81 24.9-13.72 45.75-13.72 45.75l-10.77 1.5zM1190.21 895.03s-22.87-22.59-26.89-79.26c-3.99-56.6 25.68-211.47 25.68-211.47s13.76 29.46 14.45 74.29c.71 44.85 2.29 151.3 3.83 173.05 1.53 21.8-4.14 51.52-4.14 51.52l-12.93-8.13zM1600.93 590.82c23.35-51.91 123.71-178.81 123.71-178.81s-1.73 31.28-22.43 71.46c-20.74 40.17-70.09 135.42-79.09 155.38-8.97 19.99-28.23 44.34-28.23 44.34s-17.35-40.46 6.04-92.37M1514.67 790.65s-11.21 44.38 31.15 93.06 201.89 135.53 201.89 135.53-12.18-33.22-47.83-70.11c-35.67-36.89-109.91-80.21-136.67-143.08-9.61-22.72-35.06-24.52-35.06-24.52l-13.48 9.12zM1353.08 843.85s-4.69 45.79 39.22 101.05c43.9 55.25 203.98 167.05 203.98 167.05s-12.06-38.07-49.07-79.84c-37.08-41.72-125.07-140.81-141.96-162.05-16.9-21.23-41.72-31.57-41.72-31.57l-10.45 5.36M1206.45 900.82s-6.04 38.62 31.91 97.97c37.93 59.39 182.25 193.01 182.25 193.01s-8.06-39.09-40.58-84.33c-32.49-45.24-109.76-152.56-124.33-175.39-14.6-22.83-42.33-48.47-42.33-48.47l-6.92 17.21M1002.05 874.42s-3.6 35.81 25.18 99.9c40.34 89.66 188.8 188.21 188.8 188.21s-17.51-32.85-62.75-83.08c-37.45-41.54-91.21-146.8-104.27-170.59-13.03-23.73-38.9-51.11-38.9-51.11l-8.06 16.67M1604.76 705.43s4.85 21.52 61.24 53.7c56.37 32.19 233.48 83.26 233.48 83.26s-22.75-27.32-68.71-50.59c-46.01-23.25-144.93-76.23-169.32-81.74-30.77-6.98-56.69-4.63-56.69-4.63"/><path class="st2" d="M1545.78 702.31s-27.05-30.13-16.31-93.14c10.73-62.93 93.41-210.66 93.41-210.66s8.37 38.09-6.6 86.58c-15.75 51.24-31.94 64.92-34.51 149.32-1.57 50.6-22.09 82.82-22.09 82.82l-13.9-14.92zM1383.94 805.14s-15.82-18.32-10.71-82.05c5-63.66 44.19-260.46 44.19-260.46s39.08 61.46 22.22 109.27c-20.97 59.41-22.71 169.6-24.7 194.1-1.93 24.57-14.09 37.4-14.09 37.4l-16.91 1.74zM1251.88 871.79s-35.89-24.62-33.78-89.23c2.22-64.7 66.93-240.4 66.93-240.4s12.11 34.98 7.61 85.87c-4.53 50.89-15.43 171.68-16.28 196.55-.82 24.84-8.81 50.76-8.81 50.76l-15.67-3.55zM1610.51 831.32c46.63 44.86 214.24 102.27 214.24 102.27s-16.89-22.19-55.67-55.84c-38.81-33.67-131-113.51-148.91-130.75-17.96-17.27-57.37-21.13-57.37-21.13s1.15 60.57 47.71 105.45M1413.85 811.81s-12.6 30.52 29.82 79.2c29.32 33.75 34.95 25.52 203.28 179.13 0 0-5.36-72.1-47.81-101.2-52.6-36.19-120.3-124.42-136.65-143.07-16.25-18.78-33.9-22.27-33.9-22.27l-14.74 8.21zM1282.47 876.88s-11.1 42.96 32.82 98.2c43.9 55.3 210.47 169.92 210.47 169.92s-12.12-38.08-49.07-79.88c-37.09-41.79-125.1-140.78-141.92-162.04-16.95-21.23-40.8-38.97-40.8-38.97l-11.5 12.77M1121.72 906.41s-8.66 38.15 25.19 99.86c33.86 61.67 168.89 204.47 168.89 204.47s-5.4-39.64-34.79-86.85c-29.39-47.28-99.31-159.33-112.24-183.05-13.07-23.7-38.97-51.14-38.97-51.14l-8.08 16.71M1659.64 679.82s42.97 27.07 113.56 29.08c70.56 2.01 164.36-4.6 164.36-4.6l22-3.83s-40.81-15.45-83.63-21.58c-42.81-6.15-99.17-12.47-143.04-11.49-43.83.86-81.7 6.24-81.7 6.24l8.45 6.18zM1646.85 660.08s44.28-39.11 73.03-72.03c28.74-32.91 43.02-52.34 54.64-81.29 11.58-28.87 13.98-57.47 13.98-57.47s-13.64 8.23-34.25 31.75c-20.61 23.46-49.19 50.55-68.77 85-19.64 34.44-33.06 71.69-38.57 80.81-5.51 9.14-10.66 23.34-10.66 23.34l10.6-10.11zM1795.27 590.33c54.64-17.03 110.74-28.86 164.18-49.85 5.89-2.33 8.96 5.6 3.85 8.63-1.39.83-2.73 1.6-4.08 2.43-.12.08-.07.19-.11.19-19.73 14.26-38.15 29.98-59.17 42.51-23.25 13.73-48.58 24.23-73.5 34.75-10.05 4.26-37.65 17.74-60.56 21.14-31.03 7.1-64.53 8.65-92.83 7.53-5.09-.19-5.11-6.65-1.36-8.74 23.95-12.8 46.31-28.44 71.46-39.16 3.05-1.31 6.25-2.28 9.4-3.41 15.34-8.37 34.76-13.56 42.72-16.02M558.28 806.79s31.47-30.94 36.87-104.71c5.33-73.79-39.83-268.64-39.83-268.64s-17.41 36.95-18.6 95.61c-1.1 58.73 24.29 153.51-5.77 226.43-10.9 26.38 8.66 48.1 8.66 48.1l18.67 3.21zM694.25 904.53s27.2-24.38 34.88-88.64c7.63-64.22-17.71-242.24-17.71-242.24s-17.28 32.71-20.52 83.67c-3.25 51.05-10.76 172.13-13.72 196.77-2.98 24.73 6.63 47.3 6.63 47.3l10.44 3.14zM813 972.67s26.03-18.86 38.59-74.27c12.52-55.34 6.67-212.92 6.67-212.92s-18.07 27.03-25.54 71.24c-7.5 44.23-25.19 149.21-30.02 170.47-4.82 21.31-3.72 51.56-3.72 51.56l14.02-6.08M453.13 609.72c-15.22-54.85-95.18-195.49-95.18-195.49s-3.03 31.17 11.33 74.03c14.41 42.85 48.75 144.48 54.62 165.57 5.84 21.12 21.18 48.1 21.18 48.1s23.31-37.35 8.05-92.21M508.11 820.32s4.35 45.57-44.89 87.26c-49.25 41.69-220.1 103.36-220.1 103.36s17.08-30.99 57.9-62.05c40.85-31.06 120.8-62.62 156.78-120.72 12.94-21 38.37-18.92 38.37-18.92l11.94 11.07zM659.77 897.4s-2.31 45.97-54.09 93.94c-51.77 47.96-226.95 134.2-226.95 134.2s17.69-35.81 60.61-71.48c42.97-35.61 144.97-120.22 164.89-138.66 19.92-18.42 46.02-24.88 46.02-24.88l9.52 6.88zM796.07 975.94s.11 39.09-46.39 92c-46.49 52.96-209.41 163.16-209.41 163.16s13.89-37.42 52.9-77.2c38.97-39.79 131.62-134.16 149.48-154.51 17.89-20.35 49.19-41.5 49.19-41.5l4.23 18.05zM1002.11 980.82s-1.87 35.94-40.04 94.93c-53.47 82.51-215.15 157.41-215.15 157.41s22.29-29.81 74.61-72.61c43.32-35.38 112.41-131.28 128.92-152.81 16.47-21.48 46.2-44.62 46.2-44.62l5.46 17.7M431.98 722.42s-8.06 20.53-68.67 43.79c-60.6 23.28-243.4 46.9-243.4 46.9s26.63-23.56 75.58-39.59c49.01-16 154.81-53.38 179.75-55.13 31.47-2.22 56.74 4.03 56.74 4.03"/><path class="st2" d="M490.75 728.28s31.3-25.68 30.23-89.59c-1.07-63.83-60.4-222.38-60.4-222.38s-14.05 36.38-6.6 86.58c7.8 53.03 21.73 69.01 11.48 152.82-6.11 50.26 9.28 85.21 9.28 85.21l16.01-12.64zM635.13 854.46s18.41-15.72 23.03-79.48c4.71-63.68-4.2-264.15-4.2-264.15s-47.95 54.83-38.53 104.64c11.72 61.9-3.26 171.08-5.01 195.6-1.81 24.58 8.26 39.11 8.26 39.11l16.45 4.28zM755.57 940.36s39.21-18.89 46.92-83.07c7.62-64.29-29.71-247.77-29.71-247.77s-17.27 32.74-20.54 83.72c-3.24 50.99-10.77 172.04-13.7 196.75-2.95 24.68 1.01 51.5 1.01 51.5l16.02-1.13M407.21 845.99c-52.9 37.27-227.27 68.62-227.27 68.62s20.06-19.38 63.49-46.76c43.46-27.39 146.69-92.34 167.01-106.67 20.36-14.34 59.91-12.19 59.91-12.19s-10.32 59.69-63.14 97M604.56 856.51s7.83 32.08-41.48 73.76c-34.09 28.92-38.41 19.93-228.08 146.25 0 0 16.23-70.45 62.59-92.79 57.48-27.8 137.77-104.75 156.75-120.7 18.91-16.1 36.88-16.88 36.88-16.88l13.34 10.36zM724.56 940.75s4.46 44.14-47.33 92.09c-51.77 48-233.8 136.05-233.8 136.05s17.75-35.8 60.62-71.52c42.99-35.68 144.99-120.19 164.84-138.65 19.98-18.42 46.23-32.33 46.23-32.33l9.44 14.36zM878.97 994.31s2.78 39.02-40.04 94.89C796.12 1145.02 641 1265.71 641 1265.71s11.35-38.36 47.55-80.57c36.22-42.28 122.31-142.44 138.69-163.92 16.51-21.44 46.27-44.64 46.27-44.64l5.46 17.73zM381.61 688.79s-46.58 20.24-116.66 11.53c-70.05-8.71-161.77-29.46-161.77-29.46l-21.16-7.12s42.68-9.09 85.94-8.66c43.24.41 99.91 2.71 143.13 10.33 43.2 7.49 79.81 18.55 79.81 18.55l-9.29 4.83zM397.25 671.22s-37.85-45.37-61.27-82.26c-23.42-36.88-34.59-58.25-41.68-88.63-7.07-30.29-5.1-58.92-5.1-58.92s12.24 10.21 29.04 36.57c16.81 26.31 40.96 57.42 55.09 94.44 14.2 37.02 21.81 75.88 25.87 85.72 4.06 9.86 7 24.69 7 24.69l-8.95-11.61zM261.11 579.78c-51.43-25.11-105.09-45.31-154.73-74.16-5.47-3.19-9.7 4.17-5.11 7.95 1.25 1.03 2.46 1.99 3.67 3.02.11.09.04.2.08.21 17.34 17.09 33.16 35.42 52.05 50.99 20.9 17.1 44.35 31.31 67.38 45.49 9.29 5.73 34.53 23.24 56.65 30.08 29.59 11.72 62.48 18.34 90.62 21.51 5.06.58 6.06-5.8 2.67-8.43-21.74-16.28-41.47-35.13-64.7-49.54-2.82-1.75-5.84-3.21-8.78-4.79-13.89-10.62-32.3-18.69-39.8-22.33M515.71 55.34s-23.22 20.36-29.93 71.68c-6.67 51.33 17.12 189.25 17.12 189.25s13.63-25.12 16.8-66.05c3.11-40.98-10.85-108.2 13.05-157.94 8.66-17.99-4.13-33.95-4.13-33.95l-12.91-2.99zM424.62-18.35s-19.97 15.95-27.9 60.53c-7.89 44.56 2.72 169.92 2.72 169.92s13.38-22.16 17.66-57.63c4.3-35.53 14.38-119.82 17.42-136.91 3.07-17.16-2.74-33.31-2.74-33.31l-7.16-2.6zM344.38-70.68s-18.93 12.14-29.92 50.34c-10.95 38.16-13.15 148.47-13.15 148.47s13.7-18.16 20.68-48.74c7-30.6 23.54-103.22 27.76-117.89 4.22-14.7 4.65-35.87 4.65-35.87l-10.02 3.69zM581.31 197.2c8.44 38.92 58.7 140.36 58.7 140.36s3.36-21.66-4.97-52.17c-8.36-30.51-28.3-102.87-31.56-117.84-3.24-14.98-12.88-34.45-12.88-34.45s-17.77 25.17-9.29 64.1M551.3 47.9s-1.23-32 34.84-59.17C622.2-38.44 744-74.71 744-74.71s-13.16 20.97-42.92 41.04C671.31-13.6 614.2 5.26 586.75 44.41c-9.88 14.16-27.56 11.69-27.56 11.69l-7.89-8.2zM600.58 119.31s6.45-14.02 49.71-27.85c43.26-13.84 171.9-23.07 171.9-23.07s-19.54 15.39-54.38 24.64c-34.87 9.23-110.27 31.12-127.76 31.35-22.07.31-39.47-5.07-39.47-5.07"/><path class="st2" d="M559.75 112.88s-22.89 16.69-24.69 61.38c-1.8 44.64 33.33 157.75 33.33 157.75s11.26-24.86 8.06-60.22c-3.33-37.36-12.43-49.07-1.93-107.21 6.27-34.86-3.09-59.9-3.09-59.9l-11.68 8.2zM463.93 18.99s-13.49 10.24-19.25 54.61c-5.83 44.3-7.59 184.69-7.59 184.69s35.68-36.39 31.08-71.56c-5.72-43.71 9.09-119.38 11.29-136.44 2.25-17.1-4.21-27.65-4.21-27.65l-11.32-3.65zM383.22-45.82s-28.14 11.64-36.09 56.16c-7.88 44.61 10.88 174.26 10.88 174.26s13.37-22.18 17.68-57.67C379.98 91.44 390.07 7.18 393.1-9.96c3.04-17.12 1.35-36.02 1.35-36.02l-11.23.16zM622.8 33.98C661.24 10.05 784.3-4.89 784.3-4.89s-14.78 12.73-46.21 30.13C706.63 42.64 631.93 83.9 617.17 93.1c-14.8 9.21-42.34 6.13-42.34 6.13s9.59-41.29 47.97-65.25M485.36 18.77s-4.19-22.72 31.92-49.87c24.97-18.84 27.63-12.39 165.16-93.08 0 0-14.14 48.57-47.42 62.32C593.75-44.73 534.59 5.83 520.7 16.21c-13.85 10.49-26.44 10.32-26.44 10.32l-8.9-7.76zM634.42 144.81s33.34-12.29 81.95-3.4c48.59 8.88 111.83 27.03 111.83 27.03l14.5 5.82s-30.18 4.65-60.38 2.62c-30.19-2.01-69.68-5.87-99.57-12.92-29.88-6.95-55.01-16.14-55.01-16.14l6.68-3.01zM622.8 156.47s24.63 33.2 39.52 59.91c14.89 26.7 21.84 42.07 25.59 63.57 3.73 21.44 1.22 41.36 1.22 41.36s-8.14-7.62-18.83-26.7c-10.7-19.05-26.33-41.74-34.72-68.17-8.44-26.42-12.21-53.87-14.66-60.91-2.44-7.05-3.91-17.52-3.91-17.52l5.79 8.46zM714.25 225.77c34.92 19.59 71.6 35.84 105.13 57.97 3.7 2.45 6.95-2.53 3.89-5.35-.83-.77-1.64-1.49-2.44-2.25l-.05-.15c-11.43-12.63-21.76-26.06-34.33-37.69-13.92-12.78-29.73-23.64-45.26-34.46-6.26-4.38-23.19-17.61-38.38-23.27-20.2-9.37-42.91-15.3-62.45-18.64-3.51-.61-4.47 3.81-2.2 5.78 14.54 12.24 27.57 26.2 43.22 37.19 1.9 1.34 3.95 2.47 5.94 3.7 9.3 7.95 21.84 14.32 26.93 17.17"/><path d="M754.72 137.8s72.02-22.5 80.33-57.75-5.7-75.65-5.7-75.65-54.09 18.16-67.13 57.6c-13.03 39.44-7.5 75.8-7.5 75.8" style="clip-path:url(#SVGID_2_);fill-rule:evenodd;clip-rule:evenodd;fill:#00778f"/><path class="st2" d="M945.47 81.18S926.61 8.12 891.81-1.94c-34.8-10.06-75.84 1.9-75.84 1.9s15.44 54.93 54.17 69.92c38.74 14.99 75.33 11.3 75.33 11.3"/><path class="st4" d="m1228.99 161.44 58.05 79.74s4.96 44.99-23.76 46.84c-28.71 1.85-28.42-55.04-28.42-55.04s-82.46 11.69-85.05-26.84c-3.54-52.52 79.18-44.7 79.18-44.7M1247.47 152.03l56.3 72.98s33.62 8.1 44.04-13.2c14.23-29.09-43.42-35.87-43.42-35.87s12.93-34.54 9.14-58.9c-4.32-27.71-26.24-45.29-41.37-38.21-28.44 13.29-24.69 73.2-24.69 73.2"/><path class="st5" d="M1179.23 109.71c-2.19 2.33 3.17 11.38 5.31 4.78 2.14-6.6-1.65-8.68-5.31-4.78"/><path class="st6" d="M1179.23 109.71c-2.19 2.33 3.17 11.38 5.31 4.78 2.14-6.6-1.65-8.68-5.31-4.78z"/><path class="st5" d="M1211.87 91.06c-4.7-.2-7.41 6.05-2.11 5.88 5.3-.17 9.32-5.57 2.11-5.88"/><path class="st6" d="M1211.87 91.06c-4.7-.2-7.41 6.05-2.11 5.88 5.3-.17 9.32-5.57 2.11-5.88z"/><path class="st5" d="M1225.47 138.83s70.89 91.29 77.18 98.5c6.29 7.22 2.05 15.89-6.24 5.54 0 0-63.59-88.33-70.14-96.9-6.54-8.57-10.14-17.85-.8-7.14"/><path class="st6" d="M1220.71 130.05s-6.05-7.4-7.75-19.29c-1.71-11.88-1.36-14.47-1.36-14.47M1184.54 114.49s11.85 5.05 20.15 10.34c8.31 5.29 11.17 8.53 11.17 8.53"/><path class="st5" d="M1226.69 129.75c2.58 3.38 1.94 8.22-1.45 10.8-3.38 2.58-8.22 1.94-10.8-1.45-2.58-3.38-1.94-8.22 1.45-10.8 3.38-2.58 8.21-1.93 10.8 1.45"/><path class="st7" d="M1261.32 269.01c-3.79 0-7.53-1.7-10.01-4.95-4.22-5.52-3.16-13.42 2.36-17.64 2.28-1.74 4.97-2.59 7.63-2.59 3.79 0 7.53 1.7 10.01 4.95 4.22 5.52 3.16 13.42-2.36 17.64a12.472 12.472 0 0 1-7.63 2.59M1328.02 218.06c-3.79 0-7.53-1.7-10.01-4.95-4.22-5.52-3.16-13.42 2.36-17.64 2.28-1.74 4.97-2.59 7.63-2.59 3.79 0 7.53 1.7 10.01 4.95 4.22 5.52 3.16 13.42-2.36 17.64a12.493 12.493 0 0 1-7.63 2.59"/><defs><path id="SVGID_3_" d="M0 0h1984.25v1417.32H0z"/></defs><clipPath id="SVGID_4_"><use xlink:href="#SVGID_3_" style="overflow:visible"/></clipPath></svg>