<?xml version="1.0" encoding="utf-8"?>
<!-- Generator: Adobe Illustrator 25.1.0, SVG Export Plug-In . SVG Version: 6.00 Build 0)  -->
<svg version="1.1" id="Capa_1" xmlns="http://www.w3.org/2000/svg" xmlns:xlink="http://www.w3.org/1999/xlink" x="0px" y="0px"
	 viewBox="0 0 1984.25 1417.32" style="enable-background:new 0 0 1984.25 1417.32;" xml:space="preserve">
<style type="text/css">
	.st0{clip-path:url(#SVGID_2_);fill-rule:evenodd;clip-rule:evenodd;fill:#008F7C;}
	.st1{clip-path:url(#SVGID_2_);fill-rule:evenodd;clip-rule:evenodd;fill:#00A75D;}
	.st2{clip-path:url(#SVGID_2_);fill-rule:evenodd;clip-rule:evenodd;fill:#009A82;}
	.st3{clip-path:url(#SVGID_2_);fill-rule:evenodd;clip-rule:evenodd;fill:#00778F;}
	.st4{fill:#E6007E;}
	.st5{fill:#F29FC5;}
	.st6{fill:none;stroke:#F29FC5;stroke-width:1.781;stroke-miterlimit:10;}
	.st7{fill:#E94692;}
</style>
<g>
	<defs>
		<rect id="SVGID_1_" y="1.41" width="1984.25" height="1415.91"/>
	</defs>
	<clipPath id="SVGID_2_">
		<use xlink:href="#SVGID_1_"  style="overflow:visible;"/>
	</clipPath>
	<path class="st0" d="M146.14,1026.88c0.13-0.14-150.96-127.18-118.12-264.01c49.79-207.39,317.56-267.01,582.13-110.42
		c264.56,156.59,379.12,32.97,444.25-22.63c63.47-54.17,234.49-125.17,316.46,1.33c116.16,179.26,118.62,109.41,409.98-73.75
		c77.11-48.47,142.54,78.02,166.27,201.34c4.5,23.38,4.98,47.91,2.8,72.3c-10.43,116.67-111.46,204.16-228.49,199.05L146.14,1026.88
		"/>
	<path class="st1" d="M1913.93,986.72c-20.97-71.47-81.31-124.36-154.89-135.92c-75.26-11.82-211.58-26.75-308.22-26.75
		c-219.59,0-300.61,70.43-411.58,87.92c-142.88,22.52-215.66-18.77-296.38-85.58c-112.11-92.78-231.35-103.05-339.13-0.96
		c-104.43,98.91-173.57,48.99-225.19-0.93c-38.81-37.54-67.71-75.08-94.26-49.35C29.01,828.74,62,912.01,101.64,1009.82
		c19.6,48.37,76.23,104.51,128.42,104.47l1520.04-1.11C1821.28,1113.13,1914.66,1057.9,1913.93,986.72"/>
	<path class="st2" d="M1467.13,769.68c0,0-26.42-35.35-20.57-109.09c5.91-73.74,80.09-259.5,80.09-259.5s11.61,39.16,3.89,97.32
		c-7.81,58.22-47.28,148.05-28.62,224.68c6.78,27.72-15.85,46.23-15.85,46.23L1467.13,769.68z"/>
	<path class="st2" d="M1317.91,845.68c0,0-23.19-28.22-21.05-92.9c2.19-64.64,54.22-236.75,54.22-236.75s12.12,34.96,7.59,85.82
		c-4.53,50.95-15.45,171.78-16.27,196.58c-0.81,24.9-13.72,45.75-13.72,45.75L1317.91,845.68z"/>
	<path class="st2" d="M1190.21,895.03c0,0-22.87-22.59-26.89-79.26c-3.99-56.6,25.68-211.47,25.68-211.47s13.76,29.46,14.45,74.29
		c0.71,44.85,2.29,151.3,3.83,173.05c1.53,21.8-4.14,51.52-4.14,51.52L1190.21,895.03z"/>
	<path class="st2" d="M1600.93,590.82c23.35-51.91,123.71-178.81,123.71-178.81s-1.73,31.28-22.43,71.46
		c-20.74,40.17-70.09,135.42-79.09,155.38c-8.97,19.99-28.23,44.34-28.23,44.34S1577.54,642.73,1600.93,590.82"/>
	<path class="st2" d="M1514.67,790.65c0,0-11.21,44.38,31.15,93.06c42.36,48.68,201.89,135.53,201.89,135.53
		s-12.18-33.22-47.83-70.11c-35.67-36.89-109.91-80.21-136.67-143.08c-9.61-22.72-35.06-24.52-35.06-24.52L1514.67,790.65z"/>
	<path class="st2" d="M1353.08,843.85c0,0-4.69,45.79,39.22,101.05c43.9,55.25,203.98,167.05,203.98,167.05
		s-12.06-38.07-49.07-79.84c-37.08-41.72-125.07-140.81-141.96-162.05c-16.9-21.23-41.72-31.57-41.72-31.57L1353.08,843.85"/>
	<path class="st2" d="M1206.45,900.82c0,0-6.04,38.62,31.91,97.97c37.93,59.39,182.25,193.01,182.25,193.01s-8.06-39.09-40.58-84.33
		c-32.49-45.24-109.76-152.56-124.33-175.39c-14.6-22.83-42.33-48.47-42.33-48.47L1206.45,900.82"/>
	<path class="st2" d="M1002.05,874.42c0,0-3.6,35.81,25.18,99.9c40.34,89.66,188.8,188.21,188.8,188.21s-17.51-32.85-62.75-83.08
		c-37.45-41.54-91.21-146.8-104.27-170.59c-13.03-23.73-38.9-51.11-38.9-51.11L1002.05,874.42"/>
	<path class="st2" d="M1604.76,705.43c0,0,4.85,21.52,61.24,53.7c56.37,32.19,233.48,83.26,233.48,83.26s-22.75-27.32-68.71-50.59
		c-46.01-23.25-144.93-76.23-169.32-81.74C1630.68,703.08,1604.76,705.43,1604.76,705.43"/>
	<path class="st2" d="M1545.78,702.31c0,0-27.05-30.13-16.31-93.14c10.73-62.93,93.41-210.66,93.41-210.66s8.37,38.09-6.6,86.58
		c-15.75,51.24-31.94,64.92-34.51,149.32c-1.57,50.6-22.09,82.82-22.09,82.82L1545.78,702.31z"/>
	<path class="st2" d="M1383.94,805.14c0,0-15.82-18.32-10.71-82.05c5-63.66,44.19-260.46,44.19-260.46s39.08,61.46,22.22,109.27
		c-20.97,59.41-22.71,169.6-24.7,194.1c-1.93,24.57-14.09,37.4-14.09,37.4L1383.94,805.14z"/>
	<path class="st2" d="M1251.88,871.79c0,0-35.89-24.62-33.78-89.23c2.22-64.7,66.93-240.4,66.93-240.4s12.11,34.98,7.61,85.87
		c-4.53,50.89-15.43,171.68-16.28,196.55c-0.82,24.84-8.81,50.76-8.81,50.76L1251.88,871.79z"/>
	<path class="st2" d="M1610.51,831.32c46.63,44.86,214.24,102.27,214.24,102.27s-16.89-22.19-55.67-55.84
		c-38.81-33.67-131-113.51-148.91-130.75c-17.96-17.27-57.37-21.13-57.37-21.13S1563.95,786.44,1610.51,831.32"/>
	<path class="st2" d="M1413.85,811.81c0,0-12.6,30.52,29.82,79.2c29.32,33.75,34.95,25.52,203.28,179.13c0,0-5.36-72.1-47.81-101.2
		c-52.6-36.19-120.3-124.42-136.65-143.07c-16.25-18.78-33.9-22.27-33.9-22.27L1413.85,811.81z"/>
	<path class="st2" d="M1282.47,876.88c0,0-11.1,42.96,32.82,98.2c43.9,55.3,210.47,169.92,210.47,169.92s-12.12-38.08-49.07-79.88
		c-37.09-41.79-125.1-140.78-141.92-162.04c-16.95-21.23-40.8-38.97-40.8-38.97L1282.47,876.88"/>
	<path class="st2" d="M1121.72,906.41c0,0-8.66,38.15,25.19,99.86c33.86,61.67,168.89,204.47,168.89,204.47s-5.4-39.64-34.79-86.85
		c-29.39-47.28-99.31-159.33-112.24-183.05c-13.07-23.7-38.97-51.14-38.97-51.14L1121.72,906.41"/>
	<path class="st2" d="M1659.64,679.82c0,0,42.97,27.07,113.56,29.08c70.56,2.01,164.36-4.6,164.36-4.6l22-3.83
		c0,0-40.81-15.45-83.63-21.58c-42.81-6.15-99.17-12.47-143.04-11.49c-43.83,0.86-81.7,6.24-81.7,6.24L1659.64,679.82z"/>
	<path class="st2" d="M1646.85,660.08c0,0,44.28-39.11,73.03-72.03c28.74-32.91,43.02-52.34,54.64-81.29
		c11.58-28.87,13.98-57.47,13.98-57.47s-13.64,8.23-34.25,31.75c-20.61,23.46-49.19,50.55-68.77,85
		c-19.64,34.44-33.06,71.69-38.57,80.81c-5.51,9.14-10.66,23.34-10.66,23.34L1646.85,660.08z"/>
	<path class="st2" d="M1795.27,590.33c54.64-17.03,110.74-28.86,164.18-49.85c5.89-2.33,8.96,5.6,3.85,8.63
		c-1.39,0.83-2.73,1.6-4.08,2.43c-0.12,0.08-0.07,0.19-0.11,0.19c-19.73,14.26-38.15,29.98-59.17,42.51
		c-23.25,13.73-48.58,24.23-73.5,34.75c-10.05,4.26-37.65,17.74-60.56,21.14c-31.03,7.1-64.53,8.65-92.83,7.53
		c-5.09-0.19-5.11-6.65-1.36-8.74c23.95-12.8,46.31-28.44,71.46-39.16c3.05-1.31,6.25-2.28,9.4-3.41
		C1767.89,597.98,1787.31,592.79,1795.27,590.33"/>
	<path class="st2" d="M558.28,806.79c0,0,31.47-30.94,36.87-104.71c5.33-73.79-39.83-268.64-39.83-268.64s-17.41,36.95-18.6,95.61
		c-1.1,58.73,24.29,153.51-5.77,226.43c-10.9,26.38,8.66,48.1,8.66,48.1L558.28,806.79z"/>
	<path class="st2" d="M694.25,904.53c0,0,27.2-24.38,34.88-88.64c7.63-64.22-17.71-242.24-17.71-242.24s-17.28,32.71-20.52,83.67
		c-3.25,51.05-10.76,172.13-13.72,196.77c-2.98,24.73,6.63,47.3,6.63,47.3L694.25,904.53z"/>
	<path class="st2" d="M813,972.67c0,0,26.03-18.86,38.59-74.27c12.52-55.34,6.67-212.92,6.67-212.92s-18.07,27.03-25.54,71.24
		c-7.5,44.23-25.19,149.21-30.02,170.47c-4.82,21.31-3.72,51.56-3.72,51.56L813,972.67"/>
	<path class="st2" d="M453.13,609.72c-15.22-54.85-95.18-195.49-95.18-195.49s-3.03,31.17,11.33,74.03
		c14.41,42.85,48.75,144.48,54.62,165.57c5.84,21.12,21.18,48.1,21.18,48.1S468.39,664.58,453.13,609.72"/>
	<path class="st2" d="M508.11,820.32c0,0,4.35,45.57-44.89,87.26c-49.25,41.69-220.1,103.36-220.1,103.36s17.08-30.99,57.9-62.05
		c40.85-31.06,120.8-62.62,156.78-120.72c12.94-21,38.37-18.92,38.37-18.92L508.11,820.32z"/>
	<path class="st2" d="M659.77,897.4c0,0-2.31,45.97-54.09,93.94c-51.77,47.96-226.95,134.2-226.95,134.2s17.69-35.81,60.61-71.48
		c42.97-35.61,144.97-120.22,164.89-138.66c19.92-18.42,46.02-24.88,46.02-24.88L659.77,897.4z"/>
	<path class="st2" d="M796.07,975.94c0,0,0.11,39.09-46.39,92c-46.49,52.96-209.41,163.16-209.41,163.16s13.89-37.42,52.9-77.2
		c38.97-39.79,131.62-134.16,149.48-154.51c17.89-20.35,49.19-41.5,49.19-41.5L796.07,975.94z"/>
	<path class="st2" d="M1002.11,980.82c0,0-1.87,35.94-40.04,94.93c-53.47,82.51-215.15,157.41-215.15,157.41
		s22.29-29.81,74.61-72.61c43.32-35.38,112.41-131.28,128.92-152.81c16.47-21.48,46.2-44.62,46.2-44.62L1002.11,980.82"/>
	<path class="st2" d="M431.98,722.42c0,0-8.06,20.53-68.67,43.79c-60.6,23.28-243.4,46.9-243.4,46.9s26.63-23.56,75.58-39.59
		c49.01-16,154.81-53.38,179.75-55.13C406.71,716.17,431.98,722.42,431.98,722.42"/>
	<path class="st2" d="M490.75,728.28c0,0,31.3-25.68,30.23-89.59c-1.07-63.83-60.4-222.38-60.4-222.38s-14.05,36.38-6.6,86.58
		c7.8,53.03,21.73,69.01,11.48,152.82c-6.11,50.26,9.28,85.21,9.28,85.21L490.75,728.28z"/>
	<path class="st2" d="M635.13,854.46c0,0,18.41-15.72,23.03-79.48c4.71-63.68-4.2-264.15-4.2-264.15s-47.95,54.83-38.53,104.64
		c11.72,61.9-3.26,171.08-5.01,195.6c-1.81,24.58,8.26,39.11,8.26,39.11L635.13,854.46z"/>
	<path class="st2" d="M755.57,940.36c0,0,39.21-18.89,46.92-83.07c7.62-64.29-29.71-247.77-29.71-247.77s-17.27,32.74-20.54,83.72
		c-3.24,50.99-10.77,172.04-13.7,196.75c-2.95,24.68,1.01,51.5,1.01,51.5L755.57,940.36"/>
	<path class="st2" d="M407.21,845.99c-52.9,37.27-227.27,68.62-227.27,68.62s20.06-19.38,63.49-46.76
		c43.46-27.39,146.69-92.34,167.01-106.67c20.36-14.34,59.91-12.19,59.91-12.19S460.03,808.68,407.21,845.99"/>
	<path class="st2" d="M604.56,856.51c0,0,7.83,32.08-41.48,73.76c-34.09,28.92-38.41,19.93-228.08,146.25
		c0,0,16.23-70.45,62.59-92.79c57.48-27.8,137.77-104.75,156.75-120.7c18.91-16.1,36.88-16.88,36.88-16.88L604.56,856.51z"/>
	<path class="st2" d="M724.56,940.75c0,0,4.46,44.14-47.33,92.09c-51.77,48-233.8,136.05-233.8,136.05s17.75-35.8,60.62-71.52
		c42.99-35.68,144.99-120.19,164.84-138.65c19.98-18.42,46.23-32.33,46.23-32.33L724.56,940.75z"/>
	<path class="st2" d="M878.97,994.31c0,0,2.78,39.02-40.04,94.89C796.12,1145.02,641,1265.71,641,1265.71s11.35-38.36,47.55-80.57
		c36.22-42.28,122.31-142.44,138.69-163.92c16.51-21.44,46.27-44.64,46.27-44.64L878.97,994.31z"/>
	<path class="st2" d="M381.61,688.79c0,0-46.58,20.24-116.66,11.53c-70.05-8.71-161.77-29.46-161.77-29.46l-21.16-7.12
		c0,0,42.68-9.09,85.94-8.66c43.24,0.41,99.91,2.71,143.13,10.33c43.2,7.49,79.81,18.55,79.81,18.55L381.61,688.79z"/>
	<path class="st2" d="M397.25,671.22c0,0-37.85-45.37-61.27-82.26c-23.42-36.88-34.59-58.25-41.68-88.63
		c-7.07-30.29-5.1-58.92-5.1-58.92s12.24,10.21,29.04,36.57c16.81,26.31,40.96,57.42,55.09,94.44
		c14.2,37.02,21.81,75.88,25.87,85.72c4.06,9.86,7,24.69,7,24.69L397.25,671.22z"/>
	<path class="st2" d="M261.11,579.78c-51.43-25.11-105.09-45.31-154.73-74.16c-5.47-3.19-9.7,4.17-5.11,7.95
		c1.25,1.03,2.46,1.99,3.67,3.02c0.11,0.09,0.04,0.2,0.08,0.21c17.34,17.09,33.16,35.42,52.05,50.99
		c20.9,17.1,44.35,31.31,67.38,45.49c9.29,5.73,34.53,23.24,56.65,30.08c29.59,11.72,62.48,18.34,90.62,21.51
		c5.06,0.58,6.06-5.8,2.67-8.43c-21.74-16.28-41.47-35.13-64.7-49.54c-2.82-1.75-5.84-3.21-8.78-4.79
		C287.02,591.49,268.61,583.42,261.11,579.78"/>
	<path class="st2" d="M515.71,55.34c0,0-23.22,20.36-29.93,71.68c-6.67,51.33,17.12,189.25,17.12,189.25s13.63-25.12,16.8-66.05
		c3.11-40.98-10.85-108.2,13.05-157.94c8.66-17.99-4.13-33.95-4.13-33.95L515.71,55.34z"/>
	<path class="st2" d="M424.62-18.35c0,0-19.97,15.95-27.9,60.53c-7.89,44.56,2.72,169.92,2.72,169.92s13.38-22.16,17.66-57.63
		c4.3-35.53,14.38-119.82,17.42-136.91c3.07-17.16-2.74-33.31-2.74-33.31L424.62-18.35z"/>
	<path class="st2" d="M344.38-70.68c0,0-18.93,12.14-29.92,50.34c-10.95,38.16-13.15,148.47-13.15,148.47s13.7-18.16,20.68-48.74
		c7-30.6,23.54-103.22,27.76-117.89c4.22-14.7,4.65-35.87,4.65-35.87L344.38-70.68z"/>
	<path class="st2" d="M581.31,197.2c8.44,38.92,58.7,140.36,58.7,140.36s3.36-21.66-4.97-52.17
		c-8.36-30.51-28.3-102.87-31.56-117.84c-3.24-14.98-12.88-34.45-12.88-34.45S572.83,158.27,581.31,197.2"/>
	<path class="st2" d="M551.3,47.9c0,0-1.23-32,34.84-59.17C622.2-38.44,744-74.71,744-74.71s-13.16,20.97-42.92,41.04
		c-29.77,20.07-86.88,38.93-114.33,78.08c-9.88,14.16-27.56,11.69-27.56,11.69L551.3,47.9z"/>
	<path class="st2" d="M600.58,119.31c0,0,6.45-14.02,49.71-27.85c43.26-13.84,171.9-23.07,171.9-23.07s-19.54,15.39-54.38,24.64
		c-34.87,9.23-110.27,31.12-127.76,31.35C617.98,124.69,600.58,119.31,600.58,119.31"/>
	<path class="st2" d="M559.75,112.88c0,0-22.89,16.69-24.69,61.38c-1.8,44.64,33.33,157.75,33.33,157.75s11.26-24.86,8.06-60.22
		c-3.33-37.36-12.43-49.07-1.93-107.21c6.27-34.86-3.09-59.9-3.09-59.9L559.75,112.88z"/>
	<path class="st2" d="M463.93,18.99c0,0-13.49,10.24-19.25,54.61c-5.83,44.3-7.59,184.69-7.59,184.69s35.68-36.39,31.08-71.56
		c-5.72-43.71,9.09-119.38,11.29-136.44c2.25-17.1-4.21-27.65-4.21-27.65L463.93,18.99z"/>
	<path class="st2" d="M383.22-45.82c0,0-28.14,11.64-36.09,56.16c-7.88,44.61,10.88,174.26,10.88,174.26s13.37-22.18,17.68-57.67
		c4.29-35.49,14.38-119.75,17.41-136.89c3.04-17.12,1.35-36.02,1.35-36.02L383.22-45.82z"/>
	<path class="st2" d="M622.8,33.98C661.24,10.05,784.3-4.89,784.3-4.89s-14.78,12.73-46.21,30.13
		C706.63,42.64,631.93,83.9,617.17,93.1c-14.8,9.21-42.34,6.13-42.34,6.13S584.42,57.94,622.8,33.98"/>
	<path class="st2" d="M485.36,18.77c0,0-4.19-22.72,31.92-49.87c24.97-18.84,27.63-12.39,165.16-93.08c0,0-14.14,48.57-47.42,62.32
		C593.75-44.73,534.59,5.83,520.7,16.21c-13.85,10.49-26.44,10.32-26.44,10.32L485.36,18.77z"/>
	<path class="st2" d="M634.42,144.81c0,0,33.34-12.29,81.95-3.4c48.59,8.88,111.83,27.03,111.83,27.03l14.5,5.82
		c0,0-30.18,4.65-60.38,2.62c-30.19-2.01-69.68-5.87-99.57-12.92c-29.88-6.95-55.01-16.14-55.01-16.14L634.42,144.81z"/>
	<path class="st2" d="M622.8,156.47c0,0,24.63,33.2,39.52,59.91c14.89,26.7,21.84,42.07,25.59,63.57
		c3.73,21.44,1.22,41.36,1.22,41.36s-8.14-7.62-18.83-26.7c-10.7-19.05-26.33-41.74-34.72-68.17
		c-8.44-26.42-12.21-53.87-14.66-60.91c-2.44-7.05-3.91-17.52-3.91-17.52L622.8,156.47z"/>
	<path class="st2" d="M714.25,225.77c34.92,19.59,71.6,35.84,105.13,57.97c3.7,2.45,6.95-2.53,3.89-5.35
		c-0.83-0.77-1.64-1.49-2.44-2.25l-0.05-0.15c-11.43-12.63-21.76-26.06-34.33-37.69c-13.92-12.78-29.73-23.64-45.26-34.46
		c-6.26-4.38-23.19-17.61-38.38-23.27c-20.2-9.37-42.91-15.3-62.45-18.64c-3.51-0.61-4.47,3.81-2.2,5.78
		c14.54,12.24,27.57,26.2,43.22,37.19c1.9,1.34,3.95,2.47,5.94,3.7C696.62,216.55,709.16,222.92,714.25,225.77"/>
	<path class="st3" d="M754.72,137.8c0,0,72.02-22.5,80.33-57.75s-5.7-75.65-5.7-75.65S775.26,22.56,762.22,62
		C749.19,101.44,754.72,137.8,754.72,137.8"/>
	<path class="st2" d="M945.47,81.18c0,0-18.86-73.06-53.66-83.12c-34.8-10.06-75.84,1.9-75.84,1.9s15.44,54.93,54.17,69.92
		C908.88,84.87,945.47,81.18,945.47,81.18"/>
</g>
<g>
	<path class="st4" d="M1228.99,161.44l58.05,79.74c0,0,4.96,44.99-23.76,46.84c-28.71,1.85-28.42-55.04-28.42-55.04
		s-82.46,11.69-85.05-26.84C1146.27,153.62,1228.99,161.44,1228.99,161.44"/>
	<path class="st4" d="M1247.47,152.03l56.3,72.98c0,0,33.62,8.1,44.04-13.2c14.23-29.09-43.42-35.87-43.42-35.87
		s12.93-34.54,9.14-58.9c-4.32-27.71-26.24-45.29-41.37-38.21C1243.72,92.12,1247.47,152.03,1247.47,152.03"/>
	<path class="st5" d="M1179.23,109.71c-2.19,2.33,3.17,11.38,5.31,4.78C1186.68,107.89,1182.89,105.81,1179.23,109.71"/>
	<path class="st6" d="M1179.23,109.71c-2.19,2.33,3.17,11.38,5.31,4.78C1186.68,107.89,1182.89,105.81,1179.23,109.71z"/>
	<path class="st5" d="M1211.87,91.06c-4.7-0.2-7.41,6.05-2.11,5.88C1215.06,96.77,1219.08,91.37,1211.87,91.06"/>
	<path class="st6" d="M1211.87,91.06c-4.7-0.2-7.41,6.05-2.11,5.88C1215.06,96.77,1219.08,91.37,1211.87,91.06z"/>
	<path class="st5" d="M1225.47,138.83c0,0,70.89,91.29,77.18,98.5c6.29,7.22,2.05,15.89-6.24,5.54c0,0-63.59-88.33-70.14-96.9
		C1219.73,137.4,1216.13,128.12,1225.47,138.83"/>
	<path class="st6" d="M1220.71,130.05c0,0-6.05-7.4-7.75-19.29c-1.71-11.88-1.36-14.47-1.36-14.47"/>
	<path class="st6" d="M1184.54,114.49c0,0,11.85,5.05,20.15,10.34c8.31,5.29,11.17,8.53,11.17,8.53"/>
	<path class="st5" d="M1226.69,129.75c2.58,3.38,1.94,8.22-1.45,10.8c-3.38,2.58-8.22,1.94-10.8-1.45
		c-2.58-3.38-1.94-8.22,1.45-10.8C1219.27,125.72,1224.1,126.37,1226.69,129.75"/>
	<path class="st7" d="M1261.32,269.01c-3.79,0-7.53-1.7-10.01-4.95c-4.22-5.52-3.16-13.42,2.36-17.64c2.28-1.74,4.97-2.59,7.63-2.59
		c3.79,0,7.53,1.7,10.01,4.95c4.22,5.52,3.16,13.42-2.36,17.64C1266.67,268.17,1263.99,269.01,1261.32,269.01"/>
	<path class="st7" d="M1328.02,218.06c-3.79,0-7.53-1.7-10.01-4.95c-4.22-5.52-3.16-13.42,2.36-17.64c2.28-1.74,4.97-2.59,7.63-2.59
		c3.79,0,7.53,1.7,10.01,4.95c4.22,5.52,3.16,13.42-2.36,17.64C1333.37,217.22,1330.68,218.06,1328.02,218.06"/>
</g>
<g>
	<defs>
		<rect id="SVGID_3_" y="0" width="1984.25" height="1417.32"/>
	</defs>
	<clipPath id="SVGID_4_">
		<use xlink:href="#SVGID_3_"  style="overflow:visible;"/>
	</clipPath>
</g>
</svg>
