<?xml version="1.0" encoding="utf-8"?>
<!-- Generator: Adobe Illustrator 25.1.0, SVG Export Plug-In . SVG Version: 6.00 Build 0)  -->
<svg version="1.1" id="Capa_1" xmlns="http://www.w3.org/2000/svg" xmlns:xlink="http://www.w3.org/1999/xlink" x="0px" y="0px"
	 viewBox="0 0 1984.25 1417.32" style="enable-background:new 0 0 1984.25 1417.32;" xml:space="preserve">
<style type="text/css">
	.st0{clip-path:url(#SVGID_2_);fill:#E6007E;}
	.st1{clip-path:url(#SVGID_2_);fill:#EA90B0;}
	.st2{clip-path:url(#SVGID_2_);fill:none;stroke:#EA90B0;stroke-width:1.781;stroke-miterlimit:10;}
	.st3{clip-path:url(#SVGID_2_);fill:#E7418D;}
	.st4{clip-path:url(#SVGID_4_);fill-rule:evenodd;clip-rule:evenodd;fill:#76B82A;}
	.st5{clip-path:url(#SVGID_4_);fill-rule:evenodd;clip-rule:evenodd;fill:#009982;}
	.st6{clip-path:url(#SVGID_4_);fill:#00A754;}
	.st7{clip-path:url(#SVGID_4_);fill:#009870;}
	.st8{clip-path:url(#SVGID_4_);fill:#009746;}
	.st9{clip-path:url(#SVGID_4_);fill-rule:evenodd;clip-rule:evenodd;fill:#007E94;}
	.st10{clip-path:url(#SVGID_4_);fill-rule:evenodd;clip-rule:evenodd;fill:#00B2BB;}
	.st11{clip-path:url(#SVGID_4_);fill-rule:evenodd;clip-rule:evenodd;fill:#00A255;}
	.st12{clip-path:url(#SVGID_8_);fill:url(#SVGID_9_);}
</style>
<g>
	<defs>
		<rect id="SVGID_1_" y="0" width="1984.25" height="1417.32"/>
	</defs>
	<clipPath id="SVGID_2_">
		<use xlink:href="#SVGID_1_"  style="overflow:visible;"/>
	</clipPath>
	<path class="st0" d="M1142.25,169.6l58.05,79.75c0,0,4.96,44.99-23.76,46.83c-28.71,1.85-28.42-55.04-28.42-55.04
		s-82.46,11.69-85.05-26.84C1059.53,161.78,1142.25,169.6,1142.25,169.6"/>
	<path class="st0" d="M1160.73,160.2l56.3,72.98c0,0,33.62,8.1,44.04-13.2c14.23-29.09-43.42-35.87-43.42-35.87
		s12.93-34.54,9.14-58.9c-4.32-27.71-26.24-45.29-41.37-38.21C1156.99,100.29,1160.73,160.2,1160.73,160.2"/>
	<path class="st1" d="M1092.5,117.87c-2.19,2.33,3.17,11.38,5.31,4.78C1099.95,116.05,1096.15,113.98,1092.5,117.87"/>
	<path class="st2" d="M1092.5,117.87c-2.19,2.33,3.17,11.38,5.31,4.78C1099.95,116.05,1096.15,113.98,1092.5,117.87z"/>
	<path class="st1" d="M1125.13,99.23c-4.7-0.2-7.41,6.05-2.11,5.88C1128.33,104.93,1132.35,99.53,1125.13,99.23"/>
	<path class="st2" d="M1125.13,99.23c-4.7-0.2-7.41,6.05-2.11,5.88C1128.33,104.93,1132.35,99.53,1125.13,99.23z"/>
	<path class="st1" d="M1138.74,146.99c0,0,70.89,91.29,77.18,98.5c6.29,7.22,2.05,15.89-6.24,5.54c0,0-63.59-88.33-70.14-96.9
		C1133,145.56,1129.4,136.28,1138.74,146.99"/>
	<path class="st2" d="M1133.98,138.22c0,0-6.05-7.4-7.75-19.29c-1.71-11.88-1.36-14.47-1.36-14.47"/>
	<path class="st2" d="M1097.81,122.65c0,0,11.85,5.05,20.15,10.34c8.31,5.29,11.17,8.53,11.17,8.53"/>
	<path class="st1" d="M1139.96,137.92c2.58,3.38,1.94,8.22-1.45,10.8c-3.38,2.58-8.22,1.94-10.8-1.45
		c-2.58-3.38-1.94-8.22,1.45-10.8C1132.54,133.89,1137.37,134.54,1139.96,137.92"/>
	<path class="st3" d="M1174.59,277.18c-3.79,0-7.54-1.7-10.01-4.95c-4.22-5.52-3.16-13.42,2.36-17.64c2.28-1.74,4.97-2.58,7.63-2.58
		c3.79,0,7.53,1.7,10.01,4.95c4.22,5.52,3.16,13.42-2.36,17.64C1179.94,276.33,1177.25,277.18,1174.59,277.18"/>
	<path class="st3" d="M1241.29,226.23c-3.79,0-7.54-1.7-10.01-4.95c-4.22-5.52-3.16-13.42,2.36-17.64c2.28-1.74,4.97-2.58,7.63-2.58
		c3.79,0,7.54,1.7,10.01,4.95c4.22,5.52,3.16,13.42-2.36,17.64C1246.64,225.38,1243.95,226.23,1241.29,226.23"/>
</g>
<g>
	<defs>
		<rect id="SVGID_3_" y="1.41" width="1984.25" height="954.67"/>
	</defs>
	<clipPath id="SVGID_4_">
		<use xlink:href="#SVGID_3_"  style="overflow:visible;"/>
	</clipPath>
	<path class="st4" d="M460.75,538.19c0,0,18.41,7.67,50.46-2.89c32.04-10.6,106.56-63.13,106.56-63.13s-18.56-0.8-43.51,8.89
		c-24.97,9.74-60.63,36.71-96.52,36.91c-12.99,0.06-18.82,11.94-18.82,11.94L460.75,538.19z"/>
	<path class="st4" d="M442.67,611.51c0,0,14.92,7.04,43.34-0.93c28.4-7.98,99.19-49.38,99.19-49.38s-16.75-1.48-38.8,6.02
		c-22.09,7.51-74.46,25.42-85.36,28.47c-10.94,3.06-18.83,10.96-18.83,10.96L442.67,611.51z"/>
	<path class="st4" d="M434.16,672.54c0,0,12.39,7.51,37.91,3.1c25.48-4.41,90.98-34.19,90.98-34.19s-14.48-2.8-34.41,1.78
		c-19.94,4.57-67.25,15.46-77.04,17.15c-9.81,1.7-22.39,7.41-22.39,7.41L434.16,672.54z"/>
	<path class="st4" d="M525.99,460.41c20.55-15.82,66.27-73.38,66.27-73.38s-13.67,4.16-29.3,17.55
		c-15.62,13.41-52.65,45.28-60.55,51.37c-7.91,6.09-16.69,17.13-16.69,17.13S505.44,476.26,525.99,460.41"/>
	<path class="st4" d="M446.5,519.75c0,0-18.48,9.71-44.47-3.46c-25.98-13.18-81.11-73.28-81.11-73.28s15.99,1.7,36.04,13.23
		c20.06,11.54,47,39.2,77.64,44.02c11.07,1.72,14.52,12.62,14.52,12.62L446.5,519.75z"/>
	<path class="st4" d="M439.81,595.98c0,0-19.79,7.02-48.85-6.11c-29.06-13.13-95.29-70.76-95.29-70.76s18.12,1.12,40.48,12.71
		c22.35,11.63,75.42,39.21,86.6,44.27c11.17,5.06,18.34,14.75,18.34,14.75L439.81,595.98z"/>
	<path class="st4" d="M429.89,666.1c0,0-16.47,6.83-46.72-3.26c-30.26-10.08-104.52-58.47-104.52-58.47s18.16-0.74,41.58,8.52
		c23.43,9.24,79.03,31.26,90.66,35.13c11.64,3.88,25.89,13.18,25.89,13.18L429.89,666.1z"/>
	<path class="st4" d="M462.93,752.33c0,0-15.48,5.46-46.87-0.12c-43.92-7.84-103.07-61.84-103.07-61.84s16.38,4.06,43.35,18.32
		c22.31,11.81,74.54,23.8,86.44,26.91c11.87,3.1,26.7,11.4,26.7,11.4L462.93,752.33z"/>
	<path class="st4" d="M474.83,471.2c0,0-10.04,0.22-30.18-20.86c-20.14-21.07-61.26-92.73-61.26-92.73s14.48,6.95,29.58,24.45
		c15.1,17.53,48.9,54.89,53.89,64.93C473.16,459.65,474.83,471.2,474.83,471.2"/>
	<path class="st4" d="M482.37,496.58c0,0,16.17,8.52,42.95-3.02c26.75-11.52,83.54-63.63,83.54-63.63s-17.74,0.49-37.65,12.29
		c-21.05,12.44-25.42,20.98-62.52,31.28c-22.25,6.19-34.38,18.64-34.38,18.64L482.37,496.58z"/>
	<path class="st4" d="M453.73,578.31c0,0,9.77,4.9,37.46-4.25c27.67-9.1,110.73-47.59,110.73-47.59s-31.3-10.35-50.72,2.19
		c-24.12,15.6-72.74,28.34-83.38,31.87c-10.68,3.52-15.09,10.21-15.09,10.21L453.73,578.31z"/>
	<path class="st4" d="M438,643.14c0,0,14.65,12.97,43.04,5.03c28.43-8,99.48-55.32,99.48-55.32s-16.76-1.48-38.82,6.02
		c-22.06,7.51-74.42,25.4-85.35,28.47c-10.92,3.06-21.56,9.36-21.56,9.36L438,643.14z"/>
	<path class="st4" d="M418.47,482.39c-24.74-15.45-67.67-82.28-67.67-82.28s11.59,4.95,30.54,18.2
		c18.96,13.26,63.95,44.77,73.46,50.7c9.52,5.95,15.35,22.71,15.35,22.71S443.21,497.8,418.47,482.39"/>
	<path class="st4" d="M447.65,566c0,0-12.2,8.81-38.19-4.39c-18.01-9.11-14.95-12.46-100.56-69.14c0,0,32.49-5.5,49.81,9.84
		c21.52,19,67.67,38.92,77.63,44.02c10.01,5.04,13.4,12.36,13.4,12.36L447.65,566z"/>
	<path class="st4" d="M432.56,630.35c0,0-17.87,9.51-46.92-3.63c-29.07-13.12-97.23-73.28-97.23-73.28s18.13,1.14,40.5,12.71
		c22.38,11.62,75.41,39.23,86.58,44.25c11.17,5.08,21.52,13.55,21.52,13.55L432.56,630.35z"/>
	<path class="st4" d="M436.26,703.64c0,0-15.99,7.92-46.86-0.12c-30.85-8.05-108.2-51.39-108.2-51.39s18.12-1.95,42.1,5.72
		c24.01,7.67,80.94,25.97,92.79,29.02c11.86,3.12,26.72,11.43,26.72,11.43L436.26,703.64z"/>
	<path class="st4" d="M480.44,444.49c0,0-16.48-15.79-24.74-46.35c-8.26-30.54-15.13-72.15-15.13-72.15l-0.6-10.01
		c0,0,11.1,16.11,18.29,34.11c7.19,17.99,15.88,41.88,20.03,61.11c4.2,19.2,5.77,36.29,5.77,36.29L480.44,444.49z"/>
	<path class="st4" d="M490.52,447.92c0,0,12.69-23.56,24.27-39.67c11.57-16.11,18.69-24.44,30.29-32.66
		c11.58-8.19,23.99-12.34,23.99-12.34s-2.22,6.84-10.48,18.38c-8.24,11.53-17.25,26.94-30.46,39.22
		c-13.2,12.31-28.3,22.21-31.76,25.6c-3.47,3.39-9.22,7.19-9.22,7.19L490.52,447.92z"/>
	<path class="st4" d="M505.91,375.63c1.83-25.67,1.21-51.42,4.93-76.99c0.42-2.82-3.41-3.3-4.22-0.74
		c-0.22,0.69-0.42,1.36-0.65,2.04l-0.07,0.07c-4.26,10.15-9.29,19.89-12.65,30.42c-3.65,11.63-5.65,23.81-7.71,35.82
		c-0.84,4.84-3.93,18.34-3.04,28.7c0.1,14.3,2.91,29.08,6.36,41.29c0.61,2.2,3.48,1.51,4.01-0.36c3.17-11.83,7.76-23.28,9.88-35.41
		c0.26-1.47,0.36-2.97,0.53-4.47C505.38,388.4,505.64,379.37,505.91,375.63"/>
	<path class="st5" d="M1636.91,660.72c0,0-16.32-21.84-12.71-67.4c3.65-45.56,49.48-160.32,49.48-160.32s7.17,24.2,2.4,60.13
		c-4.83,35.97-29.21,91.47-17.68,138.81c4.19,17.13-9.79,28.56-9.79,28.56L1636.91,660.72z"/>
	<path class="st5" d="M1544.72,707.68c0,0-14.33-17.43-13-57.4c1.36-39.93,33.5-146.27,33.5-146.27s7.49,21.6,4.69,53.02
		c-2.8,31.48-9.55,106.13-10.05,121.45c-0.5,15.38-8.48,28.27-8.48,28.27L1544.72,707.68"/>
	<path class="st5" d="M1465.82,738.17c0,0-14.13-13.95-16.61-48.97c-2.47-34.97,15.86-130.65,15.86-130.65s8.5,18.2,8.93,45.89
		c0.44,27.71,1.41,93.48,2.37,106.92c0.95,13.47-2.56,31.83-2.56,31.83L1465.82,738.17"/>
	<path class="st5" d="M1719.57,550.22c14.43-32.07,76.43-110.47,76.43-110.47s-1.07,19.32-13.85,44.15
		c-12.82,24.82-43.3,83.67-48.86,96c-5.54,12.35-17.44,27.39-17.44,27.39S1705.12,582.29,1719.57,550.22"/>
	<path class="st5" d="M1666.28,673.68c0,0-6.93,27.42,19.24,57.5c26.17,30.07,124.73,83.73,124.73,83.73s-7.53-20.53-29.55-43.31
		c-22.04-22.79-67.91-49.56-84.44-88.4c-5.94-14.04-21.66-15.15-21.66-15.15L1666.28,673.68z"/>
	<path class="st5" d="M1566.44,706.55c0,0-2.9,28.29,24.23,62.43c27.12,34.14,126.03,103.21,126.03,103.21s-7.45-23.52-30.32-49.33
		c-22.91-25.77-77.27-86.99-87.71-100.12c-10.44-13.12-25.77-19.5-25.77-19.5L1566.44,706.55"/>
	<path class="st5" d="M1475.85,741.75c0,0-3.73,23.86,19.71,60.53c23.43,36.69,112.6,119.25,112.6,119.25s-4.98-24.15-25.07-52.1
		c-20.07-27.95-67.81-94.26-76.82-108.36c-9.02-14.1-26.15-29.95-26.15-29.95L1475.85,741.75"/>
	<path class="st5" d="M1349.57,725.44c0,0-2.23,22.12,15.56,61.72c24.92,55.4,116.65,116.28,116.65,116.28s-10.82-20.29-38.77-51.33
		c-23.14-25.66-56.35-90.7-64.42-105.39c-8.05-14.66-24.04-31.58-24.04-31.58L1349.57,725.44z"/>
	<path class="st5" d="M1721.94,621.03c0,0,3,13.29,37.83,33.17c34.83,19.89,144.25,51.44,144.25,51.44s-14.05-16.88-42.45-31.25
		c-28.43-14.36-89.54-47.1-104.61-50.5C1737.95,619.58,1721.94,621.03,1721.94,621.03"/>
	<path class="st5" d="M1685.5,619.1c0,0-16.71-18.62-10.07-57.54c6.63-38.88,57.71-130.15,57.71-130.15s5.17,23.53-4.07,53.49
		c-9.73,31.66-19.73,40.11-21.32,92.25c-0.97,31.26-13.65,51.17-13.65,51.17L1685.5,619.1z"/>
	<path class="st5" d="M1585.51,682.63c0,0-9.77-11.32-6.62-50.69c3.09-39.33,27.3-160.92,27.3-160.92s24.14,37.97,13.73,67.51
		c-12.95,36.7-14.03,104.78-15.26,119.92c-1.19,15.18-8.71,23.11-8.71,23.11L1585.51,682.63"/>
	<path class="st5" d="M1503.92,723.81c0,0-22.18-15.21-20.87-55.12c1.37-39.98,41.35-148.52,41.35-148.52s7.48,21.61,4.7,53.05
		c-2.8,31.44-9.54,106.07-10.06,121.43c-0.51,15.35-5.44,31.36-5.44,31.36L1503.92,723.81"/>
	<path class="st5" d="M1725.49,698.81c28.81,27.72,132.36,63.19,132.36,63.19s-10.43-13.71-34.39-34.5
		c-23.98-20.8-80.94-70.13-92-80.78c-11.09-10.67-35.45-13.05-35.45-13.05S1696.73,671.08,1725.49,698.81"/>
	<path class="st5" d="M1603.99,686.75c0,0-7.79,18.86,18.42,48.93c18.11,20.85,21.59,15.77,125.59,110.67
		c0,0-3.31-44.54-29.54-62.53c-32.5-22.36-74.33-76.87-84.42-88.39c-10.04-11.6-20.94-13.76-20.94-13.76L1603.99,686.75"/>
	<path class="st5" d="M1522.82,726.96c0,0-6.86,26.54,20.28,60.67c27.12,34.16,130.03,104.98,130.03,104.98s-7.49-23.53-30.32-49.35
		c-22.91-25.82-77.29-86.97-87.68-100.11c-10.48-13.12-25.21-24.08-25.21-24.08L1522.82,726.96"/>
	<path class="st5" d="M1423.5,745.2c0,0-5.35,23.57,15.56,61.7c20.92,38.1,104.34,126.33,104.34,126.33s-3.34-24.49-21.49-53.65
		c-18.16-29.21-61.35-98.44-69.34-113.09c-8.08-14.64-24.07-31.6-24.07-31.6L1423.5,745.2"/>
	<path class="st5" d="M1755.85,605.21c0,0,26.55,16.73,70.16,17.96c43.59,1.24,101.55-2.84,101.55-2.84l13.59-2.37
		c0,0-25.21-9.55-51.67-13.34c-26.45-3.8-61.27-7.7-88.38-7.1c-27.08,0.53-50.48,3.85-50.48,3.85L1755.85,605.21z"/>
	<path class="st5" d="M1747.94,593.01c0,0,27.36-24.16,45.12-44.5c17.76-20.33,26.58-32.33,33.76-50.22
		c7.15-17.83,8.64-35.5,8.64-35.5s-8.43,5.09-21.16,19.61c-12.73,14.49-30.39,31.23-42.49,52.52
		c-12.13,21.28-20.42,44.29-23.83,49.92c-3.4,5.64-6.59,14.42-6.59,14.42L1747.94,593.01z"/>
	<path class="st5" d="M1839.64,549.92c33.76-10.52,68.42-17.83,101.43-30.8c3.64-1.44,5.53,3.46,2.38,5.33
		c-0.86,0.51-1.69,0.99-2.52,1.5l-0.07,0.12c-12.19,8.81-23.57,18.52-36.56,26.26c-14.36,8.48-30.01,14.97-45.41,21.47
		c-6.21,2.63-23.26,10.96-37.41,13.06c-19.17,4.39-39.87,5.35-57.35,4.65c-3.14-0.12-3.16-4.11-0.84-5.4
		c14.8-7.91,28.61-17.57,44.15-24.2c1.89-0.81,3.86-1.41,5.81-2.1C1822.72,554.64,1834.72,551.44,1839.64,549.92"/>
	<path class="st6" d="M1267.89,1001.6c0,0,16.95-132.89,154.36-267.56c60.75-59.54,137.41-86.83,137.41-86.83l13.48,31.83
		l13.63-47.08c0,0,52.64-20.94,139.45-35.27c63.36-10.46,98.54-3.52,98.54-3.52s-47.9,139.78-133.38,241.78
		c-85.47,102-133.43,148.18-133.43,148.18l-24.9-26.03l-10.73,41.45c0,0-51.5,16.97-127.3,19.28
		C1319.23,1020.13,1267.89,1001.6,1267.89,1001.6"/>
	<path class="st7" d="M1792.4,610.46c-0.06,0.03-54.18,30.34-124.39,76.89c-70.22,46.56-156.52,109.31-221.05,174.44
		c-1.5,1.51-1.48,3.95,0.03,5.45c1.51,1.5,3.95,1.48,5.44-0.03c63.86-64.47,149.85-127.06,219.83-173.44
		c34.99-23.2,65.98-42.35,88.22-55.7c11.12-6.68,20.05-11.9,26.19-15.46c3.07-1.78,5.45-3.14,7.06-4.05c0.8-0.46,1.42-0.8,1.82-1.03
		c0.41-0.23,0.61-0.34,0.61-0.35c1.86-1.04,2.52-3.38,1.48-5.24C1796.6,610.08,1794.25,609.42,1792.4,610.46"/>
	<path class="st8" d="M1232.59,1044.8c0,0-39.79-210.75,37.8-373.78c54.43-114.37,113.34-162.1,113.34-162.1l33.44,11.93
		l-10.67-33.07c0,0,25.73-23.22,63.68-46.89c37.95-23.68,48.08-27.1,48.08-27.1l15,18.23l12.33-30.77c0,0,41.41-18.74,108.53-40.76
		c67.12-22.03,119.27-32.81,119.27-32.81s-91.47,180.67-118.45,235.73c-26.98,55.06-106.41,171.98-139.73,213.8
		c-33.33,41.82-30.17,33.7-30.17,33.7l-37.89-16.17l16.26,35.78c0,0-38.55,61.7-109.23,123.83
		C1283.48,1016.46,1232.59,1044.8,1232.59,1044.8"/>
	<path class="st7" d="M1736.25,351.24c-0.06,0.04-30.51,20.11-72.23,52.43c-41.72,32.33-94.71,76.89-139.91,126.01
		c-45.18,49.12-84.69,104.75-112.93,148.13c-28.24,43.38-45.21,74.5-45.24,74.56c-1.02,1.87-0.33,4.21,1.54,5.22
		c1.87,1.02,4.2,0.33,5.22-1.54c0,0,0.06-0.11,0.19-0.35c1.99-3.62,19.53-35.26,47.41-77.78c27.88-42.52,66.13-95.92,109.47-143.03
		c44.73-48.63,97.45-92.98,138.96-125.14c20.75-16.08,38.7-29.11,51.46-38.12c6.38-4.5,11.46-8,14.94-10.37
		c1.74-1.18,3.08-2.09,3.98-2.69c0.45-0.3,0.8-0.53,1.02-0.68c0.23-0.15,0.34-0.22,0.34-0.22c1.78-1.17,2.27-3.56,1.09-5.33
		C1740.41,350.56,1738.02,350.07,1736.25,351.24"/>
	<path class="st9" d="M1512.96,298.68c0,0-50.37,28.31-50.98,56.05c-0.61,27.73,16.31,55.76,16.31,55.76s37.63-22.22,41.11-53.83
		C1522.88,325.04,1512.96,298.68,1512.96,298.68"/>
	<path class="st5" d="M1379.07,371.45c0,0,25.76,51.73,53.42,53.72c27.67,2,56.51-13.49,56.51-13.49s-20.31-38.69-51.71-43.76
		C1405.9,362.86,1379.07,371.45,1379.07,371.45"/>
	<path class="st10" d="M367.53-91.05c0,0-233.44,50.75-209.01,147.23c25.36,100.19,161.43,88.61,157.27,68.81
		c0,0-2.11,63.22,53.06,82.37c57.75,20.04,114.37-35.5,114.37-35.5c-12.15,2.59,70.21,113.65,144.6,85.45
		c74.39-28.2,74.93-130.14,74.93-130.14s71,73.92,130.14,15.77c59.14-58.15-1.32-151.17-1.32-151.17L367.53-91.05z"/>
	<path class="st11" d="M300.65,731.86c0,0-74.9-170.23-6.6-186.97c76.73-18.79,135.12,168.3,135.04,168.32l4.76,2.85
		c0,0-6.54-14.39-8.49-32.03c-2.64-23.93-8.18-53.66-8.18-53.66s14.95,11.55,30.35,26.62c27.47,26.88,62.77,64.5,62.77,64.5
		s80.43-79.07,179.02-59.68s-69.08,385.11-69.08,385.11h-357.2c0,0-218.23-58.89-102.95-94.6
		c115.28-35.71,164.25-33.64,164.25-33.64s-215.81-39.22-261.17-88.02c-45.36-48.8,152.16-37.96,152.16-37.96
		S95.97,714.63,70.19,695.4c-22.55-16.83-33.06-53.27-21.49-75.45C112.93,496.73,300.65,731.86,300.65,731.86"/>
</g>
<g>
	<defs>
		<rect id="SVGID_5_" y="0" width="1984.25" height="1417.32"/>
	</defs>
	<clipPath id="SVGID_6_">
		<use xlink:href="#SVGID_5_"  style="overflow:visible;"/>
	</clipPath>
</g>
<g>
	<defs>
		<path id="SVGID_7_" d="M1765.06,939.68c-0.48-1.72-1.01-3.38-1.58-5c-0.01-0.02-0.02-0.04-0.02-0.06
			c-0.01-0.03-0.02-0.06-0.03-0.09c-0.02-0.04-0.03-0.09-0.05-0.13c0-0.01-0.01-0.02-0.01-0.02c0-0.01,0-0.01-0.01-0.02
			c-0.14-0.27-0.28-0.54-0.42-0.82C1764.38,937.17,1765.02,939.57,1765.06,939.68"/>
	</defs>
	<clipPath id="SVGID_8_">
		<use xlink:href="#SVGID_7_"  style="overflow:visible;"/>
	</clipPath>
	
		<linearGradient id="SVGID_9_" gradientUnits="userSpaceOnUse" x1="0" y1="1417.4735" x2="1" y2="1417.4735" gradientTransform="matrix(305.8867 368.5564 368.5564 -305.8867 -520952.625 434164.1875)">
		<stop  offset="0" style="stop-color:#9F847C"/>
		<stop  offset="4.796650e-05" style="stop-color:#9F847C"/>
		<stop  offset="1" style="stop-color:#C8A496"/>
	</linearGradient>
	<polygon class="st12" points="1764.19,932.49 1768.08,937.17 1763.8,940.72 1759.91,936.04 	"/>
</g>
<g>
	<defs>
		<rect id="SVGID_10_" y="0" width="1984.25" height="1417.32"/>
	</defs>
	<clipPath id="SVGID_11_">
		<use xlink:href="#SVGID_10_"  style="overflow:visible;"/>
	</clipPath>
</g>
</svg>
