<svg version="1.1" id="Capa_1" xmlns="http://www.w3.org/2000/svg" xmlns:xlink="http://www.w3.org/1999/xlink" x="0" y="0" viewBox="0 0 1984.25 1417.32" style="enable-background:new 0 0 1984.25 1417.32" xml:space="preserve"><style>.st2,.st3,.st5{clip-path:url(#SVGID_4_);fill:#00a754}.st3,.st5{fill:none;stroke:#009870;stroke-width:9.524;stroke-linecap:round;stroke-linejoin:round;stroke-miterlimit:10}.st5{stroke:#007739}.st7{clip-path:url(#SVGID_12_);fill:#e6007e}.st8{fill:#f192aa}.st10,.st8,.st9{clip-path:url(#SVGID_12_)}.st9{fill:none;stroke:#f192aa;stroke-width:1.781;stroke-miterlimit:10}.st10{fill:#e9418b}</style><defs><path id="SVGID_1_" d="M0 0h1984.25v1417.32H0z"/></defs><clipPath id="SVGID_2_"><use xlink:href="#SVGID_1_" style="overflow:visible"/></clipPath><path d="M97.12 727.21c77-38.96 346.33 124.33 346.33 124.33l-82.76-287.81 214.59 240.25c.04.35 417.89 120.97 678.78-41.96 659.87-412.09 604.01-227.63 604.01-227.63-72.8 96.92-332.73 253.76-305.8 291.44 8.6 12.03 70.5-2.27 143.14-16.56 117.19-23.06 262.34-46.13 256.85 41.33-7.95 126.67-421.22 199.12-421.22 199.12S899.28 1047 192.7 1047c-35.85 0-252.73-240.27-95.58-319.79" style="clip-path:url(#SVGID_2_);fill-rule:evenodd;clip-rule:evenodd;fill:#6fbc85"/><defs><path id="SVGID_3_" d="M0 1.41h1984.25v1415.91H0z"/></defs><clipPath id="SVGID_4_"><use xlink:href="#SVGID_3_" style="overflow:visible"/></clipPath><path d="M125.94-10.27c-6.22 1.26-143 15.95-132.41 90.41C4.11 154.6 144.08 66.78 144.08 66.78s-48.89 64.21-62.45 167.58c-13.56 103.37 63.01 175.16 90.56 94.37 27.55-80.79 33.01-219.31 33.01-219.31-.17.13 42.83 124.1 86.02 189.52 43.24 65.49 107.2-3.59 102.34-47.23-4.86-43.63-122.82-163.37-122.82-163.37s121.95 85.25 215.04 118.94c93.1 33.7 115.63-27.18 115.9-65.32C601.95 103.83 301.4 8.57 301.4 8.57c-.1.35 275.26 73.96 320.6 50.59 44.18-22.77 51.15-107.19-20.73-113.32-71.88-6.12-471.45 41.92-471.45 41.92" style="clip-path:url(#SVGID_4_);fill-rule:evenodd;clip-rule:evenodd;fill:#009664"/><path class="st2" d="M1124.49 1037.82s32.46-144.02 229.76-266.39c87.23-54.1 193.95-69.32 193.95-69.32l16.21 37.93 21.93-49.53s73.44-12.89 193.15-11.75c87.37.83 134.98 15.42 134.98 15.42s-75.27 145.59-199.27 241.91-192.8 138.13-192.8 138.13l-32.23-33.74-17.57 43.85s-71.61 8.71-175.41-3.59c-103.79-12.3-172.7-42.92-172.7-42.92"/><path class="st3" d="M1871.35 711.11s-304.09 91.84-488.7 210.36"/><path d="M1073.2 1078.8s-39.69-241.47 77.8-407.02c82.42-116.13 166.31-157.5 166.31-157.5l44.89 19.78-12.28-38.75s36.81-20.7 90.35-39.51c53.54-18.81 67.64-20.62 67.64-20.62l19.24 23.15 19.01-31.7s57.94-12.65 151.25-23.91c93.32-11.26 165.38-12.99 165.38-12.99s-137.69 182.38-178.44 238.13c-40.74 55.76-157.52 169.82-206.01 209.65-48.49 39.83-43.61 31.45-43.61 31.45l-50.68-25.37 19.73 42.86s-57.02 60.85-158.01 115.87c-101 55.04-172.57 76.48-172.57 76.48" style="clip-path:url(#SVGID_4_);fill:#009746"/><path class="st5" d="M1813.02 412.57s-171.72 64.97-301.52 155.71c-129.79 90.74-231.04 215.15-231.04 215.15"/><path d="M900.93 1110.29S870.56 965.82 675.06 840.6c-86.43-55.36-192.93-72.13-192.93-72.13l-16.76 37.69-21.21-49.84s-73.24-13.95-192.96-14.56c-87.37-.44-135.19 13.46-135.19 13.46S189.15 901.89 311.74 1000c122.59 98.12 190.78 140.91 190.78 140.91l32.71-33.27 16.93 44.1s71.47 9.75 175.44-1.04c103.98-10.8 173.33-40.41 173.33-40.41" style="clip-path:url(#SVGID_4_);fill:#009664"/><path class="st5" d="M158.88 772.77S461.6 869.02 644.47 990.2"/><path class="st2" d="M951.62 1152.01s43.19-240.87-71.88-408.1c-80.73-117.32-164-159.9-164-159.9l-45.17 19.13 12.84-38.57s-36.51-21.23-89.77-40.81c-53.26-19.59-67.33-21.6-67.33-21.6l-19.57 22.87-18.54-31.97s-57.75-13.49-150.89-26.11c-93.14-12.61-165.18-15.39-165.18-15.39s135.03 184.36 174.96 240.7c39.93 56.34 155.03 172.09 202.94 212.61 47.91 40.53 43.15 32.08 43.15 32.08l51.04-24.63-20.35 42.57s56.13 61.67 156.31 118.16c100.19 56.48 171.44 78.96 171.44 78.96"/><path class="st3" d="M221.55 475.11s170.76 67.46 299.22 160.07c128.46 92.62 227.89 218.48 227.89 218.48"/><defs><path id="SVGID_5_" d="M0 0h1984.25v1417.32H0z"/></defs><clipPath id="SVGID_6_"><use xlink:href="#SVGID_5_" style="overflow:visible"/></clipPath><defs><path id="SVGID_7_" d="M0 0h1984.25v1417.32H0z"/></defs><clipPath id="SVGID_8_"><use xlink:href="#SVGID_7_" style="overflow:visible"/></clipPath><defs><path id="SVGID_9_" d="M0 0h1984.25v1417.32H0z"/></defs><clipPath id="SVGID_10_"><use xlink:href="#SVGID_9_" style="overflow:visible"/></clipPath><defs><path id="SVGID_11_" d="M0 0h1984.25v1417.32H0z"/></defs><clipPath id="SVGID_12_"><use xlink:href="#SVGID_11_" style="overflow:visible"/></clipPath><path class="st7" d="m1228.99 161.44 58.05 79.74s4.96 44.99-23.76 46.84c-28.71 1.85-28.42-55.04-28.42-55.04s-82.46 11.69-85.05-26.84c-3.54-52.52 79.18-44.7 79.18-44.7M1247.47 152.03l56.3 72.98s33.62 8.1 44.04-13.2c14.23-29.09-43.42-35.87-43.42-35.87s12.93-34.54 9.14-58.9c-4.32-27.71-26.24-45.29-41.37-38.21-28.44 13.29-24.69 73.2-24.69 73.2"/><path class="st8" d="M1179.23 109.71c-2.19 2.33 3.17 11.38 5.31 4.78 2.14-6.6-1.65-8.68-5.31-4.78"/><path class="st9" d="M1179.23 109.71c-2.19 2.33 3.17 11.38 5.31 4.78 2.14-6.6-1.65-8.68-5.31-4.78z"/><path class="st8" d="M1211.87 91.06c-4.7-.2-7.41 6.05-2.11 5.88 5.3-.17 9.32-5.57 2.11-5.88"/><path class="st9" d="M1211.87 91.06c-4.7-.2-7.41 6.05-2.11 5.88 5.3-.17 9.32-5.57 2.11-5.88z"/><path class="st8" d="M1225.47 138.83s70.89 91.29 77.18 98.5c6.29 7.22 2.05 15.89-6.24 5.54 0 0-63.59-88.33-70.14-96.9-6.54-8.57-10.14-17.85-.8-7.14"/><path class="st9" d="M1220.71 130.05s-6.05-7.4-7.75-19.29c-1.71-11.88-1.36-14.47-1.36-14.47M1184.54 114.49s11.85 5.05 20.15 10.34c8.31 5.29 11.17 8.53 11.17 8.53"/><path class="st8" d="M1226.69 129.75c2.58 3.38 1.94 8.22-1.45 10.8-3.38 2.58-8.22 1.94-10.8-1.45-2.58-3.38-1.94-8.22 1.45-10.8 3.38-2.58 8.21-1.93 10.8 1.45"/><path class="st10" d="M1261.32 269.01c-3.79 0-7.53-1.7-10.01-4.95-4.22-5.52-3.16-13.42 2.36-17.64 2.28-1.74 4.97-2.59 7.63-2.59 3.79 0 7.53 1.7 10.01 4.95 4.22 5.52 3.16 13.42-2.36 17.64a12.472 12.472 0 0 1-7.63 2.59M1328.02 218.06c-3.79 0-7.53-1.7-10.01-4.95-4.22-5.52-3.16-13.42 2.36-17.64 2.28-1.74 4.97-2.59 7.63-2.59 3.79 0 7.53 1.7 10.01 4.95 4.22 5.52 3.16 13.42-2.36 17.64a12.493 12.493 0 0 1-7.63 2.59"/></svg>