<svg width="207" height="179" viewBox="0 0 207 179" fill="none" xmlns="http://www.w3.org/2000/svg">
<mask id="mask0_76_10" style="mask-type:alpha" maskUnits="userSpaceOnUse" x="6" y="-1" width="202" height="181">
<path d="M82.2373 41.5206C89.0745 37.8705 93.6578 31.2341 96.4237 24.063C100.979 12.252 111.104 0 123.763 0H187C198.046 0 207 8.9543 207 20V159C207 170.046 198.046 179 187 179H22.9754C11.1706 179 2.35531 168.493 8.85211 158.637C14.4195 150.19 23.8379 141.275 39.7046 136.557C52.4644 131.482 71.1315 118.334 61.4435 90.4227C48.2111 56.7448 70.8952 48.6714 82.2373 41.5206Z" fill="#C4C4C4" stroke="black"/>
</mask>
<g mask="url(#mask0_76_10)">
<rect x="0.952515" width="205.08" height="177.135" fill="#FFA654"/>
</g>
</svg>
