<svg width="207" height="179" viewBox="0 0 207 179" fill="none" xmlns="http://www.w3.org/2000/svg">
<mask id="mask0_76_10" style="mask-type:alpha" maskUnits="userSpaceOnUse" x="5" y="-1" width="202" height="181">
<path d="M81.2848 41.5206C88.122 37.8705 92.7053 31.2341 95.4712 24.063C100.027 12.252 110.152 0 122.811 0H186.047C197.093 0 206.047 8.9543 206.047 20V159C206.047 170.046 197.093 179 186.047 179H22.0229C10.2181 179 1.40279 168.493 7.8996 158.637C13.467 150.19 22.8854 141.275 38.7521 136.557C51.5119 131.482 70.179 118.334 60.491 90.4227C47.2586 56.7448 69.9427 48.6714 81.2848 41.5206Z" fill="#C4C4C4" stroke="black"/>
</mask>
<g mask="url(#mask0_76_10)">
<rect width="205.08" height="177.135" fill="#10681B"/>
</g>
</svg>
